because-we-learn.ufo
<glyph name="exclam" format="1">
  <advance width="326"/>
  <unicode hex="0021"/>
  <outline>
    <contour>
      <point x="62" y="575" type="line"/>
      <point x="69" y="489"/>
      <point x="73" y="399"/>
      <point x="85" y="307" type="curve" smooth="yes"/>
      <point x="92" y="252"/>
      <point x="111" y="175"/>
      <point x="185" y="175" type="curve" smooth="yes"/>
      <point x="212" y="175"/>
      <point x="232" y="210"/>
      <point x="232" y="246" type="curve" smooth="yes"/>
      <point x="232" y="301"/>
      <point x="213" y="354"/>
      <point x="207" y="410" type="curve" smooth="yes"/>
      <point x="197" y="504"/>
      <point x="192" y="598"/>
      <point x="181" y="691" type="curve" smooth="yes"/>
      <point x="177" y="723"/>
      <point x="161" y="756"/>
      <point x="124" y="756" type="curve" smooth="yes"/>
      <point x="64" y="756"/>
      <point x="61" y="704"/>
      <point x="61" y="651" type="curve" smooth="yes"/>
      <point x="61" y="627"/>
      <point x="62" y="602"/>
      <point x="62" y="575" type="curve"/>
    </contour>
    <contour>
      <point x="250" y="-5" type="line"/>
      <point x="230" y="46"/>
      <point x="224" y="31"/>
      <point x="199" y="40" type="curve" smooth="yes"/>
      <point x="195" y="41"/>
      <point x="192" y="41"/>
      <point x="188" y="41" type="curve" smooth="yes"/>
      <point x="158" y="41"/>
      <point x="128" y="3"/>
      <point x="128" y="-31" type="curve" smooth="yes"/>
      <point x="128" y="-67"/>
      <point x="149" y="-97"/>
      <point x="177" y="-97" type="curve" smooth="yes"/>
      <point x="181" y="-97"/>
      <point x="187" y="-96"/>
      <point x="192" y="-94" type="curve" smooth="yes"/>
      <point x="240" y="-78"/>
      <point x="255" y="-68"/>
      <point x="255" y="-32" type="curve" smooth="yes"/>
      <point x="255" y="-23"/>
      <point x="253" y="-13"/>
      <point x="250" y="-5" type="curve" smooth="yes"/>
    </contour>
  </outline>
</glyph>
<glyph name="quotedbl" format="1">
  <advance width="520"/>
  <unicode hex="0022"/>
  <outline>
    <contour>
      <point x="62" y="502" type="line"/>
      <point x="70" y="463"/>
      <point x="62" y="356"/>
      <point x="156" y="356" type="curve" smooth="yes"/>
      <point x="174" y="356"/>
      <point x="200" y="385"/>
      <point x="201" y="410" type="curve" smooth="yes"/>
      <point x="202" y="436"/>
      <point x="202" y="463"/>
      <point x="202" y="489" type="curve" smooth="yes"/>
      <point x="202" y="542"/>
      <point x="201" y="595"/>
      <point x="201" y="647" type="curve" smooth="yes"/>
      <point x="201" y="685"/>
      <point x="188" y="717"/>
      <point x="141" y="717" type="curve" smooth="yes"/>
      <point x="72" y="717"/>
      <point x="74" y="601"/>
      <point x="62" y="502" type="curve"/>
    </contour>
    <contour>
      <point x="396" y="713" type="line"/>
      <point x="335" y="693"/>
      <point x="293" y="600"/>
      <point x="293" y="495" type="curve" smooth="yes"/>
      <point x="293" y="420"/>
      <point x="320" y="370"/>
      <point x="376" y="370" type="curve" smooth="yes"/>
      <point x="395" y="370"/>
      <point x="427" y="398"/>
      <point x="427" y="428" type="curve" smooth="yes"/>
      <point x="427" y="451"/>
      <point x="425" y="474"/>
      <point x="425" y="496" type="curve" smooth="yes"/>
      <point x="425" y="545"/>
      <point x="430" y="592"/>
      <point x="455" y="640" type="curve" smooth="yes"/>
      <point x="459" y="647"/>
      <point x="460" y="654"/>
      <point x="460" y="661" type="curve" smooth="yes"/>
      <point x="460" y="689"/>
      <point x="433" y="713"/>
      <point x="402" y="713" type="curve" smooth="yes"/>
    </contour>
  </outline>
</glyph>
<glyph name="numbersign" format="1">
  <advance width="922"/>
  <unicode hex="0023"/>
  <outline>
    <contour>
      <point x="528" y="176" type="line"/>
      <point x="551" y="79"/>
      <point x="560" y="-31"/>
      <point x="629" y="-31" type="curve" smooth="yes"/>
      <point x="681" y="-31"/>
      <point x="694" y="3"/>
      <point x="694" y="34" type="curve" smooth="yes"/>
      <point x="694" y="85"/>
      <point x="678" y="140"/>
      <point x="668" y="195" type="curve"/>
      <point x="769" y="219"/>
      <point x="904" y="225"/>
      <point x="904" y="298" type="curve" smooth="yes"/>
      <point x="904" y="346"/>
      <point x="869" y="362"/>
      <point x="840" y="362" type="curve" smooth="yes"/>
      <point x="785" y="362"/>
      <point x="724" y="338"/>
      <point x="670" y="338" type="curve" smooth="yes"/>
      <point x="644" y="338"/>
      <point x="635" y="349"/>
      <point x="635" y="367" type="curve" smooth="yes"/>
      <point x="635" y="376"/>
      <point x="638" y="388"/>
      <point x="642" y="400" type="curve"/>
      <point x="707" y="410"/>
      <point x="804" y="402"/>
      <point x="804" y="473" type="curve" smooth="yes"/>
      <point x="804" y="538"/>
      <point x="747" y="539"/>
      <point x="691" y="539" type="curve" smooth="yes"/>
      <point x="664" y="539"/>
      <point x="637" y="538"/>
      <point x="609" y="538" type="curve"/>
      <point x="602" y="562" type="line" smooth="yes"/>
      <point x="571" y="671"/>
      <point x="551" y="742"/>
      <point x="494" y="742" type="curve" smooth="yes"/>
      <point x="455" y="742"/>
      <point x="429" y="714"/>
      <point x="429" y="679" type="curve" smooth="yes"/>
      <point x="429" y="644"/>
      <point x="456" y="583"/>
      <point x="479" y="520" type="curve"/>
      <point x="439" y="515"/>
      <point x="416" y="513"/>
      <point x="390" y="510" type="curve"/>
      <point x="369" y="599"/>
      <point x="364" y="717"/>
      <point x="292" y="717" type="curve" smooth="yes"/>
      <point x="243" y="717"/>
      <point x="231" y="685"/>
      <point x="231" y="659" type="curve" smooth="yes"/>
      <point x="231" y="646"/>
      <point x="233" y="632"/>
      <point x="236" y="618" type="curve" smooth="yes"/>
      <point x="245" y="575"/>
      <point x="248" y="529"/>
      <point x="253" y="482" type="curve"/>
      <point x="145" y="459"/>
      <point x="10" y="456"/>
      <point x="10" y="385" type="curve" smooth="yes"/>
      <point x="10" y="335"/>
      <point x="41" y="323"/>
      <point x="69" y="323" type="curve" smooth="yes"/>
      <point x="80" y="323"/>
      <point x="91" y="324"/>
      <point x="103" y="326" type="curve" smooth="yes"/>
      <point x="158" y="335"/>
      <point x="209" y="340"/>
      <point x="259" y="348" type="curve"/>
      <point x="265" y="331"/>
      <point x="269" y="317"/>
      <point x="269" y="306" type="curve" smooth="yes"/>
      <point x="269" y="255"/>
      <point x="187" y="280"/>
      <point x="146" y="255" type="curve" smooth="yes"/>
      <point x="125" y="242"/>
      <point x="101" y="214"/>
      <point x="101" y="194" type="curve" smooth="yes"/>
      <point x="101" y="153"/>
      <point x="164" y="135"/>
      <point x="197" y="135" type="curve" smooth="yes"/>
      <point x="220" y="135"/>
      <point x="244" y="138"/>
      <point x="271" y="138" type="curve"/>
      <point x="276" y="95"/>
      <point x="274" y="54"/>
      <point x="289" y="19" type="curve"/>
      <point x="298" y="-10"/>
      <point x="335" y="-33"/>
      <point x="359" y="-33" type="curve" smooth="yes"/>
      <point x="407" y="-33"/>
      <point x="410" y="19"/>
      <point x="410" y="71" type="curve" smooth="yes"/>
      <point x="410" y="160" type="line"/>
      <point x="455" y="167"/>
      <point x="486" y="170"/>
      <point x="528" y="176" type="curve"/>
    </contour>
    <contour>
      <point x="415" y="298" type="line"/>
      <point x="410" y="313"/>
      <point x="408" y="326"/>
      <point x="408" y="336" type="curve" smooth="yes"/>
      <point x="408" y="367"/>
      <point x="427" y="380"/>
      <point x="456" y="380" type="curve" smooth="yes"/>
      <point x="471" y="380"/>
      <point x="499" y="359"/>
      <point x="499" y="340" type="curve"/>
      <point x="493" y="285"/>
      <point x="449" y="310"/>
      <point x="415" y="298" type="curve"/>
    </contour>
  </outline>
</glyph>
<glyph name="dollar" format="1">
  <advance width="475"/>
  <unicode hex="0024"/>
  <outline>
    <contour>
      <point x="272" y="503" type="line"/>
      <point x="323" y="497"/>
      <point x="332" y="434"/>
      <point x="363" y="434" type="curve" smooth="yes"/>
      <point x="390" y="434"/>
      <point x="405" y="465"/>
      <point x="402" y="506" type="curve" smooth="yes"/>
      <point x="397" y="558"/>
      <point x="365" y="590"/>
      <point x="325" y="607" type="curve"/>
      <point x="330" y="638"/>
      <point x="333" y="648"/>
      <point x="332" y="664" type="curve" smooth="yes"/>
      <point x="330" y="692"/>
      <point x="312" y="723"/>
      <point x="268" y="723" type="curve" smooth="yes"/>
      <point x="226" y="722"/>
      <point x="210" y="672"/>
      <point x="198" y="612" type="curve"/>
      <point x="113" y="586"/>
      <point x="48" y="502"/>
      <point x="55" y="413" type="curve" smooth="yes"/>
      <point x="67" y="263"/>
      <point x="323" y="202"/>
      <point x="331" y="102" type="curve" smooth="yes"/>
      <point x="333" y="77"/>
      <point x="314" y="54"/>
      <point x="278" y="53" type="curve" smooth="yes"/>
      <point x="254" y="53"/>
      <point x="217" y="61"/>
      <point x="195" y="70" type="curve" smooth="yes"/>
      <point x="160" y="85"/>
      <point x="144" y="110"/>
      <point x="110" y="109" type="curve" smooth="yes"/>
      <point x="67" y="109"/>
      <point x="48" y="88"/>
      <point x="51" y="55" type="curve" smooth="yes"/>
      <point x="56" y="0"/>
      <point x="125" y="-47"/>
      <point x="196" y="-70" type="curve"/>
      <point x="198" y="-92" type="line" smooth="yes"/>
      <point x="204" y="-167"/>
      <point x="235" y="-217"/>
      <point x="291" y="-217" type="curve" smooth="yes"/>
      <point x="310" y="-216"/>
      <point x="340" y="-188"/>
      <point x="338" y="-158" type="curve" smooth="yes"/>
      <point x="336" y="-135"/>
      <point x="332" y="-112"/>
      <point x="330" y="-90" type="curve" smooth="yes"/>
      <point x="329" y="-78" type="line"/>
      <point x="413" y="-57"/>
      <point x="475" y="12"/>
      <point x="468" y="95" type="curve" smooth="yes"/>
      <point x="462" y="166"/>
      <point x="430" y="202"/>
      <point x="350" y="276" type="curve" smooth="yes"/>
      <point x="285" y="336"/>
      <point x="195" y="366"/>
      <point x="191" y="414" type="curve" smooth="yes"/>
      <point x="187" y="465"/>
      <point x="228" y="502"/>
      <point x="272" y="503" type="curve" smooth="yes"/>
    </contour>
  </outline>
</glyph>
<glyph name="percent" format="1">
  <advance width="689"/>
  <unicode hex="0025"/>
  <outline>
    <contour>
      <point x="398" y="246" type="line"/>
      <point x="456" y="343"/>
      <point x="561" y="500"/>
      <point x="561" y="600" type="curve" smooth="yes"/>
      <point x="561" y="642"/>
      <point x="540" y="671"/>
      <point x="496" y="671" type="curve" smooth="yes"/>
      <point x="455" y="671"/>
      <point x="446" y="638"/>
      <point x="435" y="600" type="curve" smooth="yes"/>
      <point x="421" y="554"/>
      <point x="384" y="473"/>
      <point x="359" y="435" type="curve" smooth="yes"/>
      <point x="261" y="286"/>
      <point x="239" y="249"/>
      <point x="139" y="101" type="curve" smooth="yes"/>
      <point x="120" y="73"/>
      <point x="87" y="39"/>
      <point x="87" y="8" type="curve" smooth="yes"/>
      <point x="87" y="-29"/>
      <point x="107" y="-53"/>
      <point x="141" y="-53" type="curve" smooth="yes"/>
      <point x="187" y="-53"/>
      <point x="203" y="-34"/>
      <point x="226" y="-1" type="curve" smooth="yes"/>
      <point x="311" y="118"/>
      <point x="319" y="124"/>
      <point x="398" y="246" type="curve"/>
    </contour>
    <contour>
      <point x="623" y="181" type="line"/>
      <point x="612" y="193"/>
      <point x="594" y="201"/>
      <point x="574" y="201" type="curve" smooth="yes"/>
      <point x="512" y="201"/>
      <point x="456" y="149"/>
      <point x="456" y="98" type="curve" smooth="yes"/>
      <point x="456" y="46"/>
      <point x="494" y="8"/>
      <point x="553" y="8" type="curve" smooth="yes"/>
      <point x="604" y="8"/>
      <point x="652" y="51"/>
      <point x="652" y="108" type="curve" smooth="yes"/>
      <point x="652" y="134"/>
      <point x="642" y="160"/>
      <point x="623" y="181" type="curve" smooth="yes"/>
    </contour>
    <contour>
      <point x="231" y="548" type="line"/>
      <point x="235" y="548"/>
      <point x="237" y="564"/>
      <point x="237" y="572" type="curve" smooth="yes"/>
      <point x="237" y="615"/>
      <point x="201" y="645"/>
      <point x="153" y="650" type="curve"/>
      <point x="99" y="650"/>
      <point x="60" y="620"/>
      <point x="60" y="565" type="curve" smooth="yes"/>
      <point x="60" y="504"/>
      <point x="105" y="472"/>
      <point x="147" y="472" type="curve" smooth="yes"/>
      <point x="185" y="472"/>
      <point x="222" y="497"/>
      <point x="231" y="548" type="curve"/>
    </contour>
  </outline>
</glyph>
<glyph name="ampersand" format="1">
  <advance width="633"/>
  <unicode hex="0026"/>
  <outline>
    <contour>
      <point x="519" y="263" type="line"/>
      <point x="505" y="263"/>
      <point x="488" y="219"/>
      <point x="462" y="175" type="curve"/>
      <point x="418" y="211"/>
      <point x="377" y="250"/>
      <point x="340" y="290" type="curve"/>
      <point x="389" y="372"/>
      <point x="449" y="443"/>
      <point x="449" y="519" type="curve" smooth="yes"/>
      <point x="449" y="639"/>
      <point x="350" y="661"/>
      <point x="261" y="661" type="curve" smooth="yes"/>
      <point x="147" y="661"/>
      <point x="78" y="609"/>
      <point x="78" y="515" type="curve" smooth="yes"/>
      <point x="78" y="422"/>
      <point x="109" y="376"/>
      <point x="144" y="306" type="curve"/>
      <point x="106" y="247"/>
      <point x="60" y="190"/>
      <point x="60" y="124" type="curve" smooth="yes"/>
      <point x="60" y="114"/>
      <point x="61" y="104"/>
      <point x="63" y="94" type="curve" smooth="yes"/>
      <point x="91" y="-38"/>
      <point x="205" y="-55"/>
      <point x="312" y="-55" type="curve" smooth="yes"/>
      <point x="355" y="-55"/>
      <point x="442" y="-53"/>
      <point x="502" y="-10" type="curve"/>
      <point x="569" y="-67" type="line" smooth="yes"/>
      <point x="581" y="-78"/>
      <point x="609" y="-89"/>
      <point x="635" y="-89" type="curve" smooth="yes"/>
      <point x="674" y="-89"/>
      <point x="680" y="-53"/>
      <point x="680" y="-34" type="curve" smooth="yes"/>
      <point x="680" y="-7"/>
      <point x="644" y="25"/>
      <point x="567" y="89" type="curve"/>
      <point x="583" y="131"/>
      <point x="600" y="181"/>
      <point x="600" y="208" type="curve" smooth="yes"/>
      <point x="600" y="250"/>
      <point x="552" y="263"/>
      <point x="519" y="263" type="curve"/>
    </contour>
    <contour>
      <point x="300" y="57" type="line"/>
      <point x="245" y="57"/>
      <point x="210" y="69"/>
      <point x="210" y="111" type="curve" smooth="yes"/>
      <point x="210" y="135"/>
      <point x="234" y="175"/>
      <point x="250" y="202" type="curve"/>
      <point x="390" y="82" type="line"/>
      <point x="361" y="61"/>
      <point x="332" y="57"/>
      <point x="300" y="57" type="curve" smooth="yes"/>
    </contour>
    <contour>
      <point x="250" y="410" type="line"/>
      <point x="219" y="453"/>
      <point x="208" y="468"/>
      <point x="208" y="492" type="curve" smooth="yes"/>
      <point x="208" y="518"/>
      <point x="235" y="547"/>
      <point x="265" y="547" type="curve" smooth="yes"/>
      <point x="284" y="547"/>
      <point x="315" y="546"/>
      <point x="315" y="524" type="curve" smooth="yes"/>
      <point x="315" y="499"/>
      <point x="275" y="455"/>
      <point x="250" y="410" type="curve"/>
    </contour>
  </outline>
</glyph>
<glyph name="quotesingle" format="1">
  <advance width="227"/>
  <unicode hex="0027"/>
  <outline>
    <contour>
      <point x="130" y="702" type="line"/>
      <point x="122" y="705"/>
      <point x="114" y="706"/>
      <point x="107" y="706" type="curve" smooth="yes"/>
      <point x="78" y="706"/>
      <point x="52" y="687"/>
      <point x="52" y="659" type="curve" smooth="yes"/>
      <point x="52" y="640"/>
      <point x="57" y="620"/>
      <point x="57" y="602" type="curve" smooth="yes"/>
      <point x="57" y="552"/>
      <point x="42" y="505"/>
      <point x="20" y="438" type="curve" smooth="yes"/>
      <point x="19" y="434"/>
      <point x="18" y="430"/>
      <point x="18" y="426" type="curve" smooth="yes"/>
      <point x="18" y="390"/>
      <point x="38" y="365"/>
      <point x="72" y="365" type="curve" smooth="yes"/>
      <point x="143" y="365"/>
      <point x="182" y="465"/>
      <point x="182" y="570" type="curve" smooth="yes"/>
      <point x="182" y="638"/>
      <point x="166" y="673"/>
      <point x="130" y="702" type="curve"/>
    </contour>
  </outline>
</glyph>
<glyph name="parenleft" format="1">
  <advance width="412"/>
  <unicode hex="0028"/>
  <outline>
    <contour>
      <point x="20" y="304" type="line"/>
      <point x="20" y="295"/>
      <point x="19" y="287"/>
      <point x="19" y="278" type="curve" smooth="yes"/>
      <point x="19" y="96"/>
      <point x="99" y="-129"/>
      <point x="286" y="-188" type="curve" smooth="yes"/>
      <point x="292" y="-190"/>
      <point x="300" y="-191"/>
      <point x="308" y="-191" type="curve" smooth="yes"/>
      <point x="349" y="-191"/>
      <point x="386" y="-169"/>
      <point x="386" y="-139" type="curve" smooth="yes"/>
      <point x="386" y="-108"/>
      <point x="363" y="-99"/>
      <point x="333" y="-71" type="curve" smooth="yes"/>
      <point x="275" y="-16"/>
      <point x="238" y="-23"/>
      <point x="200" y="49" type="curve" smooth="yes"/>
      <point x="184" y="80"/>
      <point x="161" y="214"/>
      <point x="161" y="249" type="curve" smooth="yes"/>
      <point x="161" y="394"/>
      <point x="175" y="442"/>
      <point x="178" y="587" type="curve"/>
      <point x="180" y="606"/>
      <point x="189" y="626"/>
      <point x="189" y="645" type="curve" smooth="yes"/>
      <point x="189" y="678"/>
      <point x="163" y="701"/>
      <point x="143" y="701" type="curve" smooth="yes"/>
      <point x="81" y="701"/>
      <point x="65" y="649"/>
      <point x="58" y="603" type="curve" smooth="yes"/>
      <point x="45" y="515"/>
      <point x="34" y="425"/>
      <point x="20" y="304" type="curve"/>
    </contour>
  </outline>
</glyph>
<glyph name="parenright" format="1">
  <advance width="503"/>
  <unicode hex="0029"/>
  <outline>
    <contour>
      <point x="465" y="53" type="line"/>
      <point x="459" y="241"/>
      <point x="374" y="519"/>
      <point x="241" y="638" type="curve" smooth="yes"/>
      <point x="206" y="669"/>
      <point x="133" y="715"/>
      <point x="88" y="715" type="curve" smooth="yes"/>
      <point x="57" y="715"/>
      <point x="18" y="689"/>
      <point x="18" y="647" type="curve" smooth="yes"/>
      <point x="18" y="617"/>
      <point x="43" y="601"/>
      <point x="74" y="595" type="curve" smooth="yes"/>
      <point x="134" y="582"/>
      <point x="168" y="539"/>
      <point x="199" y="494" type="curve" smooth="yes"/>
      <point x="277" y="380"/>
      <point x="327" y="227"/>
      <point x="327" y="79" type="curve" smooth="yes"/>
      <point x="327" y="13"/>
      <point x="317" y="-53"/>
      <point x="295" y="-114" type="curve" smooth="yes"/>
      <point x="290" y="-127"/>
      <point x="287" y="-139"/>
      <point x="287" y="-150" type="curve" smooth="yes"/>
      <point x="287" y="-176"/>
      <point x="310" y="-206"/>
      <point x="350" y="-206" type="curve" smooth="yes"/>
      <point x="442" y="-206"/>
      <point x="445" y="-57"/>
      <point x="465" y="53" type="curve"/>
    </contour>
  </outline>
</glyph>
<glyph name="asterisk" format="1">
  <advance width="765"/>
  <unicode hex="002A"/>
  <outline>
    <contour>
      <point x="211" y="207" type="line"/>
      <point x="199" y="177"/>
      <point x="193" y="149"/>
      <point x="193" y="124" type="curve" smooth="yes"/>
      <point x="193" y="75"/>
      <point x="215" y="40"/>
      <point x="253" y="40" type="curve" smooth="yes"/>
      <point x="288" y="40"/>
      <point x="352" y="155"/>
      <point x="368" y="193" type="curve"/>
      <point x="398" y="151"/>
      <point x="461" y="76"/>
      <point x="521" y="76" type="curve" smooth="yes"/>
      <point x="567" y="76"/>
      <point x="591" y="108"/>
      <point x="591" y="132" type="curve" smooth="yes"/>
      <point x="591" y="172"/>
      <point x="543" y="217"/>
      <point x="499" y="271" type="curve"/>
      <point x="545" y="283" type="line" smooth="yes"/>
      <point x="721" y="328"/>
      <point x="725" y="329"/>
      <point x="725" y="386" type="curve" smooth="yes"/>
      <point x="725" y="421"/>
      <point x="702" y="438"/>
      <point x="654" y="438" type="curve" smooth="yes"/>
      <point x="592" y="438"/>
      <point x="550" y="422"/>
      <point x="458" y="402" type="curve"/>
      <point x="446" y="423"/>
      <point x="441" y="442"/>
      <point x="441" y="460" type="curve" smooth="yes"/>
      <point x="441" y="534"/>
      <point x="498" y="576"/>
      <point x="498" y="655" type="curve" smooth="yes"/>
      <point x="498" y="683"/>
      <point x="479" y="703"/>
      <point x="444" y="705" type="curve"/>
      <point x="384" y="705"/>
      <point x="340" y="667"/>
      <point x="331" y="603" type="curve"/>
      <point x="324" y="570"/>
      <point x="317" y="552"/>
      <point x="317" y="509" type="curve" smooth="yes"/>
      <point x="317" y="482"/>
      <point x="316" y="455"/>
      <point x="312" y="430" type="curve"/>
      <point x="242" y="501"/>
      <point x="231" y="503"/>
      <point x="211" y="576" type="curve" smooth="yes"/>
      <point x="202" y="607"/>
      <point x="186" y="633"/>
      <point x="152" y="633" type="curve" smooth="yes"/>
      <point x="109" y="633"/>
      <point x="90" y="602"/>
      <point x="90" y="573" type="curve" smooth="yes"/>
      <point x="90" y="491"/>
      <point x="167" y="415"/>
      <point x="215" y="342" type="curve"/>
      <point x="162" y="333"/>
      <point x="122" y="325"/>
      <point x="82" y="322" type="curve"/>
      <point x="47" y="317"/>
      <point x="18" y="304"/>
      <point x="18" y="267" type="curve" smooth="yes"/>
      <point x="18" y="213"/>
      <point x="66" y="205"/>
      <point x="113" y="205" type="curve" smooth="yes"/>
      <point x="129" y="205"/>
      <point x="202" y="207"/>
      <point x="211" y="207" type="curve"/>
    </contour>
  </outline>
</glyph>
<glyph name="plus" format="1">
  <advance width="651"/>
  <unicode hex="002B"/>
  <outline>
    <contour>
      <point x="410" y="190" type="line"/>
      <point x="486" y="196"/>
      <point x="528" y="200"/>
      <point x="570" y="208" type="curve"/>
      <point x="608" y="212"/>
      <point x="640" y="233"/>
      <point x="640" y="273" type="curve" smooth="yes"/>
      <point x="640" y="325"/>
      <point x="603" y="336"/>
      <point x="570" y="336" type="curve" smooth="yes"/>
      <point x="564" y="336"/>
      <point x="557" y="335"/>
      <point x="551" y="335" type="curve" smooth="yes"/>
      <point x="500" y="331"/>
      <point x="461" y="328"/>
      <point x="381" y="323" type="curve"/>
      <point x="365" y="399"/>
      <point x="359" y="411"/>
      <point x="346" y="453" type="curve"/>
      <point x="336" y="490"/>
      <point x="311" y="518"/>
      <point x="271" y="513" type="curve"/>
      <point x="220" y="505"/>
      <point x="215" y="468"/>
      <point x="219" y="434" type="curve"/>
      <point x="223" y="416" type="line"/>
      <point x="245" y="316" type="line"/>
      <point x="172" y="312"/>
      <point x="132" y="307"/>
      <point x="84" y="305" type="curve" smooth="yes"/>
      <point x="47" y="303"/>
      <point x="13" y="291"/>
      <point x="13" y="258" type="curve" smooth="yes"/>
      <point x="13" y="233"/>
      <point x="45" y="196"/>
      <point x="71" y="189" type="curve" smooth="yes"/>
      <point x="120" y="176"/>
      <point x="144" y="181"/>
      <point x="214" y="176" type="curve"/>
      <point x="273" y="181" type="line"/>
      <point x="313" y="18" type="line" smooth="yes"/>
      <point x="322" y="-18"/>
      <point x="337" y="-46"/>
      <point x="369" y="-46" type="curve" smooth="yes"/>
      <point x="396" y="-46"/>
      <point x="426" y="-5"/>
      <point x="429" y="21" type="curve" smooth="yes"/>
      <point x="431" y="36"/>
      <point x="431" y="48"/>
      <point x="431" y="60" type="curve" smooth="yes"/>
      <point x="431" y="107"/>
      <point x="420" y="149"/>
      <point x="410" y="190" type="curve"/>
    </contour>
  </outline>
</glyph>
<glyph name="comma" format="1">
  <advance width="273"/>
  <unicode hex="002C"/>
  <outline>
    <contour>
      <point x="240" y="-29" type="line"/>
      <point x="215" y="49"/>
      <point x="191" y="206"/>
      <point x="114" y="206" type="curve" smooth="yes"/>
      <point x="71" y="206"/>
      <point x="52" y="173"/>
      <point x="52" y="156" type="curve" smooth="yes"/>
      <point x="52" y="135"/>
      <point x="66" y="112"/>
      <point x="75" y="89" type="curve" smooth="yes"/>
      <point x="92" y="45"/>
      <point x="104" y="10"/>
      <point x="104" y="-25" type="curve" smooth="yes"/>
      <point x="104" y="-62"/>
      <point x="91" y="-99"/>
      <point x="56" y="-143" type="curve" smooth="yes"/>
      <point x="43" y="-160"/>
      <point x="32" y="-176"/>
      <point x="32" y="-194" type="curve" smooth="yes"/>
      <point x="32" y="-223"/>
      <point x="67" y="-250"/>
      <point x="93" y="-250" type="curve" smooth="yes"/>
      <point x="112" y="-250"/>
      <point x="132" y="-241"/>
      <point x="149" y="-227" type="curve" smooth="yes"/>
      <point x="211" y="-177"/>
      <point x="229" y="-107"/>
      <point x="240" y="-29" type="curve"/>
    </contour>
  </outline>
</glyph>
<glyph name="hyphen" format="1">
  <advance width="486"/>
  <unicode hex="002D"/>
  <outline>
    <contour>
      <point x="188" y="167" type="line"/>
      <point x="258" y="178"/>
      <point x="445" y="171"/>
      <point x="445" y="287" type="curve" smooth="yes"/>
      <point x="445" y="316"/>
      <point x="436" y="333"/>
      <point x="383" y="333" type="curve" smooth="yes"/>
      <point x="377" y="333"/>
      <point x="372" y="333"/>
      <point x="368" y="332" type="curve" smooth="yes"/>
      <point x="286" y="321"/>
      <point x="204" y="303"/>
      <point x="121" y="286" type="curve" smooth="yes"/>
      <point x="98" y="281"/>
      <point x="68" y="283"/>
      <point x="48" y="269" type="curve" smooth="yes"/>
      <point x="31" y="257"/>
      <point x="16" y="229"/>
      <point x="16" y="210" type="curve" smooth="yes"/>
      <point x="16" y="171"/>
      <point x="79" y="166"/>
      <point x="112" y="166" type="curve" smooth="yes"/>
      <point x="134" y="166"/>
      <point x="158" y="167"/>
      <point x="188" y="167" type="curve"/>
    </contour>
  </outline>
</glyph>
<glyph name="period" format="1">
  <advance width="344"/>
  <unicode hex="002E"/>
  <outline>
    <contour>
      <point x="176" y="131" type="line"/>
      <point x="142" y="130"/>
      <point x="120" y="102"/>
      <point x="120" y="62" type="curve" smooth="yes"/>
      <point x="120" y="7"/>
      <point x="160" y="-32"/>
      <point x="205" y="-32" type="curve" smooth="yes"/>
      <point x="256" y="-32"/>
      <point x="283" y="5"/>
      <point x="288" y="48" type="curve"/>
      <point x="288" y="92"/>
      <point x="232" y="131"/>
      <point x="176" y="131" type="curve"/>
    </contour>
  </outline>
</glyph>
<glyph name="slash" format="1">
  <advance width="572"/>
  <unicode hex="002F"/>
  <outline>
    <contour>
      <point x="140" y="-90" type="line"/>
      <point x="213" y="23"/>
      <point x="225" y="40"/>
      <point x="407" y="397" type="curve" smooth="yes"/>
      <point x="434" y="451"/>
      <point x="520" y="609"/>
      <point x="527" y="625" type="curve" smooth="yes"/>
      <point x="536" y="645"/>
      <point x="543" y="672"/>
      <point x="543" y="697" type="curve" smooth="yes"/>
      <point x="543" y="732"/>
      <point x="530" y="765"/>
      <point x="492" y="765" type="curve" smooth="yes"/>
      <point x="452" y="765"/>
      <point x="435" y="742"/>
      <point x="408" y="690" type="curve" smooth="yes"/>
      <point x="379" y="633" type="line" smooth="yes"/>
      <point x="312" y="501"/>
      <point x="136" y="158"/>
      <point x="111" y="107" type="curve" smooth="yes"/>
      <point x="79" y="44"/>
      <point x="55" y="10"/>
      <point x="23" y="-53" type="curve" smooth="yes"/>
      <point x="17" y="-64"/>
      <point x="14" y="-75"/>
      <point x="14" y="-87" type="curve" smooth="yes"/>
      <point x="14" y="-109"/>
      <point x="31" y="-142"/>
      <point x="68" y="-142" type="curve" smooth="yes"/>
      <point x="93" y="-142"/>
      <point x="116" y="-122"/>
      <point x="140" y="-90" type="curve"/>
    </contour>
  </outline>
</glyph>
<glyph name="zero" format="1">
  <advance width="765"/>
  <unicode hex="0030"/>
  <outline>
    <contour>
      <point x="18" y="347" type="line"/>
      <point x="14" y="320"/>
      <point x="12" y="294"/>
      <point x="12" y="270" type="curve" smooth="yes"/>
      <point x="12" y="171"/>
      <point x="46" y="97"/>
      <point x="94" y="32" type="curve" smooth="yes"/>
      <point x="158" y="-56"/>
      <point x="256" y="-103"/>
      <point x="359" y="-103" type="curve" smooth="yes"/>
      <point x="568" y="-103"/>
      <point x="709" y="68"/>
      <point x="709" y="225" type="curve" smooth="yes"/>
      <point x="709" y="420"/>
      <point x="555" y="576"/>
      <point x="401" y="669" type="curve" smooth="yes"/>
      <point x="349" y="700"/>
      <point x="302" y="716"/>
      <point x="261" y="716" type="curve" smooth="yes"/>
      <point x="195" y="716"/>
      <point x="143" y="676"/>
      <point x="101" y="592" type="curve" smooth="yes"/>
      <point x="56" y="504"/>
      <point x="27" y="404"/>
      <point x="18" y="347" type="curve" smooth="yes"/>
    </contour>
    <contour>
      <point x="148" y="289" type="line"/>
      <point x="149" y="340"/>
      <point x="165" y="393"/>
      <point x="179" y="445" type="curve" smooth="yes"/>
      <point x="199" y="515"/>
      <point x="244" y="552"/>
      <point x="298" y="552" type="curve" smooth="yes"/>
      <point x="408" y="552"/>
      <point x="575" y="369"/>
      <point x="575" y="225" type="curve" smooth="yes"/>
      <point x="575" y="128"/>
      <point x="493" y="28"/>
      <point x="356" y="28" type="curve" smooth="yes"/>
      <point x="268" y="28"/>
      <point x="193" y="87"/>
      <point x="167" y="187" type="curve" smooth="yes"/>
      <point x="158" y="220"/>
      <point x="148" y="251"/>
      <point x="148" y="289" type="curve" smooth="yes"/>
    </contour>
  </outline>
</glyph>
<glyph name="one" format="1">
  <advance width="751"/>
  <unicode hex="0031"/>
  <outline>
    <contour>
      <point x="448" y="114" type="line"/>
      <point x="448" y="182"/>
      <point x="447" y="243"/>
      <point x="447" y="304" type="curve" smooth="yes"/>
      <point x="447" y="374"/>
      <point x="448" y="430"/>
      <point x="448" y="488" type="curve" smooth="yes"/>
      <point x="448" y="531" type="line" smooth="yes"/>
      <point x="448" y="634"/>
      <point x="443" y="748"/>
      <point x="358" y="748" type="curve" smooth="yes"/>
      <point x="278" y="748"/>
      <point x="156" y="611"/>
      <point x="74" y="532" type="curve" smooth="yes"/>
      <point x="61" y="519"/>
      <point x="47" y="501"/>
      <point x="47" y="486" type="curve" smooth="yes"/>
      <point x="47" y="446"/>
      <point x="50" y="405"/>
      <point x="90" y="405" type="curve" smooth="yes"/>
      <point x="159" y="405"/>
      <point x="202" y="486"/>
      <point x="251" y="529" type="curve" smooth="yes"/>
      <point x="267" y="543"/>
      <point x="291" y="551"/>
      <point x="319" y="567" type="curve"/>
      <point x="316" y="391"/>
      <point x="314" y="273"/>
      <point x="309" y="100" type="curve"/>
      <point x="258" y="100"/>
      <point x="209" y="99"/>
      <point x="162" y="99" type="curve" smooth="yes"/>
      <point x="135" y="99"/>
      <point x="108" y="100"/>
      <point x="81" y="100" type="curve" smooth="yes"/>
      <point x="46" y="100"/>
      <point x="14" y="89"/>
      <point x="14" y="40" type="curve" smooth="yes"/>
      <point x="14" y="-20"/>
      <point x="93" y="-27"/>
      <point x="148" y="-27" type="curve" smooth="yes"/>
      <point x="273" y="-27"/>
      <point x="401" y="-17"/>
      <point x="526" y="-9" type="curve" smooth="yes"/>
      <point x="599" y="-4"/>
      <point x="716" y="3"/>
      <point x="716" y="74" type="curve" smooth="yes"/>
      <point x="716" y="122"/>
      <point x="680" y="135"/>
      <point x="648" y="135" type="curve" smooth="yes"/>
      <point x="587" y="135"/>
      <point x="523" y="123"/>
      <point x="448" y="114" type="curve"/>
    </contour>
  </outline>
</glyph>
<glyph name="two" format="1">
  <advance width="554"/>
  <unicode hex="0032"/>
  <outline>
    <contour>
      <point x="299" y="592" type="line"/>
      <point x="312" y="592"/>
      <point x="315" y="589"/>
      <point x="315" y="582" type="curve" smooth="yes"/>
      <point x="315" y="551"/>
      <point x="245" y="457"/>
      <point x="219" y="408" type="curve" smooth="yes"/>
      <point x="163" y="303"/>
      <point x="45" y="160"/>
      <point x="45" y="75" type="curve" smooth="yes"/>
      <point x="45" y="14"/>
      <point x="93" y="-16"/>
      <point x="189" y="-16" type="curve" smooth="yes"/>
      <point x="274" y="-16"/>
      <point x="360" y="-1"/>
      <point x="444" y="11" type="curve"/>
      <point x="482" y="20"/>
      <point x="527" y="54"/>
      <point x="527" y="96" type="curve" smooth="yes"/>
      <point x="527" y="128"/>
      <point x="495" y="148"/>
      <point x="467" y="148" type="curve" smooth="yes"/>
      <point x="444" y="148"/>
      <point x="420" y="135"/>
      <point x="397" y="133" type="curve"/>
      <point x="337" y="123"/>
      <point x="276" y="115"/>
      <point x="194" y="105" type="curve"/>
      <point x="223" y="156"/>
      <point x="238" y="188"/>
      <point x="254" y="219" type="curve" smooth="yes"/>
      <point x="322" y="352"/>
      <point x="441" y="502"/>
      <point x="441" y="631" type="curve" smooth="yes"/>
      <point x="441" y="701"/>
      <point x="393" y="751"/>
      <point x="326" y="751" type="curve" smooth="yes"/>
      <point x="200" y="751"/>
      <point x="90" y="657"/>
      <point x="28" y="557" type="curve" smooth="yes"/>
      <point x="19" y="543"/>
      <point x="15" y="527"/>
      <point x="15" y="513" type="curve" smooth="yes"/>
      <point x="15" y="475"/>
      <point x="41" y="448"/>
      <point x="76" y="448" type="curve" smooth="yes"/>
      <point x="101" y="448"/>
      <point x="119" y="466"/>
      <point x="133" y="490" type="curve" smooth="yes"/>
      <point x="167" y="549"/>
      <point x="248" y="592"/>
      <point x="299" y="592" type="curve" smooth="yes"/>
    </contour>
  </outline>
</glyph>
<glyph name="three" format="1">
  <advance width="587"/>
  <unicode hex="0033"/>
  <outline>
    <contour>
      <point x="288" y="597" type="line"/>
      <point x="251" y="540"/>
      <point x="227" y="498"/>
      <point x="196" y="459" type="curve"/>
      <point x="164" y="412"/>
      <point x="102" y="383"/>
      <point x="102" y="319" type="curve" smooth="yes"/>
      <point x="102" y="287"/>
      <point x="151" y="266"/>
      <point x="186" y="266" type="curve" smooth="yes"/>
      <point x="220" y="266"/>
      <point x="256" y="277"/>
      <point x="290" y="277" type="curve" smooth="yes"/>
      <point x="354" y="277"/>
      <point x="426" y="226"/>
      <point x="426" y="140" type="curve" smooth="yes"/>
      <point x="426" y="113"/>
      <point x="417" y="87"/>
      <point x="397" y="66" type="curve" smooth="yes"/>
      <point x="364" y="31"/>
      <point x="287" y="-23"/>
      <point x="256" y="-23" type="curve" smooth="yes"/>
      <point x="217" y="-23"/>
      <point x="198" y="17"/>
      <point x="149" y="17" type="curve" smooth="yes"/>
      <point x="106" y="17"/>
      <point x="99" y="-16"/>
      <point x="99" y="-47" type="curve" smooth="yes"/>
      <point x="99" y="-114"/>
      <point x="174" y="-155"/>
      <point x="245" y="-155" type="curve" smooth="yes"/>
      <point x="421" y="-155"/>
      <point x="558" y="11"/>
      <point x="558" y="144" type="curve" smooth="yes"/>
      <point x="558" y="239"/>
      <point x="504" y="331"/>
      <point x="401" y="385" type="curve" smooth="yes"/>
      <point x="383" y="394"/>
      <point x="363" y="403"/>
      <point x="344" y="413" type="curve"/>
      <point x="371" y="480"/>
      <point x="414" y="546"/>
      <point x="414" y="610" type="curve" smooth="yes"/>
      <point x="414" y="680"/>
      <point x="362" y="728"/>
      <point x="281" y="728" type="curve" smooth="yes"/>
      <point x="173" y="728"/>
      <point x="24" y="649"/>
      <point x="24" y="559" type="curve" smooth="yes"/>
      <point x="24" y="517"/>
      <point x="49" y="479"/>
      <point x="80" y="479" type="curve" smooth="yes"/>
      <point x="101" y="479"/>
      <point x="119" y="495"/>
      <point x="131" y="518" type="curve" smooth="yes"/>
      <point x="159" y="573"/>
      <point x="207" y="592"/>
      <point x="288" y="597" type="curve"/>
    </contour>
  </outline>
</glyph>
<glyph name="four" format="1">
  <advance width="722"/>
  <unicode hex="0034"/>
  <outline>
    <contour>
      <point x="532" y="206" type="line"/>
      <point x="538" y="165"/>
      <point x="544" y="130"/>
      <point x="547" y="95" type="curve"/>
      <point x="547" y="94"/>
      <point x="547" y="92"/>
      <point x="548" y="93" type="curve"/>
      <point x="548" y="93"/>
      <point x="549" y="88"/>
      <point x="549" y="52" type="curve" smooth="yes"/>
      <point x="549" y="-14"/>
      <point x="555" y="-78"/>
      <point x="619" y="-78" type="curve" smooth="yes"/>
      <point x="686" y="-78"/>
      <point x="686" y="-12"/>
      <point x="686" y="43" type="curve" smooth="yes"/>
      <point x="686" y="52" type="line" smooth="yes"/>
      <point x="686" y="103"/>
      <point x="674" y="113"/>
      <point x="674" y="164" type="curve" smooth="yes"/>
      <point x="674" y="204"/>
      <point x="661" y="356"/>
      <point x="661" y="396" type="curve" smooth="yes"/>
      <point x="661" y="522"/>
      <point x="663" y="527"/>
      <point x="663" y="657" type="curve" smooth="yes"/>
      <point x="663" y="701"/>
      <point x="638" y="739"/>
      <point x="589" y="739" type="curve" smooth="yes"/>
      <point x="549" y="739"/>
      <point x="529" y="710"/>
      <point x="524" y="673" type="curve"/>
      <point x="520" y="592"/>
      <point x="517" y="508"/>
      <point x="517" y="428" type="curve" smooth="yes"/>
      <point x="517" y="402"/>
      <point x="518" y="375"/>
      <point x="518" y="347" type="curve"/>
      <point x="486" y="344"/>
      <point x="455" y="342"/>
      <point x="425" y="342" type="curve" smooth="yes"/>
      <point x="356" y="342"/>
      <point x="289" y="350"/>
      <point x="214" y="364" type="curve"/>
      <point x="289" y="421"/>
      <point x="352" y="461"/>
      <point x="405" y="511" type="curve" smooth="yes"/>
      <point x="439" y="543"/>
      <point x="485" y="608"/>
      <point x="485" y="649" type="curve" smooth="yes"/>
      <point x="485" y="680"/>
      <point x="454" y="713"/>
      <point x="408" y="713" type="curve" smooth="yes"/>
      <point x="381" y="713"/>
      <point x="360" y="695"/>
      <point x="356" y="665" type="curve" smooth="yes"/>
      <point x="349" y="615"/>
      <point x="312" y="592"/>
      <point x="275" y="568" type="curve" smooth="yes"/>
      <point x="211" y="526"/>
      <point x="145" y="486"/>
      <point x="79" y="447" type="curve" smooth="yes"/>
      <point x="43" y="426"/>
      <point x="11" y="402"/>
      <point x="11" y="358" type="curve" smooth="yes"/>
      <point x="11" y="299"/>
      <point x="54" y="269"/>
      <point x="101" y="257" type="curve" smooth="yes"/>
      <point x="167" y="240"/>
      <point x="237" y="227"/>
      <point x="306" y="219" type="curve" smooth="yes"/>
      <point x="379" y="211"/>
      <point x="453" y="210"/>
      <point x="532" y="206" type="curve"/>
    </contour>
  </outline>
</glyph>
<glyph name="five" format="1">
  <advance width="601"/>
  <unicode hex="0035"/>
  <outline>
    <contour>
      <point x="232" y="516" type="line"/>
      <point x="232" y="568"/>
      <point x="261" y="572"/>
      <point x="292" y="574" type="curve" smooth="yes"/>
      <point x="375" y="581"/>
      <point x="503" y="569"/>
      <point x="503" y="647" type="curve" smooth="yes"/>
      <point x="503" y="686"/>
      <point x="482" y="712"/>
      <point x="444" y="712" type="curve" smooth="yes"/>
      <point x="440" y="712"/>
      <point x="436" y="712"/>
      <point x="432" y="711" type="curve" smooth="yes"/>
      <point x="320" y="697"/>
      <point x="207" y="683"/>
      <point x="95" y="660" type="curve" smooth="yes"/>
      <point x="67" y="654"/>
      <point x="45" y="631"/>
      <point x="45" y="607" type="curve" smooth="yes"/>
      <point x="45" y="596"/>
      <point x="49" y="585"/>
      <point x="59" y="576" type="curve" smooth="yes"/>
      <point x="86" y="552"/>
      <point x="94" y="528"/>
      <point x="94" y="504" type="curve" smooth="yes"/>
      <point x="94" y="442"/>
      <point x="49" y="381"/>
      <point x="49" y="320" type="curve" smooth="yes"/>
      <point x="49" y="295"/>
      <point x="74" y="255"/>
      <point x="116" y="255" type="curve" smooth="yes"/>
      <point x="182" y="255"/>
      <point x="216" y="376"/>
      <point x="297" y="376" type="curve" smooth="yes"/>
      <point x="364" y="376"/>
      <point x="420" y="284"/>
      <point x="420" y="223" type="curve" smooth="yes"/>
      <point x="420" y="137"/>
      <point x="260" y="74"/>
      <point x="159" y="66" type="curve"/>
      <point x="140" y="67"/>
      <point x="125" y="137"/>
      <point x="88" y="137" type="curve" smooth="yes"/>
      <point x="49" y="137"/>
      <point x="19" y="80"/>
      <point x="19" y="44" type="curve" smooth="yes"/>
      <point x="19" y="-22"/>
      <point x="70" y="-70"/>
      <point x="143" y="-70" type="curve" smooth="yes"/>
      <point x="149" y="-70"/>
      <point x="155" y="-70"/>
      <point x="162" y="-69" type="curve" smooth="yes"/>
      <point x="327" y="-50"/>
      <point x="555" y="50"/>
      <point x="555" y="223" type="curve" smooth="yes"/>
      <point x="555" y="249"/>
      <point x="550" y="277"/>
      <point x="539" y="306" type="curve" smooth="yes"/>
      <point x="487" y="438"/>
      <point x="397" y="516"/>
      <point x="246" y="516" type="curve" smooth="yes"/>
    </contour>
  </outline>
</glyph>
<glyph name="six" format="1">
  <advance width="785"/>
  <unicode hex="0036"/>
  <outline>
    <contour>
      <point x="507" y="77" type="line"/>
      <point x="553" y="112"/>
      <point x="603" y="143"/>
      <point x="637" y="184" type="curve" smooth="yes"/>
      <point x="680" y="236"/>
      <point x="748" y="329"/>
      <point x="748" y="388" type="curve" smooth="yes"/>
      <point x="748" y="448"/>
      <point x="680" y="516"/>
      <point x="615" y="516" type="curve" smooth="yes"/>
      <point x="560" y="516"/>
      <point x="479" y="456"/>
      <point x="442" y="394" type="curve" smooth="yes"/>
      <point x="391" y="308"/>
      <point x="369" y="146"/>
      <point x="294" y="146" type="curve" smooth="yes"/>
      <point x="284" y="146"/>
      <point x="272" y="148"/>
      <point x="260" y="153" type="curve" smooth="yes"/>
      <point x="180" y="182"/>
      <point x="155" y="255"/>
      <point x="155" y="337" type="curve" smooth="yes"/>
      <point x="155" y="429"/>
      <point x="174" y="519"/>
      <point x="174" y="611" type="curve" smooth="yes"/>
      <point x="174" y="646"/>
      <point x="161" y="678"/>
      <point x="126" y="678" type="curve" smooth="yes"/>
      <point x="102" y="678"/>
      <point x="55" y="651"/>
      <point x="51" y="618" type="curve" smooth="yes"/>
      <point x="39" y="527"/>
      <point x="21" y="435"/>
      <point x="21" y="344" type="curve" smooth="yes"/>
      <point x="21" y="146"/>
      <point x="109" y="24"/>
      <point x="276" y="18" type="curve" smooth="yes"/>
      <point x="285" y="18" type="line" smooth="yes"/>
      <point x="329" y="16"/>
      <point x="365" y="15"/>
      <point x="405" y="-19" type="curve" smooth="yes"/>
      <point x="420" y="-32"/>
      <point x="435" y="-38"/>
      <point x="449" y="-38" type="curve" smooth="yes"/>
      <point x="479" y="-38"/>
      <point x="508" y="-3"/>
      <point x="508" y="51" type="curve" smooth="yes"/>
      <point x="508" y="60"/>
      <point x="507" y="69"/>
      <point x="507" y="77" type="curve"/>
    </contour>
    <contour>
      <point x="505" y="210" type="line"/>
      <point x="495" y="210"/>
      <point x="492" y="224"/>
      <point x="492" y="234" type="curve" smooth="yes"/>
      <point x="492" y="288"/>
      <point x="561" y="398"/>
      <point x="606" y="398" type="curve" smooth="yes"/>
      <point x="612" y="398"/>
      <point x="621" y="394"/>
      <point x="621" y="386" type="curve" smooth="yes"/>
      <point x="621" y="363"/>
      <point x="616" y="337"/>
      <point x="600" y="312" type="curve" smooth="yes"/>
      <point x="583" y="286"/>
      <point x="529" y="210"/>
      <point x="505" y="210" type="curve" smooth="yes"/>
    </contour>
  </outline>
</glyph>
<glyph name="seven" format="1">
  <advance width="960"/>
  <unicode hex="0037"/>
  <outline>
    <contour>
      <point x="601" y="376" type="line"/>
      <point x="572" y="599"/>
      <point x="560" y="698"/>
      <point x="440" y="698" type="curve" smooth="yes"/>
      <point x="412" y="698"/>
      <point x="377" y="692"/>
      <point x="338" y="679" type="curve" smooth="yes"/>
      <point x="247" y="648"/>
      <point x="156" y="617"/>
      <point x="66" y="589" type="curve" smooth="yes"/>
      <point x="33" y="578"/>
      <point x="8" y="561"/>
      <point x="8" y="527" type="curve" smooth="yes"/>
      <point x="8" y="481"/>
      <point x="39" y="463"/>
      <point x="74" y="463" type="curve" smooth="yes"/>
      <point x="115" y="463"/>
      <point x="157" y="476"/>
      <point x="196" y="489" type="curve" smooth="yes"/>
      <point x="272" y="513"/>
      <point x="346" y="540"/>
      <point x="426" y="568" type="curve"/>
      <point x="451" y="521"/>
      <point x="459" y="477"/>
      <point x="459" y="434" type="curve" smooth="yes"/>
      <point x="459" y="409"/>
      <point x="456" y="384"/>
      <point x="453" y="359" type="curve"/>
      <point x="382" y="338"/>
      <point x="316" y="322"/>
      <point x="249" y="299" type="curve" smooth="yes"/>
      <point x="217" y="288"/>
      <point x="188" y="264"/>
      <point x="188" y="231" type="curve" smooth="yes"/>
      <point x="188" y="187"/>
      <point x="220" y="170"/>
      <point x="243" y="170" type="curve" smooth="yes"/>
      <point x="289" y="170"/>
      <point x="349" y="214"/>
      <point x="416" y="214" type="curve" smooth="yes"/>
      <point x="434" y="214"/>
      <point x="454" y="211"/>
      <point x="474" y="206" type="curve"/>
      <point x="474" y="169"/>
      <point x="473" y="132"/>
      <point x="473" y="96" type="curve" smooth="yes"/>
      <point x="473" y="89" type="line" smooth="yes"/>
      <point x="473" y="43"/>
      <point x="473" y="-23"/>
      <point x="521" y="-23" type="curve" smooth="yes"/>
      <point x="570" y="-23"/>
      <point x="606" y="32"/>
      <point x="606" y="76" type="curve" smooth="yes"/>
      <point x="606" y="133"/>
      <point x="604" y="183"/>
      <point x="604" y="242" type="curve"/>
      <point x="656" y="248"/>
      <point x="692" y="253"/>
      <point x="728" y="259" type="curve" smooth="yes"/>
      <point x="811" y="271"/>
      <point x="947" y="278"/>
      <point x="947" y="356" type="curve" smooth="yes"/>
      <point x="947" y="405"/>
      <point x="916" y="418"/>
      <point x="891" y="418" type="curve" smooth="yes"/>
      <point x="877" y="418"/>
      <point x="862" y="412"/>
      <point x="848" y="412" type="curve"/>
      <point x="769" y="397"/>
      <point x="688" y="389"/>
      <point x="601" y="376" type="curve"/>
    </contour>
  </outline>
</glyph>
<glyph name="eight" format="1">
  <advance width="591"/>
  <unicode hex="0038"/>
  <outline>
    <contour>
      <point x="321" y="322" type="line"/>
      <point x="349" y="345"/>
      <point x="366" y="364"/>
      <point x="386" y="377" type="curve" smooth="yes"/>
      <point x="459" y="424"/>
      <point x="566" y="472"/>
      <point x="566" y="506" type="curve" smooth="yes"/>
      <point x="566" y="524"/>
      <point x="551" y="546"/>
      <point x="523" y="580" type="curve" smooth="yes"/>
      <point x="511" y="594"/>
      <point x="510" y="614"/>
      <point x="499" y="627" type="curve" smooth="yes"/>
      <point x="480" y="648"/>
      <point x="461" y="679"/>
      <point x="437" y="681" type="curve"/>
      <point x="390" y="688"/>
      <point x="343" y="694"/>
      <point x="296" y="694" type="curve" smooth="yes"/>
      <point x="156" y="694"/>
      <point x="8" y="634"/>
      <point x="8" y="512" type="curve" smooth="yes"/>
      <point x="8" y="432"/>
      <point x="75" y="366"/>
      <point x="130" y="299" type="curve"/>
      <point x="114" y="236"/>
      <point x="96" y="190"/>
      <point x="96" y="117" type="curve" smooth="yes"/>
      <point x="96" y="-21"/>
      <point x="167" y="-104"/>
      <point x="294" y="-104" type="curve" smooth="yes"/>
      <point x="380" y="-104"/>
      <point x="477" y="-45"/>
      <point x="477" y="58" type="curve" smooth="yes"/>
      <point x="477" y="149"/>
      <point x="395" y="227"/>
      <point x="321" y="322" type="curve"/>
    </contour>
    <contour>
      <point x="214" y="410" type="line"/>
      <point x="190" y="440"/>
      <point x="167" y="469"/>
      <point x="141" y="503" type="curve" smooth="yes"/>
      <point x="134" y="511" type="line"/>
      <point x="196" y="556"/>
      <point x="256" y="570"/>
      <point x="329" y="570" type="curve" smooth="yes"/>
      <point x="355" y="570"/>
      <point x="383" y="568"/>
      <point x="414" y="565" type="curve"/>
    </contour>
    <contour>
      <point x="255" y="195" type="line"/>
      <point x="290" y="148"/>
      <point x="318" y="105"/>
      <point x="344" y="69" type="curve"/>
      <point x="326" y="39"/>
      <point x="308" y="28"/>
      <point x="290" y="28" type="curve" smooth="yes"/>
      <point x="256" y="28"/>
      <point x="225" y="62"/>
      <point x="225" y="98" type="curve" smooth="yes"/>
      <point x="225" y="123"/>
      <point x="235" y="155"/>
      <point x="255" y="195" type="curve"/>
    </contour>
  </outline>
</glyph>
<glyph name="nine" format="1">
  <advance width="597"/>
  <unicode hex="0039"/>
  <outline>
    <contour>
      <point x="410" y="233" type="line"/>
      <point x="409" y="196"/>
      <point x="409" y="161"/>
      <point x="409" y="127" type="curve" smooth="yes"/>
      <point x="409" y="28" type="line" smooth="yes"/>
      <point x="409" y="-128"/>
      <point x="409" y="-188"/>
      <point x="473" y="-188" type="curve" smooth="yes"/>
      <point x="518" y="-188"/>
      <point x="539" y="-156"/>
      <point x="541" y="-72" type="curve" smooth="yes"/>
      <point x="546" y="109"/>
      <point x="552" y="291"/>
      <point x="552" y="473" type="curve" smooth="yes"/>
      <point x="552" y="592"/>
      <point x="450" y="693"/>
      <point x="328" y="693" type="curve" smooth="yes"/>
      <point x="167" y="693"/>
      <point x="55" y="505"/>
      <point x="22" y="356" type="curve" smooth="yes"/>
      <point x="18" y="338"/>
      <point x="16" y="320"/>
      <point x="16" y="303" type="curve" smooth="yes"/>
      <point x="16" y="222"/>
      <point x="83" y="131"/>
      <point x="185" y="131" type="curve" smooth="yes"/>
      <point x="258" y="131"/>
      <point x="314" y="176"/>
      <point x="410" y="233" type="curve"/>
    </contour>
    <contour>
      <point x="413" y="522" type="line"/>
      <point x="418" y="510"/>
      <point x="420" y="497"/>
      <point x="420" y="485" type="curve" smooth="yes"/>
      <point x="420" y="405"/>
      <point x="326" y="336"/>
      <point x="252" y="291" type="curve" smooth="yes"/>
      <point x="234" y="280"/>
      <point x="211" y="268"/>
      <point x="192" y="268" type="curve" smooth="yes"/>
      <point x="162" y="268"/>
      <point x="157" y="296"/>
      <point x="157" y="329" type="curve" smooth="yes"/>
      <point x="157" y="372"/>
      <point x="260" y="560"/>
      <point x="339" y="562" type="curve" smooth="yes"/>
      <point x="364" y="562"/>
      <point x="400" y="558"/>
      <point x="413" y="522" type="curve" smooth="yes"/>
    </contour>
  </outline>
</glyph>
<glyph name="colon" format="1">
  <advance width="358"/>
  <unicode hex="003A"/>
  <outline>
    <contour>
      <point x="176" y="131" type="line"/>
      <point x="142" y="130"/>
      <point x="120" y="102"/>
      <point x="120" y="62" type="curve" smooth="yes"/>
      <point x="120" y="7"/>
      <point x="160" y="-32"/>
      <point x="205" y="-32" type="curve" smooth="yes"/>
      <point x="256" y="-32"/>
      <point x="283" y="5"/>
      <point x="288" y="48" type="curve"/>
      <point x="288" y="92"/>
      <point x="232" y="131"/>
      <point x="176" y="131" type="curve"/>
    </contour>
    <contour>
      <point x="175" y="544" type="line"/>
      <point x="223" y="564"/>
      <point x="235" y="615"/>
      <point x="235" y="632" type="curve" smooth="yes"/>
      <point x="235" y="659"/>
      <point x="204" y="690"/>
      <point x="174" y="690" type="curve" smooth="yes"/>
      <point x="113" y="690"/>
      <point x="100" y="616"/>
      <point x="100" y="607" type="curve" smooth="yes"/>
      <point x="100" y="575"/>
      <point x="125" y="546"/>
      <point x="175" y="544" type="curve"/>
    </contour>
  </outline>
</glyph>
<glyph name="semicolon" format="1">
  <advance width="322"/>
  <unicode hex="003B"/>
  <outline>
    <contour>
      <point x="245" y="85" type="line"/>
      <point x="237" y="183"/>
      <point x="207" y="301"/>
      <point x="127" y="301" type="curve" smooth="yes"/>
      <point x="84" y="301"/>
      <point x="65" y="268"/>
      <point x="65" y="251" type="curve" smooth="yes"/>
      <point x="65" y="230"/>
      <point x="79" y="207"/>
      <point x="88" y="184" type="curve" smooth="yes"/>
      <point x="103" y="145"/>
      <point x="105" y="143"/>
      <point x="105" y="116" type="curve" smooth="yes"/>
      <point x="105" y="63"/>
      <point x="99" y="19"/>
      <point x="61" y="-29" type="curve" smooth="yes"/>
      <point x="48" y="-46"/>
      <point x="37" y="-62"/>
      <point x="37" y="-80" type="curve" smooth="yes"/>
      <point x="37" y="-109"/>
      <point x="72" y="-136"/>
      <point x="98" y="-136" type="curve" smooth="yes"/>
      <point x="179" y="-136"/>
      <point x="246" y="-12"/>
      <point x="246" y="66" type="curve" smooth="yes"/>
      <point x="246" y="72"/>
      <point x="245" y="78"/>
      <point x="245" y="85" type="curve" smooth="yes"/>
    </contour>
    <contour>
      <point x="32" y="620" type="line"/>
      <point x="32" y="617"/>
      <point x="31" y="609"/>
      <point x="31" y="605" type="curve" smooth="yes"/>
      <point x="31" y="572"/>
      <point x="72" y="539"/>
      <point x="108" y="539" type="curve" smooth="yes"/>
      <point x="144" y="539"/>
      <point x="165" y="557"/>
      <point x="165" y="591" type="curve" smooth="yes"/>
      <point x="165" y="622"/>
      <point x="133" y="662"/>
      <point x="93" y="662" type="curve" smooth="yes"/>
      <point x="67" y="662"/>
      <point x="41" y="647"/>
      <point x="32" y="620" type="curve"/>
    </contour>
  </outline>
</glyph>
<glyph name="equal" format="1">
  <advance width="591"/>
  <unicode hex="003D"/>
  <outline>
    <contour>
      <point x="295" y="97" type="line"/>
      <point x="371" y="99"/>
      <point x="459" y="110"/>
      <point x="501" y="118" type="curve"/>
      <point x="539" y="122"/>
      <point x="571" y="143"/>
      <point x="571" y="183" type="curve" smooth="yes"/>
      <point x="571" y="235"/>
      <point x="534" y="246"/>
      <point x="501" y="246" type="curve" smooth="yes"/>
      <point x="437" y="246"/>
      <point x="374" y="237"/>
      <point x="312" y="233" type="curve"/>
      <point x="239" y="229"/>
      <point x="133" y="219"/>
      <point x="85" y="217" type="curve" smooth="yes"/>
      <point x="48" y="215"/>
      <point x="14" y="203"/>
      <point x="14" y="170" type="curve" smooth="yes"/>
      <point x="14" y="145"/>
      <point x="46" y="108"/>
      <point x="72" y="101" type="curve" smooth="yes"/>
      <point x="94" y="95"/>
      <point x="111" y="94"/>
      <point x="130" y="94" type="curve"/>
      <point x="180" y="94"/>
      <point x="214" y="96"/>
      <point x="232" y="96" type="curve" smooth="yes"/>
    </contour>
    <contour>
      <point x="277" y="354" type="line"/>
      <point x="353" y="356"/>
      <point x="425" y="363"/>
      <point x="467" y="371" type="curve"/>
      <point x="505" y="375"/>
      <point x="537" y="396"/>
      <point x="537" y="436" type="curve" smooth="yes"/>
      <point x="537" y="488"/>
      <point x="500" y="499"/>
      <point x="467" y="499" type="curve" smooth="yes"/>
      <point x="461" y="499"/>
      <point x="454" y="498"/>
      <point x="448" y="498" type="curve" smooth="yes"/>
      <point x="397" y="494"/>
      <point x="336" y="495"/>
      <point x="256" y="490" type="curve" smooth="yes"/>
      <point x="183" y="486"/>
      <point x="138" y="484"/>
      <point x="90" y="482" type="curve" smooth="yes"/>
      <point x="53" y="480"/>
      <point x="19" y="468"/>
      <point x="19" y="435" type="curve" smooth="yes"/>
      <point x="19" y="410"/>
      <point x="51" y="373"/>
      <point x="77" y="366" type="curve" smooth="yes"/>
      <point x="113" y="356"/>
      <point x="136" y="351"/>
      <point x="174" y="351" type="curve" smooth="yes"/>
      <point x="187" y="351"/>
      <point x="202" y="353"/>
      <point x="220" y="353" type="curve" smooth="yes"/>
    </contour>
  </outline>
</glyph>
<glyph name="question" format="1">
  <advance width="563"/>
  <unicode hex="003F"/>
  <outline>
    <contour>
      <point x="396" y="603" type="line"/>
      <point x="300" y="466"/>
      <point x="196" y="388"/>
      <point x="196" y="260" type="curve" smooth="yes"/>
      <point x="196" y="201"/>
      <point x="201" y="128"/>
      <point x="284" y="128" type="curve" smooth="yes"/>
      <point x="319" y="128"/>
      <point x="347" y="137"/>
      <point x="347" y="188" type="curve" smooth="yes"/>
      <point x="347" y="214"/>
      <point x="331" y="227"/>
      <point x="331" y="241" type="curve" smooth="yes"/>
      <point x="331" y="248"/>
      <point x="332" y="255"/>
      <point x="332" y="264" type="curve" smooth="yes"/>
      <point x="332" y="379"/>
      <point x="537" y="498"/>
      <point x="537" y="627" type="curve" smooth="yes"/>
      <point x="537" y="687"/>
      <point x="492" y="732"/>
      <point x="417" y="732" type="curve" smooth="yes"/>
      <point x="328" y="732"/>
      <point x="232" y="700"/>
      <point x="144" y="678" type="curve" smooth="yes"/>
      <point x="85" y="663"/>
      <point x="8" y="623"/>
      <point x="8" y="552" type="curve" smooth="yes"/>
      <point x="8" y="511"/>
      <point x="41" y="495"/>
      <point x="75" y="495" type="curve" smooth="yes"/>
      <point x="97" y="495"/>
      <point x="133" y="501"/>
      <point x="147" y="522" type="curve"/>
      <point x="208" y="596"/>
      <point x="294" y="587"/>
      <point x="396" y="603" type="curve"/>
    </contour>
    <contour>
      <point x="369" y="-48" type="line"/>
      <point x="374" y="-35"/>
      <point x="379" y="-26"/>
      <point x="379" y="-14" type="curve" smooth="yes"/>
      <point x="379" y="25"/>
      <point x="333" y="37"/>
      <point x="296" y="37" type="curve" smooth="yes"/>
      <point x="264" y="37"/>
      <point x="239" y="21"/>
      <point x="239" y="-8" type="curve" smooth="yes"/>
      <point x="239" y="-57"/>
      <point x="271" y="-86"/>
      <point x="309" y="-86" type="curve" smooth="yes"/>
      <point x="333" y="-86"/>
      <point x="357" y="-74"/>
      <point x="369" y="-48" type="curve" smooth="yes"/>
    </contour>
  </outline>
</glyph>
<glyph name="at" format="1">
  <advance width="1133"/>
  <unicode hex="0040"/>
  <outline>
    <contour>
      <point x="613" y="294" type="line"/>
      <point x="575" y="171"/>
      <point x="540" y="120"/>
      <point x="427" y="77" type="curve"/>
      <point x="424" y="85"/>
      <point x="424" y="98"/>
      <point x="424" y="106" type="curve" smooth="yes"/>
      <point x="424" y="185"/>
      <point x="484" y="235"/>
      <point x="613" y="294" type="curve"/>
    </contour>
    <contour>
      <point x="974" y="-140" type="line"/>
      <point x="1053" y="-140"/>
      <point x="1072" y="-53"/>
      <point x="1072" y="38" type="curve" smooth="yes"/>
      <point x="1072" y="396"/>
      <point x="939" y="690"/>
      <point x="533" y="690" type="curve"/>
      <point x="298" y="690"/>
      <point x="61" y="597"/>
      <point x="61" y="225" type="curve" smooth="yes"/>
      <point x="61" y="192"/>
      <point x="63" y="156"/>
      <point x="67" y="117" type="curve" smooth="yes"/>
      <point x="101" y="-212"/>
      <point x="386" y="-275"/>
      <point x="482" y="-275" type="curve" smooth="yes"/>
      <point x="633" y="-275"/>
      <point x="723" y="-185"/>
      <point x="742" y="-161" type="curve" smooth="yes"/>
      <point x="753" y="-147"/>
      <point x="756" y="-136"/>
      <point x="756" y="-123" type="curve"/>
      <point x="753" y="-97"/>
      <point x="734" y="-81"/>
      <point x="709" y="-81" type="curve" smooth="yes"/>
      <point x="703" y="-81"/>
      <point x="621" y="-159"/>
      <point x="482" y="-159" type="curve" smooth="yes"/>
      <point x="353" y="-159"/>
      <point x="176" y="-102"/>
      <point x="176" y="217" type="curve" smooth="yes"/>
      <point x="176" y="537"/>
      <point x="483" y="579"/>
      <point x="546" y="579" type="curve" smooth="yes"/>
      <point x="772" y="579"/>
      <point x="910" y="421"/>
      <point x="939" y="237" type="curve"/>
      <point x="943" y="196"/>
      <point x="956" y="112"/>
      <point x="956" y="52" type="curve" smooth="yes"/>
      <point x="956" y="14"/>
      <point x="951" y="-13"/>
      <point x="936" y="-13" type="curve" smooth="yes"/>
      <point x="871" y="-13"/>
      <point x="746" y="344"/>
      <point x="723" y="414" type="curve" smooth="yes"/>
      <point x="712" y="445"/>
      <point x="680" y="520"/>
      <point x="630" y="520" type="curve"/>
      <point x="586" y="520"/>
      <point x="571" y="488"/>
      <point x="568" y="444" type="curve"/>
      <point x="568" y="432" type="line"/>
      <point x="402" y="353"/>
      <point x="275" y="244"/>
      <point x="275" y="101" type="curve" smooth="yes"/>
      <point x="275" y="7"/>
      <point x="337" y="-57"/>
      <point x="427" y="-57" type="curve" smooth="yes"/>
      <point x="572" y="-57"/>
      <point x="620" y="9"/>
      <point x="686" y="140" type="curve"/>
      <point x="724" y="49"/>
      <point x="799" y="-140"/>
      <point x="974" y="-140" type="curve" smooth="yes"/>
    </contour>
  </outline>
</glyph>
<glyph name="A" format="1">
  <advance width="629"/>
  <unicode hex="0041"/>
  <outline>
    <contour>
      <point x="370" y="188" type="line"/>
      <point x="420" y="105"/>
      <point x="475" y="-54"/>
      <point x="535" y="-54" type="curve" smooth="yes"/>
      <point x="579" y="-54"/>
      <point x="598" y="-17"/>
      <point x="598" y="8" type="curve" smooth="yes"/>
      <point x="598" y="29"/>
      <point x="588" y="51"/>
      <point x="576" y="77" type="curve"/>
      <point x="576" y="78"/>
      <point x="575" y="79"/>
      <point x="415" y="415" type="curve" smooth="yes"/>
      <point x="363" y="525" type="line" smooth="yes"/>
      <point x="332" y="590"/>
      <point x="285" y="653"/>
      <point x="230" y="653" type="curve" smooth="yes"/>
      <point x="158" y="653"/>
      <point x="126" y="559"/>
      <point x="108" y="475" type="curve" smooth="yes"/>
      <point x="84" y="361"/>
      <point x="60" y="245"/>
      <point x="35" y="131" type="curve" smooth="yes"/>
      <point x="28" y="99"/>
      <point x="23" y="73"/>
      <point x="23" y="51" type="curve" smooth="yes"/>
      <point x="23" y="9"/>
      <point x="42" y="-8"/>
      <point x="83" y="-8" type="curve" smooth="yes"/>
      <point x="184" y="-8"/>
      <point x="139" y="145"/>
      <point x="248" y="162" type="curve" smooth="yes"/>
      <point x="283" y="167"/>
      <point x="318" y="178"/>
      <point x="365" y="190" type="curve"/>
    </contour>
    <contour>
      <point x="253" y="392" type="line"/>
      <point x="258" y="385" type="line" smooth="yes"/>
      <point x="278" y="355"/>
      <point x="292" y="340"/>
      <point x="292" y="329" type="curve" smooth="yes"/>
      <point x="292" y="313"/>
      <point x="273" y="307"/>
      <point x="233" y="290" type="curve"/>
    </contour>
  </outline>
</glyph>
<glyph name="B" format="1">
  <advance width="758"/>
  <unicode hex="0042"/>
  <outline>
    <contour>
      <point x="210" y="28" type="line"/>
      <point x="213" y="-11"/>
      <point x="219" y="-47"/>
      <point x="261" y="-59" type="curve" smooth="yes"/>
      <point x="323" y="-77"/>
      <point x="390" y="-101"/>
      <point x="450" y="-101" type="curve" smooth="yes"/>
      <point x="587" y="-101"/>
      <point x="729" y="6"/>
      <point x="729" y="147" type="curve" smooth="yes"/>
      <point x="729" y="213"/>
      <point x="695" y="278"/>
      <point x="632" y="316" type="curve" smooth="yes"/>
      <point x="605" y="332"/>
      <point x="576" y="344"/>
      <point x="548" y="360" type="curve"/>
      <point x="587" y="429"/>
      <point x="624" y="480"/>
      <point x="624" y="542" type="curve" smooth="yes"/>
      <point x="624" y="636"/>
      <point x="548" y="690"/>
      <point x="415" y="690" type="curve" smooth="yes"/>
      <point x="355" y="690"/>
      <point x="303" y="672"/>
      <point x="252" y="672" type="curve" smooth="yes"/>
      <point x="232" y="672"/>
      <point x="212" y="686"/>
      <point x="191" y="686" type="curve" smooth="yes"/>
      <point x="136" y="686"/>
      <point x="100" y="616"/>
      <point x="58" y="573" type="curve" smooth="yes"/>
      <point x="38" y="553"/>
      <point x="23" y="533"/>
      <point x="23" y="508" type="curve" smooth="yes"/>
      <point x="23" y="468"/>
      <point x="51" y="446"/>
      <point x="75" y="446" type="curve" smooth="yes"/>
      <point x="98" y="446"/>
      <point x="123" y="465"/>
      <point x="155" y="470" type="curve"/>
    </contour>
    <contour>
      <point x="471" y="28" type="line"/>
      <point x="383" y="31"/>
      <point x="327" y="85"/>
      <point x="327" y="147" type="curve" smooth="yes"/>
      <point x="327" y="165"/>
      <point x="343" y="195"/>
      <point x="354" y="196" type="curve" smooth="yes"/>
      <point x="367" y="198" type="line" smooth="yes"/>
      <point x="407" y="204"/>
      <point x="447" y="211"/>
      <point x="488" y="211" type="curve" smooth="yes"/>
      <point x="555" y="211"/>
      <point x="595" y="188"/>
      <point x="595" y="143" type="curve" smooth="yes"/>
      <point x="595" y="78"/>
      <point x="502" y="43"/>
      <point x="471" y="28" type="curve"/>
    </contour>
    <contour>
      <point x="270" y="543" type="line"/>
      <point x="409" y="556"/>
      <point x="427" y="557"/>
      <point x="432" y="557" type="curve" smooth="yes"/>
      <point x="452" y="557"/>
      <point x="482" y="555"/>
      <point x="482" y="532" type="curve" smooth="yes"/>
      <point x="482" y="482"/>
      <point x="368" y="376"/>
      <point x="304" y="332" type="curve"/>
    </contour>
  </outline>
</glyph>
<glyph name="C" format="1">
  <advance width="516"/>
  <unicode hex="0043"/>
  <outline>
    <contour>
      <point x="187" y="479" type="line"/>
      <point x="214" y="532"/>
      <point x="283" y="497"/>
      <point x="283" y="548" type="curve" smooth="yes"/>
      <point x="283" y="598"/>
      <point x="218" y="629"/>
      <point x="180" y="629" type="curve" smooth="yes"/>
      <point x="73" y="629"/>
      <point x="28" y="428"/>
      <point x="28" y="315" type="curve" smooth="yes"/>
      <point x="28" y="175"/>
      <point x="89" y="-36"/>
      <point x="255" y="-36" type="curve" smooth="yes"/>
      <point x="339" y="-36"/>
      <point x="487" y="30"/>
      <point x="487" y="130" type="curve" smooth="yes"/>
      <point x="487" y="160"/>
      <point x="471" y="184"/>
      <point x="432" y="184" type="curve" smooth="yes"/>
      <point x="386" y="184"/>
      <point x="372" y="156"/>
      <point x="341" y="134" type="curve"/>
      <point x="309" y="108"/>
      <point x="278" y="97"/>
      <point x="256" y="97" type="curve" smooth="yes"/>
      <point x="203" y="97"/>
      <point x="159" y="195"/>
      <point x="159" y="323" type="curve" smooth="yes"/>
      <point x="159" y="366"/>
      <point x="166" y="437"/>
      <point x="187" y="479" type="curve" smooth="yes"/>
    </contour>
  </outline>
</glyph>
<glyph name="D" format="1">
  <advance width="642"/>
  <unicode hex="0044"/>
  <outline>
    <contour>
      <point x="610" y="340" type="line"/>
      <point x="567" y="486"/>
      <point x="457" y="545"/>
      <point x="321" y="577" type="curve" smooth="yes"/>
      <point x="265" y="590"/>
      <point x="207" y="592"/>
      <point x="148" y="624" type="curve" smooth="yes"/>
      <point x="128" y="635"/>
      <point x="111" y="644"/>
      <point x="98" y="644" type="curve" smooth="yes"/>
      <point x="41" y="644"/>
      <point x="26" y="527"/>
      <point x="26" y="491" type="curve" smooth="yes"/>
      <point x="26" y="468"/>
      <point x="29" y="445"/>
      <point x="38" y="420" type="curve"/>
      <point x="90" y="245"/>
      <point x="70" y="-47"/>
      <point x="211" y="-47" type="curve" smooth="yes"/>
      <point x="316" y="-47"/>
      <point x="613" y="154"/>
      <point x="613" y="309" type="curve" smooth="yes"/>
      <point x="613" y="317"/>
      <point x="612" y="332"/>
      <point x="610" y="340" type="curve" smooth="yes"/>
    </contour>
    <contour>
      <point x="448" y="252" type="line"/>
      <point x="403" y="188"/>
      <point x="307" y="119"/>
      <point x="231" y="98" type="curve"/>
      <point x="167" y="458" type="line"/>
      <point x="182" y="460"/>
      <point x="205" y="462"/>
      <point x="219" y="462" type="curve" smooth="yes"/>
      <point x="321" y="462"/>
      <point x="477" y="390"/>
      <point x="477" y="318" type="curve" smooth="yes"/>
      <point x="477" y="298"/>
      <point x="467" y="278"/>
      <point x="448" y="252" type="curve" smooth="yes"/>
    </contour>
  </outline>
</glyph>
<glyph name="E" format="1">
  <advance width="686"/>
  <unicode hex="0045"/>
  <outline>
    <contour>
      <point x="218" y="345" type="line"/>
      <point x="207" y="397"/>
      <point x="199" y="440"/>
      <point x="199" y="467" type="curve" smooth="yes"/>
      <point x="199" y="508"/>
      <point x="215" y="519"/>
      <point x="280" y="543" type="curve" smooth="yes"/>
      <point x="332" y="562"/>
      <point x="417" y="581"/>
      <point x="470" y="589" type="curve" smooth="yes"/>
      <point x="511" y="595"/>
      <point x="544" y="605"/>
      <point x="544" y="652" type="curve" smooth="yes"/>
      <point x="544" y="709"/>
      <point x="503" y="723"/>
      <point x="448" y="723" type="curve" smooth="yes"/>
      <point x="349" y="723"/>
      <point x="268" y="658"/>
      <point x="174" y="636" type="curve" smooth="yes"/>
      <point x="99" y="618"/>
      <point x="26" y="537"/>
      <point x="26" y="474" type="curve" smooth="yes"/>
      <point x="26" y="361"/>
      <point x="97" y="38"/>
      <point x="102" y="-30" type="curve" smooth="yes"/>
      <point x="108" y="-101"/>
      <point x="122" y="-129"/>
      <point x="171" y="-129" type="curve" smooth="yes"/>
      <point x="187" y="-129"/>
      <point x="204" y="-128"/>
      <point x="227" y="-123" type="curve" smooth="yes"/>
      <point x="340" y="-97"/>
      <point x="454" y="-67"/>
      <point x="567" y="-38" type="curve" smooth="yes"/>
      <point x="616" y="-25"/>
      <point x="655" y="-8"/>
      <point x="655" y="34" type="curve" smooth="yes"/>
      <point x="655" y="78"/>
      <point x="627" y="99"/>
      <point x="593" y="99" type="curve" smooth="yes"/>
      <point x="576" y="99"/>
      <point x="537" y="90"/>
      <point x="508" y="83" type="curve" smooth="yes"/>
      <point x="411" y="58"/>
      <point x="327" y="35"/>
      <point x="233" y="9" type="curve"/>
      <point x="215" y="198" type="line"/>
      <point x="332" y="245"/>
      <point x="420" y="285"/>
      <point x="524" y="321" type="curve" smooth="yes"/>
      <point x="570" y="337"/>
      <point x="624" y="346"/>
      <point x="624" y="397" type="curve" smooth="yes"/>
      <point x="624" y="440"/>
      <point x="590" y="459"/>
      <point x="559" y="459" type="curve" smooth="yes"/>
      <point x="474" y="459"/>
      <point x="333" y="386"/>
      <point x="218" y="340" type="curve"/>
    </contour>
  </outline>
</glyph>
<glyph name="F" format="1">
  <advance width="656"/>
  <unicode hex="0046"/>
  <outline>
    <contour>
      <point x="227" y="151" type="line"/>
      <point x="366" y="193"/>
      <point x="434" y="210"/>
      <point x="576" y="253" type="curve" smooth="yes"/>
      <point x="609" y="263"/>
      <point x="627" y="291"/>
      <point x="627" y="318" type="curve" smooth="yes"/>
      <point x="627" y="345"/>
      <point x="615" y="383"/>
      <point x="567" y="383" type="curve" smooth="yes"/>
      <point x="482" y="383"/>
      <point x="350" y="300"/>
      <point x="207" y="293" type="curve"/>
      <point x="187" y="438" type="line"/>
      <point x="313" y="485"/>
      <point x="448" y="507"/>
      <point x="565" y="534" type="curve" smooth="yes"/>
      <point x="602" y="542"/>
      <point x="629" y="552"/>
      <point x="629" y="595" type="curve" smooth="yes"/>
      <point x="629" y="645"/>
      <point x="592" y="665"/>
      <point x="548" y="665" type="curve" smooth="yes"/>
      <point x="530" y="665"/>
      <point x="500" y="660"/>
      <point x="482" y="656" type="curve" smooth="yes"/>
      <point x="175" y="582" type="line"/>
      <point x="147" y="608"/>
      <point x="134" y="660"/>
      <point x="93" y="660" type="curve" smooth="yes"/>
      <point x="43" y="660"/>
      <point x="28" y="621"/>
      <point x="28" y="600" type="curve" smooth="yes"/>
      <point x="28" y="580"/>
      <point x="35" y="559"/>
      <point x="37" y="543" type="curve" smooth="yes"/>
      <point x="48" y="471"/>
      <point x="55" y="395"/>
      <point x="64" y="322" type="curve" smooth="yes"/>
      <point x="77" y="224"/>
      <point x="89" y="131"/>
      <point x="92" y="37" type="curve" smooth="yes"/>
      <point x="94" y="-28"/>
      <point x="130" y="-64"/>
      <point x="165" y="-64" type="curve" smooth="yes"/>
      <point x="211" y="-64"/>
      <point x="227" y="-25"/>
      <point x="227" y="49" type="curve" smooth="yes"/>
      <point x="227" y="73"/>
      <point x="225" y="97"/>
      <point x="225" y="119" type="curve" smooth="yes"/>
      <point x="225" y="130"/>
      <point x="225" y="142"/>
      <point x="227" y="151" type="curve"/>
    </contour>
  </outline>
</glyph>
<glyph name="G" format="1">
  <advance width="894"/>
  <unicode hex="0047"/>
  <outline>
    <contour>
      <point x="701" y="260" type="line"/>
      <point x="669" y="250"/>
      <point x="626" y="240"/>
      <point x="593" y="218" type="curve" smooth="yes"/>
      <point x="523" y="170"/>
      <point x="449" y="151"/>
      <point x="370" y="151" type="curve" smooth="yes"/>
      <point x="222" y="151"/>
      <point x="159" y="193"/>
      <point x="159" y="330" type="curve" smooth="yes"/>
      <point x="159" y="411"/>
      <point x="176" y="487"/>
      <point x="264" y="533" type="curve" smooth="yes"/>
      <point x="288" y="545"/>
      <point x="307" y="564"/>
      <point x="307" y="584" type="curve" smooth="yes"/>
      <point x="307" y="615"/>
      <point x="265" y="637"/>
      <point x="225" y="637" type="curve" smooth="yes"/>
      <point x="197" y="637"/>
      <point x="152" y="613"/>
      <point x="131" y="590" type="curve" smooth="yes"/>
      <point x="60" y="512"/>
      <point x="25" y="424"/>
      <point x="25" y="329" type="curve" smooth="yes"/>
      <point x="25" y="221"/>
      <point x="68" y="90"/>
      <point x="190" y="48" type="curve" smooth="yes"/>
      <point x="252" y="27"/>
      <point x="311" y="15"/>
      <point x="373" y="15" type="curve" smooth="yes"/>
      <point x="500" y="15"/>
      <point x="604" y="61"/>
      <point x="726" y="156" type="curve"/>
      <point x="732" y="62"/>
      <point x="715" y="-43"/>
      <point x="798" y="-43" type="curve" smooth="yes"/>
      <point x="843" y="-43"/>
      <point x="862" y="-11"/>
      <point x="862" y="29" type="curve" smooth="yes"/>
      <point x="862" y="108"/>
      <point x="846" y="250"/>
      <point x="832" y="333" type="curve" smooth="yes"/>
      <point x="815" y="435"/>
      <point x="742" y="479"/>
      <point x="627" y="479" type="curve" smooth="yes"/>
      <point x="511" y="479"/>
      <point x="268" y="420"/>
      <point x="268" y="335" type="curve" smooth="yes"/>
      <point x="268" y="292"/>
      <point x="296" y="275"/>
      <point x="316" y="275" type="curve" smooth="yes"/>
      <point x="358" y="275"/>
      <point x="567" y="349"/>
      <point x="644" y="349" type="curve" smooth="yes"/>
      <point x="686" y="349"/>
      <point x="692" y="327"/>
      <point x="701" y="260" type="curve"/>
    </contour>
  </outline>
</glyph>
<glyph name="H" format="1">
  <advance width="715"/>
  <unicode hex="0048"/>
  <outline>
    <contour>
      <point x="510" y="264" type="line"/>
      <point x="542" y="142"/>
      <point x="552" y="0"/>
      <point x="624" y="0" type="curve" smooth="yes"/>
      <point x="672" y="0"/>
      <point x="685" y="38"/>
      <point x="685" y="62" type="curve" smooth="yes"/>
      <point x="685" y="105"/>
      <point x="666" y="146"/>
      <point x="660" y="188" type="curve" smooth="yes"/>
      <point x="612" y="524" type="line"/>
      <point x="612" y="530" type="line"/>
      <point x="607" y="571"/>
      <point x="600" y="621"/>
      <point x="539" y="621" type="curve" smooth="yes"/>
      <point x="500" y="621"/>
      <point x="485" y="580"/>
      <point x="485" y="510" type="curve" smooth="yes"/>
      <point x="485" y="395" type="line"/>
      <point x="395" y="383"/>
      <point x="309" y="363"/>
      <point x="213" y="363" type="curve" smooth="yes"/>
      <point x="193" y="363"/>
      <point x="171" y="363"/>
      <point x="150" y="366" type="curve"/>
      <point x="150" y="412"/>
      <point x="151" y="454"/>
      <point x="151" y="493" type="curve" smooth="yes"/>
      <point x="151" y="500" type="line" smooth="yes"/>
      <point x="151" y="550"/>
      <point x="151" y="612"/>
      <point x="99" y="612" type="curve" smooth="yes"/>
      <point x="68" y="612"/>
      <point x="23" y="565"/>
      <point x="23" y="528" type="curve" smooth="yes"/>
      <point x="23" y="520"/>
      <point x="23" y="510"/>
      <point x="25" y="502" type="curve"/>
      <point x="35" y="377"/>
      <point x="43" y="253"/>
      <point x="58" y="130" type="curve" smooth="yes"/>
      <point x="66" y="63"/>
      <point x="90" y="-32"/>
      <point x="148" y="-32" type="curve" smooth="yes"/>
      <point x="196" y="-32"/>
      <point x="212" y="3"/>
      <point x="212" y="29" type="curve" smooth="yes"/>
      <point x="212" y="41"/>
      <point x="211" y="55"/>
      <point x="207" y="69" type="curve" smooth="yes"/>
      <point x="193" y="120"/>
      <point x="185" y="173"/>
      <point x="174" y="231" type="curve"/>
    </contour>
  </outline>
</glyph>
<glyph name="I" format="1">
  <advance width="265"/>
  <unicode hex="0049"/>
  <outline>
    <contour>
      <point x="225" y="83" type="line"/>
      <point x="203" y="218"/>
      <point x="165" y="576"/>
      <point x="150" y="610" type="curve" smooth="yes"/>
      <point x="142" y="629"/>
      <point x="113" y="647"/>
      <point x="93" y="649" type="curve"/>
      <point x="46" y="647"/>
      <point x="28" y="590"/>
      <point x="28" y="545" type="curve" smooth="yes"/>
      <point x="28" y="465"/>
      <point x="45" y="373"/>
      <point x="58" y="292" type="curve" smooth="yes"/>
      <point x="73" y="193"/>
      <point x="91" y="98"/>
      <point x="111" y="1" type="curve" smooth="yes"/>
      <point x="118" y="-32"/>
      <point x="139" y="-53"/>
      <point x="171" y="-53" type="curve" smooth="yes"/>
      <point x="219" y="-53"/>
      <point x="238" y="-19"/>
      <point x="238" y="20" type="curve" smooth="yes"/>
      <point x="238" y="42"/>
      <point x="228" y="61"/>
      <point x="225" y="83" type="curve" smooth="yes"/>
    </contour>
  </outline>
</glyph>
<glyph name="J" format="1">
  <advance width="401"/>
  <unicode hex="004A"/>
  <outline>
    <contour>
      <point x="193" y="23" type="line"/>
      <point x="153" y="23"/>
      <point x="136" y="183"/>
      <point x="78" y="183" type="curve" smooth="yes"/>
      <point x="55" y="183"/>
      <point x="29" y="139"/>
      <point x="26" y="119" type="curve"/>
      <point x="31" y="21"/>
      <point x="71" y="-107"/>
      <point x="184" y="-107" type="curve" smooth="yes"/>
      <point x="316" y="-107"/>
      <point x="372" y="85"/>
      <point x="372" y="204" type="curve" smooth="yes"/>
      <point x="372" y="327"/>
      <point x="355" y="450"/>
      <point x="348" y="573" type="curve" smooth="yes"/>
      <point x="345" y="627"/>
      <point x="321" y="694"/>
      <point x="265" y="694" type="curve" smooth="yes"/>
      <point x="215" y="694"/>
      <point x="183" y="637"/>
      <point x="183" y="587" type="curve" smooth="yes"/>
      <point x="183" y="533"/>
      <point x="222" y="508"/>
      <point x="222" y="483" type="curve" smooth="yes"/>
      <point x="222" y="392"/>
      <point x="227" y="301"/>
      <point x="227" y="212" type="curve" smooth="yes"/>
      <point x="227" y="122" type="line" smooth="yes"/>
      <point x="227" y="91"/>
      <point x="208" y="23"/>
      <point x="193" y="23" type="curve" smooth="yes"/>
    </contour>
  </outline>
</glyph>
<glyph name="K" format="1">
  <advance width="769"/>
  <unicode hex="004B"/>
  <outline>
    <contour>
      <point x="675" y="150" type="line"/>
      <point x="567" y="212"/>
      <point x="448" y="261"/>
      <point x="321" y="317" type="curve"/>
      <point x="409" y="414"/>
      <point x="474" y="482"/>
      <point x="543" y="576" type="curve"/>
      <point x="551" y="590"/>
      <point x="555" y="604"/>
      <point x="555" y="616" type="curve" smooth="yes"/>
      <point x="555" y="636"/>
      <point x="543" y="665"/>
      <point x="510" y="665" type="curve" smooth="yes"/>
      <point x="455" y="665"/>
      <point x="439" y="630"/>
      <point x="405" y="596" type="curve" smooth="yes"/>
      <point x="347" y="537"/>
      <point x="288" y="478"/>
      <point x="217" y="408" type="curve" smooth="yes"/>
      <point x="196" y="388" type="line"/>
      <point x="165" y="516"/>
      <point x="163" y="652"/>
      <point x="65" y="652" type="curve" smooth="yes"/>
      <point x="48" y="652"/>
      <point x="23" y="618"/>
      <point x="23" y="584" type="curve" smooth="yes"/>
      <point x="23" y="565"/>
      <point x="34" y="547"/>
      <point x="37" y="528" type="curve" smooth="yes"/>
      <point x="54" y="432"/>
      <point x="90" y="238"/>
      <point x="90" y="231" type="curve"/>
      <point x="106" y="104"/>
      <point x="133" y="-70"/>
      <point x="196" y="-70" type="curve" smooth="yes"/>
      <point x="240" y="-70"/>
      <point x="258" y="-40"/>
      <point x="258" y="-5" type="curve" smooth="yes"/>
      <point x="258" y="57"/>
      <point x="244" y="120"/>
      <point x="233" y="198" type="curve"/>
      <point x="381" y="136"/>
      <point x="493" y="89"/>
      <point x="618" y="33" type="curve"/>
      <point x="636" y="23"/>
      <point x="653" y="20"/>
      <point x="669" y="20" type="curve" smooth="yes"/>
      <point x="694" y="20"/>
      <point x="732" y="42"/>
      <point x="732" y="88" type="curve" smooth="yes"/>
      <point x="732" y="118"/>
      <point x="706" y="136"/>
      <point x="675" y="150" type="curve"/>
    </contour>
  </outline>
</glyph>
<glyph name="L" format="1">
  <advance width="647"/>
  <unicode hex="004C"/>
  <outline>
    <contour>
      <point x="67" y="131" type="line"/>
      <point x="86" y="-5"/>
      <point x="160" y="-81"/>
      <point x="253" y="-81" type="curve" smooth="yes"/>
      <point x="346" y="-81"/>
      <point x="458" y="-14"/>
      <point x="551" y="42" type="curve" smooth="yes"/>
      <point x="571" y="54" type="line" smooth="yes"/>
      <point x="605" y="74"/>
      <point x="621" y="101"/>
      <point x="621" y="127" type="curve" smooth="yes"/>
      <point x="621" y="165"/>
      <point x="584" y="188"/>
      <point x="564" y="188" type="curve" smooth="yes"/>
      <point x="516" y="188"/>
      <point x="341" y="54"/>
      <point x="267" y="54" type="curve" smooth="yes"/>
      <point x="161" y="54"/>
      <point x="181" y="429"/>
      <point x="174" y="592" type="curve" smooth="yes"/>
      <point x="172" y="637"/>
      <point x="157" y="677"/>
      <point x="100" y="677" type="curve" smooth="yes"/>
      <point x="58" y="677"/>
      <point x="29" y="637"/>
      <point x="29" y="573" type="curve" smooth="yes"/>
      <point x="29" y="491"/>
      <point x="65" y="206"/>
      <point x="67" y="131" type="curve"/>
    </contour>
  </outline>
</glyph>
<glyph name="M" format="1">
  <advance width="1107"/>
  <unicode hex="004D"/>
  <outline>
    <contour>
      <point x="544" y="400" type="line"/>
      <point x="536" y="430" type="line" smooth="yes"/>
      <point x="497" y="574"/>
      <point x="469" y="675"/>
      <point x="375" y="675" type="curve" smooth="yes"/>
      <point x="315" y="675"/>
      <point x="270" y="624"/>
      <point x="228" y="527" type="curve"/>
      <point x="191" y="455" type="line"/>
      <point x="165" y="556"/>
      <point x="160" y="680"/>
      <point x="90" y="680" type="curve" smooth="yes"/>
      <point x="42" y="680"/>
      <point x="28" y="647"/>
      <point x="28" y="615" type="curve" smooth="yes"/>
      <point x="28" y="605"/>
      <point x="31" y="592"/>
      <point x="34" y="581" type="curve"/>
      <point x="136" y="88" type="line" smooth="yes"/>
      <point x="146" y="38"/>
      <point x="174" y="-32"/>
      <point x="222" y="-32" type="curve" smooth="yes"/>
      <point x="256" y="-32"/>
      <point x="295" y="35"/>
      <point x="295" y="55" type="curve" smooth="yes"/>
      <point x="295" y="208"/>
      <point x="323" y="347"/>
      <point x="358" y="497" type="curve"/>
      <point x="378" y="477"/>
      <point x="397" y="439"/>
      <point x="402" y="412" type="curve" smooth="yes"/>
      <point x="420" y="316"/>
      <point x="440" y="218"/>
      <point x="459" y="122" type="curve" smooth="yes"/>
      <point x="468" y="78"/>
      <point x="479" y="28"/>
      <point x="535" y="28" type="curve" smooth="yes"/>
      <point x="635" y="28"/>
      <point x="617" y="175"/>
      <point x="647" y="253" type="curve" smooth="yes"/>
      <point x="668" y="310"/>
      <point x="711" y="399"/>
      <point x="740" y="451" type="curve" smooth="yes"/>
      <point x="760" y="487"/>
      <point x="789" y="524"/>
      <point x="842" y="524" type="curve" smooth="yes"/>
      <point x="887" y="524"/>
      <point x="899" y="367"/>
      <point x="904" y="297" type="curve"/>
      <point x="904" y="181"/>
      <point x="913" y="-90"/>
      <point x="1017" y="-90" type="curve" smooth="yes"/>
      <point x="1046" y="-90"/>
      <point x="1081" y="-51"/>
      <point x="1081" y="-15" type="curve" smooth="yes"/>
      <point x="1081" y="-12"/>
      <point x="1081" y="-7"/>
      <point x="1080" y="-5" type="curve" smooth="yes"/>
      <point x="1027" y="94"/>
      <point x="1049" y="204"/>
      <point x="1035" y="307" type="curve" smooth="yes"/>
      <point x="1009" y="489"/>
      <point x="985" y="666"/>
      <point x="847" y="666" type="curve" smooth="yes"/>
      <point x="718" y="666"/>
      <point x="608" y="493"/>
      <point x="545" y="392" type="curve"/>
    </contour>
  </outline>
</glyph>
<glyph name="N" format="1">
  <advance width="910"/>
  <unicode hex="004E"/>
  <outline>
    <contour>
      <point x="205" y="307" type="line"/>
      <point x="366" y="163"/>
      <point x="487" y="25"/>
      <point x="669" y="-56" type="curve" smooth="yes"/>
      <point x="701" y="-70"/>
      <point x="734" y="-84"/>
      <point x="766" y="-84" type="curve" smooth="yes"/>
      <point x="840" y="-84"/>
      <point x="877" y="-19"/>
      <point x="877" y="35" type="curve" smooth="yes"/>
      <point x="877" y="57"/>
      <point x="874" y="80"/>
      <point x="870" y="100" type="curve" smooth="yes"/>
      <point x="843" y="236"/>
      <point x="815" y="373"/>
      <point x="790" y="508" type="curve" smooth="yes"/>
      <point x="777" y="575"/>
      <point x="770" y="681"/>
      <point x="693" y="681" type="curve" smooth="yes"/>
      <point x="652" y="681"/>
      <point x="636" y="644"/>
      <point x="636" y="604" type="curve"/>
      <point x="644" y="510"/>
      <point x="675" y="417"/>
      <point x="693" y="324" type="curve" smooth="yes"/>
      <point x="709" y="239"/>
      <point x="721" y="155"/>
      <point x="738" y="55" type="curve"/>
      <point x="629" y="98"/>
      <point x="556" y="156"/>
      <point x="486" y="221" type="curve" smooth="yes"/>
      <point x="366" y="333"/>
      <point x="250" y="448"/>
      <point x="131" y="562" type="curve"/>
      <point x="114" y="576"/>
      <point x="97" y="585"/>
      <point x="80" y="585" type="curve" smooth="yes"/>
      <point x="40" y="585"/>
      <point x="18" y="550"/>
      <point x="18" y="487" type="curve" smooth="yes"/>
      <point x="18" y="400"/>
      <point x="33" y="307"/>
      <point x="42" y="218" type="curve" smooth="yes"/>
      <point x="51" y="128"/>
      <point x="41" y="-51"/>
      <point x="145" y="-51" type="curve" smooth="yes"/>
      <point x="195" y="-51"/>
      <point x="207" y="33"/>
      <point x="207" y="86" type="curve" smooth="yes"/>
      <point x="207" y="151"/>
      <point x="205" y="216"/>
      <point x="205" y="307" type="curve"/>
    </contour>
  </outline>
</glyph>
<glyph name="O" format="1">
  <advance width="655"/>
  <unicode hex="004F"/>
  <outline>
    <contour>
      <point x="585" y="451" type="line"/>
      <point x="539" y="539"/>
      <point x="499" y="616"/>
      <point x="380" y="616" type="curve" smooth="yes"/>
      <point x="199" y="616"/>
      <point x="117" y="531"/>
      <point x="49" y="378" type="curve"/>
      <point x="38" y="345"/>
      <point x="28" y="290"/>
      <point x="28" y="255" type="curve" smooth="yes"/>
      <point x="28" y="102"/>
      <point x="130" y="-20"/>
      <point x="272" y="-20" type="curve" smooth="yes"/>
      <point x="446" y="-20"/>
      <point x="628" y="136"/>
      <point x="628" y="298" type="curve" smooth="yes"/>
      <point x="628" y="349"/>
      <point x="613" y="400"/>
      <point x="585" y="451" type="curve"/>
    </contour>
    <contour>
      <point x="275" y="113" type="line"/>
      <point x="204" y="113"/>
      <point x="163" y="165"/>
      <point x="163" y="265" type="curve" smooth="yes"/>
      <point x="163" y="289"/>
      <point x="182" y="350"/>
      <point x="196" y="381" type="curve" smooth="yes"/>
      <point x="227" y="451"/>
      <point x="270" y="486"/>
      <point x="320" y="486" type="curve" smooth="yes"/>
      <point x="392" y="486"/>
      <point x="488" y="434"/>
      <point x="488" y="304" type="curve" smooth="yes"/>
      <point x="488" y="196"/>
      <point x="379" y="113"/>
      <point x="275" y="113" type="curve" smooth="yes"/>
    </contour>
  </outline>
</glyph>
<glyph name="P" format="1">
  <advance width="524"/>
  <unicode hex="0050"/>
  <outline>
    <contour>
      <point x="255" y="68" type="line"/>
      <point x="412" y="142"/>
      <point x="496" y="258"/>
      <point x="496" y="394" type="curve" smooth="yes"/>
      <point x="496" y="570"/>
      <point x="382" y="693"/>
      <point x="287" y="693" type="curve" smooth="yes"/>
      <point x="231" y="693"/>
      <point x="178" y="661"/>
      <point x="143" y="596" type="curve" smooth="yes"/>
      <point x="141" y="591"/>
      <point x="132" y="590"/>
      <point x="122" y="590" type="curve" smooth="yes"/>
      <point x="106" y="590" type="line" smooth="yes"/>
      <point x="48" y="590"/>
      <point x="28" y="581"/>
      <point x="28" y="542" type="curve" smooth="yes"/>
      <point x="28" y="527"/>
      <point x="31" y="507"/>
      <point x="35" y="485" type="curve" smooth="yes"/>
      <point x="69" y="312"/>
      <point x="90" y="134"/>
      <point x="123" y="-34" type="curve" smooth="yes"/>
      <point x="130" y="-71"/>
      <point x="151" y="-100"/>
      <point x="188" y="-100" type="curve" smooth="yes"/>
      <point x="233" y="-100"/>
      <point x="256" y="-68"/>
      <point x="256" y="-27" type="curve" smooth="yes"/>
      <point x="256" y="3"/>
      <point x="255" y="31"/>
      <point x="255" y="68" type="curve"/>
    </contour>
    <contour>
      <point x="230" y="210" type="line"/>
      <point x="222" y="253"/>
      <point x="218" y="296"/>
      <point x="218" y="337" type="curve" smooth="yes"/>
      <point x="218" y="415"/>
      <point x="233" y="486"/>
      <point x="278" y="555" type="curve"/>
      <point x="335" y="510"/>
      <point x="363" y="454"/>
      <point x="363" y="398" type="curve" smooth="yes"/>
      <point x="363" y="325"/>
      <point x="318" y="255"/>
      <point x="230" y="210" type="curve"/>
    </contour>
  </outline>
</glyph>
<glyph name="Q" format="1">
  <advance width="799"/>
  <unicode hex="0051"/>
  <outline>
    <contour>
      <point x="590" y="28" type="line"/>
      <point x="629" y="-5"/>
      <point x="669" y="-54"/>
      <point x="710" y="-54" type="curve" smooth="yes"/>
      <point x="740" y="-54"/>
      <point x="771" y="-23"/>
      <point x="771" y="6" type="curve" smooth="yes"/>
      <point x="771" y="33"/>
      <point x="752" y="60"/>
      <point x="729" y="80" type="curve"/>
      <point x="689" y="111"/>
      <point x="675" y="148"/>
      <point x="675" y="193" type="curve" smooth="yes"/>
      <point x="675" y="230"/>
      <point x="685" y="273"/>
      <point x="685" y="312" type="curve" smooth="yes"/>
      <point x="685" y="458"/>
      <point x="601" y="571"/>
      <point x="457" y="630" type="curve"/>
      <point x="372" y="656"/>
      <point x="333" y="689"/>
      <point x="281" y="689" type="curve" smooth="yes"/>
      <point x="120" y="689"/>
      <point x="28" y="402"/>
      <point x="28" y="216" type="curve" smooth="yes"/>
      <point x="28" y="26"/>
      <point x="150" y="-93"/>
      <point x="304" y="-93" type="curve" smooth="yes"/>
      <point x="355" y="-93"/>
      <point x="412" y="-80"/>
      <point x="468" y="-51" type="curve" smooth="yes"/>
      <point x="510" y="-30"/>
      <point x="548" y="0"/>
      <point x="590" y="28" type="curve"/>
    </contour>
    <contour>
      <point x="516" y="136" type="line"/>
      <point x="422" y="80"/>
      <point x="375" y="38"/>
      <point x="300" y="38" type="curve" smooth="yes"/>
      <point x="203" y="38"/>
      <point x="156" y="111"/>
      <point x="156" y="235" type="curve" smooth="yes"/>
      <point x="156" y="358"/>
      <point x="187" y="475"/>
      <point x="281" y="565" type="curve"/>
      <point x="463" y="479"/>
      <point x="537" y="465"/>
      <point x="542" y="285" type="curve"/>
      <point x="531" y="290" type="line" smooth="yes"/>
      <point x="490" y="308"/>
      <point x="438" y="330"/>
      <point x="411" y="330" type="curve" smooth="yes"/>
      <point x="369" y="330"/>
      <point x="341" y="304"/>
      <point x="341" y="265" type="curve" smooth="yes"/>
      <point x="341" y="233"/>
      <point x="365" y="218"/>
      <point x="398" y="205" type="curve" smooth="yes"/>
      <point x="430" y="193"/>
      <point x="459" y="170"/>
      <point x="516" y="136" type="curve"/>
    </contour>
  </outline>
</glyph>
<glyph name="R" format="1">
  <advance width="675"/>
  <unicode hex="0052"/>
  <outline>
    <contour>
      <point x="609" y="-37" type="line"/>
      <point x="630" y="-34"/>
      <point x="647" y="-5"/>
      <point x="647" y="25" type="curve" smooth="yes"/>
      <point x="647" y="60"/>
      <point x="629" y="98"/>
      <point x="580" y="123" type="curve"/>
      <point x="333" y="222" type="line"/>
      <point x="341" y="232" type="line" smooth="yes"/>
      <point x="418" y="328"/>
      <point x="502" y="434"/>
      <point x="502" y="530" type="curve" smooth="yes"/>
      <point x="502" y="600"/>
      <point x="446" y="660"/>
      <point x="377" y="660" type="curve" smooth="yes"/>
      <point x="307" y="660"/>
      <point x="235" y="582"/>
      <point x="168" y="505" type="curve"/>
      <point x="164" y="518" type="line" smooth="yes"/>
      <point x="146" y="583"/>
      <point x="133" y="632"/>
      <point x="80" y="632" type="curve" smooth="yes"/>
      <point x="62" y="632"/>
      <point x="21" y="584"/>
      <point x="21" y="555" type="curve" smooth="yes"/>
      <point x="21" y="545"/>
      <point x="25" y="533"/>
      <point x="26" y="524" type="curve" smooth="yes"/>
      <point x="48" y="345"/>
      <point x="65" y="167"/>
      <point x="87" y="-12" type="curve" smooth="yes"/>
      <point x="91" y="-48"/>
      <point x="114" y="-70"/>
      <point x="154" y="-70" type="curve" smooth="yes"/>
      <point x="210" y="-70"/>
      <point x="218" y="-20"/>
      <point x="218" y="33" type="curve" smooth="yes"/>
      <point x="218" y="57"/>
      <point x="216" y="82"/>
      <point x="216" y="111" type="curve"/>
      <point x="252" y="100"/>
      <point x="278" y="90"/>
      <point x="307" y="82" type="curve" smooth="yes"/>
      <point x="409" y="54"/>
      <point x="462" y="14"/>
      <point x="561" y="-28" type="curve"/>
    </contour>
    <contour>
      <point x="324" y="493" type="line"/>
      <point x="344" y="483" type="line"/>
      <point x="338" y="442"/>
      <point x="309" y="412"/>
      <point x="264" y="388" type="curve"/>
    </contour>
  </outline>
</glyph>
<glyph name="S" format="1">
  <advance width="475"/>
  <unicode hex="0053"/>
  <outline>
    <contour>
      <point x="278" y="562" type="line"/>
      <point x="313" y="524"/>
      <point x="332" y="493"/>
      <point x="363" y="493" type="curve" smooth="yes"/>
      <point x="390" y="493"/>
      <point x="408" y="524"/>
      <point x="408" y="565" type="curve" smooth="yes"/>
      <point x="408" y="647"/>
      <point x="335" y="680"/>
      <point x="268" y="680" type="curve" smooth="yes"/>
      <point x="159" y="680"/>
      <point x="54" y="581"/>
      <point x="54" y="474" type="curve" smooth="yes"/>
      <point x="54" y="324"/>
      <point x="309" y="202"/>
      <point x="309" y="102" type="curve" smooth="yes"/>
      <point x="309" y="77"/>
      <point x="288" y="54"/>
      <point x="252" y="54" type="curve" smooth="yes"/>
      <point x="228" y="54"/>
      <point x="191" y="62"/>
      <point x="170" y="71" type="curve" smooth="yes"/>
      <point x="136" y="86"/>
      <point x="122" y="111"/>
      <point x="88" y="111" type="curve" smooth="yes"/>
      <point x="45" y="111"/>
      <point x="25" y="90"/>
      <point x="25" y="57" type="curve" smooth="yes"/>
      <point x="25" y="-19"/>
      <point x="153" y="-85"/>
      <point x="239" y="-85" type="curve" smooth="yes"/>
      <point x="350" y="-85"/>
      <point x="445" y="-5"/>
      <point x="445" y="94" type="curve" smooth="yes"/>
      <point x="445" y="165"/>
      <point x="409" y="224"/>
      <point x="335" y="298" type="curve" smooth="yes"/>
      <point x="275" y="358"/>
      <point x="190" y="426"/>
      <point x="190" y="474" type="curve" smooth="yes"/>
      <point x="190" y="502"/>
      <point x="218" y="525"/>
      <point x="278" y="562" type="curve"/>
    </contour>
  </outline>
</glyph>
<glyph name="T" format="1">
  <advance width="635"/>
  <unicode hex="0054"/>
  <outline>
    <contour>
      <point x="345" y="527" type="line"/>
      <point x="460" y="548"/>
      <point x="607" y="551"/>
      <point x="607" y="627" type="curve" smooth="yes"/>
      <point x="607" y="685"/>
      <point x="564" y="692"/>
      <point x="523" y="692" type="curve" smooth="yes"/>
      <point x="370" y="692"/>
      <point x="222" y="625"/>
      <point x="77" y="590" type="curve" smooth="yes"/>
      <point x="46" y="582"/>
      <point x="23" y="564"/>
      <point x="23" y="539" type="curve" smooth="yes"/>
      <point x="23" y="499"/>
      <point x="73" y="471"/>
      <point x="108" y="471" type="curve" smooth="yes"/>
      <point x="143" y="471"/>
      <point x="176" y="480"/>
      <point x="213" y="486" type="curve"/>
      <point x="239" y="321"/>
      <point x="253" y="154"/>
      <point x="269" y="-14" type="curve" smooth="yes"/>
      <point x="273" y="-56"/>
      <point x="287" y="-93"/>
      <point x="335" y="-93" type="curve" smooth="yes"/>
      <point x="392" y="-93"/>
      <point x="398" y="-43"/>
      <point x="398" y="8" type="curve" smooth="yes"/>
      <point x="398" y="178"/>
      <point x="365" y="340"/>
      <point x="340" y="524" type="curve"/>
    </contour>
  </outline>
</glyph>
<glyph name="U" format="1">
  <advance width="567"/>
  <unicode hex="0055"/>
  <outline>
    <contour>
      <point x="335" y="62" type="line"/>
      <point x="296" y="62"/>
      <point x="247" y="125"/>
      <point x="230" y="191" type="curve" smooth="yes"/>
      <point x="202" y="303"/>
      <point x="183" y="418"/>
      <point x="161" y="533" type="curve" smooth="yes"/>
      <point x="151" y="585"/>
      <point x="155" y="666"/>
      <point x="93" y="666" type="curve" smooth="yes"/>
      <point x="69" y="666"/>
      <point x="26" y="616"/>
      <point x="26" y="596" type="curve" smooth="yes"/>
      <point x="26" y="385"/>
      <point x="62" y="125"/>
      <point x="216" y="-23" type="curve" smooth="yes"/>
      <point x="253" y="-59"/>
      <point x="296" y="-74"/>
      <point x="335" y="-74" type="curve" smooth="yes"/>
      <point x="454" y="-74"/>
      <point x="539" y="82"/>
      <point x="539" y="287" type="curve" smooth="yes"/>
      <point x="539" y="381"/>
      <point x="519" y="475"/>
      <point x="482" y="568" type="curve" smooth="yes"/>
      <point x="466" y="608"/>
      <point x="432" y="635"/>
      <point x="397" y="635" type="curve" smooth="yes"/>
      <point x="373" y="635"/>
      <point x="349" y="593"/>
      <point x="349" y="564" type="curve" smooth="yes"/>
      <point x="349" y="539"/>
      <point x="369" y="510"/>
      <point x="373" y="483" type="curve"/>
      <point x="373" y="471"/>
      <point x="375" y="460"/>
      <point x="377" y="450" type="curve"/>
      <point x="387" y="373"/>
      <point x="400" y="268"/>
      <point x="400" y="205" type="curve" smooth="yes"/>
      <point x="400" y="155"/>
      <point x="370" y="62"/>
      <point x="335" y="62" type="curve" smooth="yes"/>
    </contour>
  </outline>
</glyph>
<glyph name="V" format="1">
  <advance width="588"/>
  <unicode hex="0056"/>
  <outline>
    <contour>
      <point x="309" y="61" type="line"/>
      <point x="290" y="102" type="line"/>
      <point x="238" y="240"/>
      <point x="199" y="382"/>
      <point x="155" y="524" type="curve" smooth="yes"/>
      <point x="145" y="555"/>
      <point x="123" y="585"/>
      <point x="90" y="585" type="curve" smooth="yes"/>
      <point x="43" y="585"/>
      <point x="28" y="551"/>
      <point x="28" y="524" type="curve" smooth="yes"/>
      <point x="28" y="511"/>
      <point x="29" y="499"/>
      <point x="34" y="486" type="curve"/>
      <point x="73" y="350"/>
      <point x="113" y="213"/>
      <point x="160" y="80" type="curve" smooth="yes"/>
      <point x="188" y="0"/>
      <point x="244" y="-109"/>
      <point x="318" y="-109" type="curve" smooth="yes"/>
      <point x="437" y="-109"/>
      <point x="438" y="45"/>
      <point x="456" y="140" type="curve" smooth="yes"/>
      <point x="487" y="303"/>
      <point x="462" y="477"/>
      <point x="556" y="628" type="curve"/>
      <point x="560" y="632"/>
      <point x="560" y="637"/>
      <point x="560" y="645" type="curve" smooth="yes"/>
      <point x="560" y="693"/>
      <point x="533" y="703"/>
      <point x="503" y="703" type="curve" smooth="yes"/>
      <point x="415" y="703"/>
      <point x="378" y="565"/>
      <point x="363" y="471" type="curve" smooth="yes"/>
      <point x="344" y="350"/>
      <point x="333" y="227"/>
      <point x="318" y="106" type="curve"/>
    </contour>
  </outline>
</glyph>
<glyph name="W" format="1">
  <advance width="981"/>
  <unicode hex="0057"/>
  <outline>
    <contour>
      <point x="304" y="179" type="line"/>
      <point x="295" y="211" type="line" smooth="yes"/>
      <point x="262" y="328"/>
      <point x="222" y="448"/>
      <point x="162" y="566" type="curve" smooth="yes"/>
      <point x="146" y="598"/>
      <point x="118" y="613"/>
      <point x="90" y="613" type="curve" smooth="yes"/>
      <point x="51" y="613"/>
      <point x="25" y="584"/>
      <point x="25" y="548" type="curve" smooth="yes"/>
      <point x="25" y="502"/>
      <point x="80" y="434"/>
      <point x="106" y="370" type="curve"/>
      <point x="148" y="245"/>
      <point x="202" y="-54"/>
      <point x="304" y="-54" type="curve" smooth="yes"/>
      <point x="335" y="-54"/>
      <point x="383" y="-16"/>
      <point x="400" y="18" type="curve"/>
      <point x="422" y="70"/>
      <point x="430" y="130"/>
      <point x="445" y="185" type="curve" smooth="yes"/>
      <point x="459" y="240"/>
      <point x="471" y="296"/>
      <point x="491" y="377" type="curve"/>
      <point x="582" y="204"/>
      <point x="629" y="89"/>
      <point x="743" y="-2" type="curve" smooth="yes"/>
      <point x="770" y="-23"/>
      <point x="797" y="-34"/>
      <point x="820" y="-34" type="curve" smooth="yes"/>
      <point x="884" y="-34"/>
      <point x="950" y="40"/>
      <point x="950" y="139" type="curve" smooth="yes"/>
      <point x="950" y="281"/>
      <point x="949" y="423"/>
      <point x="945" y="565" type="curve" smooth="yes"/>
      <point x="944" y="607"/>
      <point x="925" y="640"/>
      <point x="882" y="640" type="curve" smooth="yes"/>
      <point x="826" y="640"/>
      <point x="817" y="602"/>
      <point x="817" y="560" type="curve" smooth="yes"/>
      <point x="817" y="483"/>
      <point x="826" y="406"/>
      <point x="826" y="330" type="curve" smooth="yes"/>
      <point x="826" y="261"/>
      <point x="822" y="193"/>
      <point x="819" y="105" type="curve"/>
      <point x="786" y="134"/>
      <point x="766" y="146"/>
      <point x="756" y="163" type="curve" smooth="yes"/>
      <point x="720" y="225"/>
      <point x="687" y="290"/>
      <point x="650" y="354" type="curve" smooth="yes"/>
      <point x="638" y="374" type="line" smooth="yes"/>
      <point x="597" y="446"/>
      <point x="546" y="535"/>
      <point x="479" y="535" type="curve" smooth="yes"/>
      <point x="376" y="535"/>
      <point x="342" y="366"/>
      <point x="314" y="228" type="curve" smooth="yes"/>
    </contour>
  </outline>
</glyph>
<glyph name="X" format="1">
  <advance width="572"/>
  <unicode hex="0058"/>
  <outline>
    <contour>
      <point x="219" y="292" type="line"/>
      <point x="150" y="198"/>
      <point x="90" y="128"/>
      <point x="41" y="45" type="curve" smooth="yes"/>
      <point x="33" y="32"/>
      <point x="28" y="18"/>
      <point x="28" y="5" type="curve" smooth="yes"/>
      <point x="28" y="-19"/>
      <point x="45" y="-44"/>
      <point x="82" y="-44" type="curve" smooth="yes"/>
      <point x="140" y="-44"/>
      <point x="158" y="-12"/>
      <point x="187" y="25" type="curve" smooth="yes"/>
      <point x="296" y="165" type="line"/>
      <point x="352" y="99"/>
      <point x="426" y="-8"/>
      <point x="487" y="-8" type="curve" smooth="yes"/>
      <point x="530" y="-8"/>
      <point x="540" y="28"/>
      <point x="540" y="58" type="curve" smooth="yes"/>
      <point x="540" y="93"/>
      <point x="511" y="109"/>
      <point x="490" y="136" type="curve" smooth="yes"/>
      <point x="452" y="184"/>
      <point x="414" y="231"/>
      <point x="375" y="283" type="curve"/>
      <point x="428" y="369"/>
      <point x="475" y="446"/>
      <point x="524" y="522" type="curve" smooth="yes"/>
      <point x="535" y="539"/>
      <point x="543" y="556"/>
      <point x="543" y="572" type="curve" smooth="yes"/>
      <point x="543" y="598"/>
      <point x="513" y="632"/>
      <point x="480" y="632" type="curve" smooth="yes"/>
      <point x="437" y="632"/>
      <point x="390" y="550"/>
      <point x="360" y="499" type="curve"/>
      <point x="297" y="405" type="line"/>
      <point x="219" y="505"/>
      <point x="173" y="616"/>
      <point x="122" y="616" type="curve" smooth="yes"/>
      <point x="80" y="616"/>
      <point x="58" y="580"/>
      <point x="58" y="556" type="curve" smooth="yes"/>
      <point x="58" y="521"/>
      <point x="92" y="480"/>
      <point x="118" y="440" type="curve" smooth="yes"/>
      <point x="149" y="393"/>
      <point x="179" y="342"/>
      <point x="218" y="285" type="curve"/>
    </contour>
  </outline>
</glyph>
<glyph name="Y" format="1">
  <advance width="584"/>
  <unicode hex="0059"/>
  <outline>
    <contour>
      <point x="417" y="239" type="line"/>
      <point x="417" y="108" type="line" smooth="yes"/>
      <point x="417" y="92"/>
      <point x="416" y="75"/>
      <point x="416" y="57" type="curve" smooth="yes"/>
      <point x="416" y="-2"/>
      <point x="423" y="-64"/>
      <point x="485" y="-64" type="curve" smooth="yes"/>
      <point x="547" y="-64"/>
      <point x="548" y="-3"/>
      <point x="548" y="51" type="curve" smooth="yes"/>
      <point x="548" y="171"/>
      <point x="556" y="290"/>
      <point x="556" y="411" type="curve" smooth="yes"/>
      <point x="556" y="498" type="line" smooth="yes"/>
      <point x="556" y="528"/>
      <point x="556" y="558"/>
      <point x="555" y="588" type="curve" smooth="yes"/>
      <point x="554" y="628"/>
      <point x="538" y="664"/>
      <point x="490" y="664" type="curve" smooth="yes"/>
      <point x="429" y="664"/>
      <point x="425" y="599"/>
      <point x="425" y="541" type="curve" smooth="yes"/>
      <point x="425" y="491" type="line"/>
      <point x="423" y="468"/>
      <point x="425" y="382"/>
      <point x="409" y="382" type="curve" smooth="yes"/>
      <point x="333" y="382"/>
      <point x="231" y="426"/>
      <point x="175" y="480" type="curve" smooth="yes"/>
      <point x="146" y="508"/>
      <point x="123" y="548"/>
      <point x="73" y="548" type="curve" smooth="yes"/>
      <point x="38" y="548"/>
      <point x="25" y="527"/>
      <point x="25" y="491" type="curve" smooth="yes"/>
      <point x="25" y="463"/>
      <point x="44" y="441"/>
      <point x="63" y="419" type="curve" smooth="yes"/>
      <point x="70" y="411" type="line" smooth="yes"/>
      <point x="159" y="309"/>
      <point x="275" y="259"/>
      <point x="417" y="239" type="curve"/>
    </contour>
  </outline>
</glyph>
<glyph name="Z" format="1">
  <advance width="590"/>
  <unicode hex="005A"/>
  <outline>
    <contour>
      <point x="398" y="530" type="line"/>
      <point x="366" y="454"/>
      <point x="349" y="392"/>
      <point x="318" y="335" type="curve" smooth="yes"/>
      <point x="273" y="250"/>
      <point x="219" y="171"/>
      <point x="170" y="90" type="curve" smooth="yes"/>
      <point x="156" y="66"/>
      <point x="146" y="43"/>
      <point x="146" y="18" type="curve" smooth="yes"/>
      <point x="146" y="-44"/>
      <point x="203" y="-68"/>
      <point x="240" y="-68" type="curve" smooth="yes"/>
      <point x="250" y="-68"/>
      <point x="261" y="-67"/>
      <point x="273" y="-65" type="curve" smooth="yes"/>
      <point x="349" y="-53"/>
      <point x="423" y="-37"/>
      <point x="497" y="-19" type="curve" smooth="yes"/>
      <point x="533" y="-11"/>
      <point x="562" y="8"/>
      <point x="562" y="45" type="curve" smooth="yes"/>
      <point x="562" y="98"/>
      <point x="527" y="110"/>
      <point x="497" y="110" type="curve" smooth="yes"/>
      <point x="446" y="110"/>
      <point x="395" y="93"/>
      <point x="327" y="82" type="curve"/>
      <point x="411" y="233"/>
      <point x="482" y="341"/>
      <point x="510" y="495" type="curve"/>
      <point x="511" y="505"/>
      <point x="511" y="514"/>
      <point x="511" y="524" type="curve" smooth="yes"/>
      <point x="511" y="613"/>
      <point x="455" y="661"/>
      <point x="358" y="661" type="curve" smooth="yes"/>
      <point x="241" y="661"/>
      <point x="23" y="575"/>
      <point x="23" y="487" type="curve" smooth="yes"/>
      <point x="23" y="457"/>
      <point x="58" y="418"/>
      <point x="100" y="418" type="curve" smooth="yes"/>
      <point x="122" y="418"/>
      <point x="147" y="432"/>
      <point x="162" y="448" type="curve"/>
      <point x="216" y="517"/>
      <point x="288" y="528"/>
      <point x="395" y="528" type="curve"/>
    </contour>
  </outline>
</glyph>
<glyph name="bracketleft" format="1">
  <advance width="567"/>
  <unicode hex="005B"/>
  <outline>
    <contour>
      <point x="165" y="-57" type="line"/>
      <point x="165" y="46"/>
      <point x="164" y="206"/>
      <point x="164" y="342" type="curve" smooth="yes"/>
      <point x="164" y="399"/>
      <point x="163" y="444"/>
      <point x="163" y="479" type="curve" smooth="yes"/>
      <point x="163" y="590"/>
      <point x="171" y="607"/>
      <point x="233" y="612" type="curve"/>
      <point x="305" y="612" type="line" smooth="yes"/>
      <point x="347" y="612"/>
      <point x="387" y="622"/>
      <point x="387" y="674" type="curve" smooth="yes"/>
      <point x="387" y="726"/>
      <point x="346" y="740"/>
      <point x="303" y="740" type="curve" smooth="yes"/>
      <point x="288" y="740" type="line" smooth="yes"/>
      <point x="274" y="740"/>
      <point x="239" y="740"/>
      <point x="174" y="729" type="curve" smooth="yes"/>
      <point x="45" y="706"/>
      <point x="45" y="703"/>
      <point x="45" y="578" type="curve" smooth="yes"/>
      <point x="45" y="513"/>
      <point x="41" y="409"/>
      <point x="41" y="289" type="curve" smooth="yes"/>
      <point x="41" y="156"/>
      <point x="41" y="12"/>
      <point x="43" y="-78" type="curve" smooth="yes"/>
      <point x="44" y="-155"/>
      <point x="69" y="-187"/>
      <point x="136" y="-187" type="curve" smooth="yes"/>
      <point x="143" y="-187"/>
      <point x="151" y="-187"/>
      <point x="160" y="-186" type="curve" smooth="yes"/>
      <point x="266" y="-179"/>
      <point x="282" y="-177"/>
      <point x="377" y="-159" type="curve" smooth="yes"/>
      <point x="397" y="-155" type="line" smooth="yes"/>
      <point x="417" y="-151"/>
      <point x="432" y="-119"/>
      <point x="432" y="-99" type="curve" smooth="yes"/>
      <point x="432" y="-67"/>
      <point x="407" y="-34"/>
      <point x="362" y="-34" type="curve" smooth="yes"/>
      <point x="317" y="-34"/>
      <point x="244" y="-53"/>
      <point x="218" y="-53" type="curve" smooth="yes"/>
      <point x="202" y="-53"/>
      <point x="186" y="-54"/>
      <point x="165" y="-57" type="curve"/>
    </contour>
  </outline>
</glyph>
<glyph name="backslash" format="1">
  <advance width="558"/>
  <unicode hex="005C"/>
  <outline>
    <contour>
      <point x="403" y="-62" type="line"/>
      <point x="427" y="-94"/>
      <point x="450" y="-114"/>
      <point x="475" y="-114" type="curve" smooth="yes"/>
      <point x="512" y="-114"/>
      <point x="529" y="-81"/>
      <point x="529" y="-59" type="curve" smooth="yes"/>
      <point x="529" y="-47"/>
      <point x="526" y="-36"/>
      <point x="520" y="-25" type="curve" smooth="yes"/>
      <point x="488" y="38"/>
      <point x="478" y="44"/>
      <point x="446" y="107" type="curve" smooth="yes"/>
      <point x="421" y="158"/>
      <point x="245" y="501"/>
      <point x="178" y="633" type="curve" smooth="yes"/>
      <point x="149" y="690" type="line" smooth="yes"/>
      <point x="122" y="742"/>
      <point x="105" y="765"/>
      <point x="65" y="765" type="curve" smooth="yes"/>
      <point x="27" y="765"/>
      <point x="14" y="732"/>
      <point x="14" y="697" type="curve" smooth="yes"/>
      <point x="14" y="672"/>
      <point x="21" y="645"/>
      <point x="30" y="625" type="curve" smooth="yes"/>
      <point x="37" y="609"/>
      <point x="123" y="451"/>
      <point x="150" y="397" type="curve" smooth="yes"/>
      <point x="332" y="40"/>
      <point x="330" y="51"/>
      <point x="403" y="-62" type="curve"/>
    </contour>
  </outline>
</glyph>
<glyph name="bracketright" format="1">
  <advance width="539"/>
  <unicode hex="005D"/>
  <outline>
    <contour>
      <point x="304" y="-13" type="line"/>
      <point x="241" y="-23"/>
      <point x="142" y="-19"/>
      <point x="142" y="-86" type="curve" smooth="yes"/>
      <point x="142" y="-137"/>
      <point x="173" y="-155"/>
      <point x="212" y="-155" type="curve" smooth="yes"/>
      <point x="219" y="-155"/>
      <point x="225" y="-154"/>
      <point x="232" y="-153" type="curve" smooth="yes"/>
      <point x="308" y="-146"/>
      <point x="317" y="-148"/>
      <point x="391" y="-134" type="curve" smooth="yes"/>
      <point x="443" y="-124"/>
      <point x="456" y="-106"/>
      <point x="456" y="-63" type="curve" smooth="yes"/>
      <point x="456" y="-56"/>
      <point x="455" y="-49"/>
      <point x="455" y="-41" type="curve" smooth="yes"/>
      <point x="446" y="100"/>
      <point x="442" y="411"/>
      <point x="442" y="552" type="curve" smooth="yes"/>
      <point x="442" y="601"/>
      <point x="499" y="653"/>
      <point x="499" y="689" type="curve" smooth="yes"/>
      <point x="499" y="745"/>
      <point x="400" y="747"/>
      <point x="313" y="747" type="curve" smooth="yes"/>
      <point x="269" y="747"/>
      <point x="231" y="745"/>
      <point x="167" y="744" type="curve" smooth="yes"/>
      <point x="124" y="743"/>
      <point x="87" y="726"/>
      <point x="87" y="673" type="curve" smooth="yes"/>
      <point x="87" y="633"/>
      <point x="126" y="602"/>
      <point x="175" y="602" type="curve" smooth="yes"/>
      <point x="195" y="602"/>
      <point x="213" y="617"/>
      <point x="234" y="617" type="curve" smooth="yes"/>
      <point x="282" y="617"/>
      <point x="264" y="620"/>
      <point x="315" y="620" type="curve"/>
      <point x="315" y="458"/>
      <point x="304" y="144"/>
      <point x="304" y="-13" type="curve"/>
    </contour>
  </outline>
</glyph>
<glyph name="underscore" format="1">
  <advance width="833"/>
  <unicode hex="005F"/>
  <outline>
    <contour>
      <point x="94" y="-99" type="line"/>
      <point x="228" y="-113"/>
      <point x="182" y="-122"/>
      <point x="582" y="-122" type="curve" smooth="yes"/>
      <point x="643" y="-122"/>
      <point x="692" y="-121"/>
      <point x="709" y="-120" type="curve" smooth="yes"/>
      <point x="755" y="-118"/>
      <point x="824" y="-92"/>
      <point x="824" y="-47" type="curve" smooth="yes"/>
      <point x="824" y="-39"/>
      <point x="821" y="-30"/>
      <point x="816" y="-21" type="curve" smooth="yes"/>
      <point x="797" y="11"/>
      <point x="769" y="15"/>
      <point x="713" y="15" type="curve" smooth="yes"/>
      <point x="649" y="15" type="line" smooth="yes"/>
      <point x="501" y="15"/>
      <point x="340" y="14"/>
      <point x="283" y="14" type="curve" smooth="yes"/>
      <point x="213" y="14"/>
      <point x="145" y="22"/>
      <point x="74" y="22" type="curve" smooth="yes"/>
      <point x="42" y="22"/>
      <point x="10" y="4"/>
      <point x="10" y="-36" type="curve" smooth="yes"/>
      <point x="10" y="-74"/>
      <point x="43" y="-90"/>
      <point x="94" y="-99" type="curve"/>
    </contour>
  </outline>
</glyph>
<glyph name="a" format="1">
  <advance width="649"/>
  <unicode hex="0061"/>
  <outline>
    <contour>
      <point x="382" y="165" type="line"/>
      <point x="423" y="61"/>
      <point x="474" y="-116"/>
      <point x="552" y="-116" type="curve" smooth="yes"/>
      <point x="592" y="-116"/>
      <point x="622" y="-76"/>
      <point x="622" y="-48" type="curve" smooth="yes"/>
      <point x="622" y="-34"/>
      <point x="616" y="-17"/>
      <point x="606" y="1" type="curve" smooth="yes"/>
      <point x="573" y="61"/>
      <point x="550" y="125"/>
      <point x="523" y="185" type="curve"/>
      <point x="553" y="216"/>
      <point x="585" y="256"/>
      <point x="585" y="280" type="curve" smooth="yes"/>
      <point x="585" y="317"/>
      <point x="511" y="335"/>
      <point x="466" y="361" type="curve"/>
      <point x="420" y="470"/>
      <point x="358" y="658"/>
      <point x="280" y="658" type="curve" smooth="yes"/>
      <point x="252" y="658"/>
      <point x="218" y="637"/>
      <point x="174" y="598" type="curve" smooth="yes"/>
      <point x="134" y="562"/>
      <point x="94" y="535"/>
      <point x="94" y="483" type="curve" smooth="yes"/>
      <point x="94" y="479"/>
      <point x="97" y="475"/>
      <point x="98" y="471" type="curve"/>
      <point x="110" y="448"/>
      <point x="114" y="429"/>
      <point x="114" y="408" type="curve" smooth="yes"/>
      <point x="114" y="374"/>
      <point x="102" y="340"/>
      <point x="94" y="307" type="curve" smooth="yes"/>
      <point x="71" y="216"/>
      <point x="46" y="127"/>
      <point x="28" y="37" type="curve" smooth="yes"/>
      <point x="25" y="25"/>
      <point x="23" y="15"/>
      <point x="23" y="5" type="curve" smooth="yes"/>
      <point x="23" y="-44"/>
      <point x="51" y="-71"/>
      <point x="93" y="-71" type="curve" smooth="yes"/>
      <point x="140" y="-71"/>
      <point x="159" y="-42"/>
      <point x="165" y="4" type="curve" smooth="yes"/>
      <point x="171" y="45"/>
      <point x="185" y="85"/>
      <point x="196" y="133" type="curve"/>
    </contour>
    <contour>
      <point x="337" y="297" type="line"/>
      <point x="228" y="272" type="line"/>
      <point x="265" y="415" type="line"/>
      <point x="287" y="417" type="line"/>
    </contour>
  </outline>
</glyph>
<glyph name="b" format="1">
  <advance width="684"/>
  <unicode hex="0062"/>
  <outline>
    <contour>
      <point x="514" y="335" type="line"/>
      <point x="547" y="386"/>
      <point x="575" y="443"/>
      <point x="575" y="495" type="curve" smooth="yes"/>
      <point x="575" y="605"/>
      <point x="477" y="647"/>
      <point x="337" y="647" type="curve" smooth="yes"/>
      <point x="218" y="647"/>
      <point x="28" y="595"/>
      <point x="28" y="499" type="curve" smooth="yes"/>
      <point x="28" y="450"/>
      <point x="80" y="380"/>
      <point x="97" y="309" type="curve"/>
      <point x="127" y="127"/>
      <point x="240" y="-101"/>
      <point x="375" y="-101" type="curve" smooth="yes"/>
      <point x="516" y="-101"/>
      <point x="657" y="15"/>
      <point x="657" y="126" type="curve" smooth="yes"/>
      <point x="657" y="208"/>
      <point x="604" y="245"/>
      <point x="514" y="335" type="curve"/>
    </contour>
    <contour>
      <point x="438" y="495" type="line"/>
      <point x="397" y="400"/>
      <point x="330" y="355"/>
      <point x="236" y="317" type="curve"/>
      <point x="205" y="485" type="line"/>
      <point x="241" y="496"/>
      <point x="301" y="505"/>
      <point x="340" y="505" type="curve" smooth="yes"/>
      <point x="366" y="505"/>
      <point x="411" y="500"/>
      <point x="438" y="495" type="curve"/>
    </contour>
    <contour>
      <point x="372" y="34" type="line"/>
      <point x="287" y="165" type="line"/>
      <point x="316" y="193"/>
      <point x="350" y="203"/>
      <point x="382" y="203" type="curve" smooth="yes"/>
      <point x="423" y="203"/>
      <point x="507" y="188"/>
      <point x="507" y="131" type="curve" smooth="yes"/>
      <point x="507" y="69"/>
      <point x="425" y="54"/>
      <point x="372" y="34" type="curve"/>
    </contour>
  </outline>
</glyph>
<glyph name="c" format="1">
  <advance width="615"/>
  <unicode hex="0063"/>
  <outline>
    <contour>
      <point x="533" y="175" type="line"/>
      <point x="466" y="143"/>
      <point x="394" y="113"/>
      <point x="325" y="113" type="curve" smooth="yes"/>
      <point x="255" y="113"/>
      <point x="163" y="162"/>
      <point x="163" y="248" type="curve" smooth="yes"/>
      <point x="163" y="287"/>
      <point x="178" y="327"/>
      <point x="193" y="365" type="curve"/>
      <point x="278" y="378"/>
      <point x="332" y="370"/>
      <point x="332" y="429" type="curve" smooth="yes"/>
      <point x="332" y="496"/>
      <point x="258" y="564"/>
      <point x="205" y="564" type="curve" smooth="yes"/>
      <point x="108" y="564"/>
      <point x="28" y="335"/>
      <point x="28" y="222" type="curve" smooth="yes"/>
      <point x="28" y="75"/>
      <point x="160" y="-25"/>
      <point x="340" y="-25" type="curve" smooth="yes"/>
      <point x="405" y="-25"/>
      <point x="585" y="6"/>
      <point x="585" y="86" type="curve" smooth="yes"/>
      <point x="585" y="122"/>
      <point x="564" y="160"/>
      <point x="533" y="175" type="curve"/>
    </contour>
  </outline>
</glyph>
<glyph name="d" format="1">
  <advance width="605"/>
  <unicode hex="0064"/>
  <outline>
    <contour>
      <point x="576" y="255" type="line"/>
      <point x="540" y="450"/>
      <point x="414" y="523"/>
      <point x="258" y="556" type="curve" smooth="yes"/>
      <point x="228" y="562"/>
      <point x="195" y="562"/>
      <point x="168" y="575" type="curve" smooth="yes"/>
      <point x="127" y="593"/>
      <point x="102" y="605"/>
      <point x="83" y="605" type="curve" smooth="yes"/>
      <point x="51" y="605"/>
      <point x="29" y="528"/>
      <point x="29" y="398" type="curve" smooth="yes"/>
      <point x="29" y="265"/>
      <point x="62" y="134"/>
      <point x="105" y="6" type="curve"/>
      <point x="128" y="-45"/>
      <point x="202" y="-62"/>
      <point x="255" y="-62" type="curve" smooth="yes"/>
      <point x="411" y="-62"/>
      <point x="573" y="75"/>
      <point x="576" y="255" type="curve"/>
    </contour>
    <contour>
      <point x="168" y="418" type="line"/>
      <point x="183" y="420"/>
      <point x="195" y="420"/>
      <point x="208" y="420" type="curve" smooth="yes"/>
      <point x="313" y="420"/>
      <point x="438" y="333"/>
      <point x="438" y="238" type="curve" smooth="yes"/>
      <point x="438" y="175"/>
      <point x="365" y="82"/>
      <point x="264" y="82" type="curve" smooth="yes"/>
      <point x="252" y="82"/>
      <point x="238" y="82"/>
      <point x="222" y="83" type="curve"/>
      <point x="190" y="175"/>
      <point x="168" y="327"/>
      <point x="168" y="418" type="curve"/>
    </contour>
  </outline>
</glyph>
<glyph name="e" format="1">
  <advance width="698"/>
  <unicode hex="0065"/>
  <outline>
    <contour>
      <point x="212" y="363" type="line"/>
      <point x="202" y="382"/>
      <point x="196" y="398"/>
      <point x="196" y="411" type="curve" smooth="yes"/>
      <point x="196" y="436"/>
      <point x="215" y="450"/>
      <point x="244" y="460" type="curve" smooth="yes"/>
      <point x="258" y="464" type="line" smooth="yes"/>
      <point x="348" y="493"/>
      <point x="439" y="522"/>
      <point x="530" y="545" type="curve" smooth="yes"/>
      <point x="567" y="554"/>
      <point x="604" y="565"/>
      <point x="604" y="601" type="curve" smooth="yes"/>
      <point x="604" y="640"/>
      <point x="550" y="686"/>
      <point x="508" y="686" type="curve" smooth="yes"/>
      <point x="488" y="686"/>
      <point x="464" y="681"/>
      <point x="446" y="675" type="curve" smooth="yes"/>
      <point x="330" y="638"/>
      <point x="214" y="596"/>
      <point x="99" y="556" type="curve" smooth="yes"/>
      <point x="51" y="539"/>
      <point x="28" y="504"/>
      <point x="28" y="459" type="curve" smooth="yes"/>
      <point x="28" y="412"/>
      <point x="66" y="346"/>
      <point x="73" y="281" type="curve" smooth="yes"/>
      <point x="85" y="175"/>
      <point x="91" y="68"/>
      <point x="103" y="-39" type="curve" smooth="yes"/>
      <point x="110" y="-107"/>
      <point x="141" y="-138"/>
      <point x="190" y="-138" type="curve" smooth="yes"/>
      <point x="198" y="-138"/>
      <point x="207" y="-137"/>
      <point x="215" y="-135" type="curve"/>
      <point x="324" y="-117"/>
      <point x="434" y="-101"/>
      <point x="543" y="-81" type="curve" smooth="yes"/>
      <point x="608" y="-70"/>
      <point x="667" y="-55"/>
      <point x="667" y="6" type="curve" smooth="yes"/>
      <point x="667" y="26"/>
      <point x="621" y="66"/>
      <point x="590" y="66" type="curve" smooth="yes"/>
      <point x="579" y="66"/>
      <point x="562" y="60"/>
      <point x="547" y="58" type="curve" smooth="yes"/>
      <point x="445" y="46"/>
      <point x="343" y="35"/>
      <point x="233" y="23" type="curve"/>
      <point x="211" y="222" type="line"/>
      <point x="302" y="257"/>
      <point x="410" y="279"/>
      <point x="511" y="300" type="curve" smooth="yes"/>
      <point x="542" y="307" type="line" smooth="yes"/>
      <point x="584" y="316"/>
      <point x="615" y="326"/>
      <point x="615" y="375" type="curve" smooth="yes"/>
      <point x="615" y="423"/>
      <point x="575" y="440"/>
      <point x="535" y="440" type="curve" smooth="yes"/>
      <point x="442" y="440"/>
      <point x="324" y="395"/>
      <point x="212" y="363" type="curve"/>
    </contour>
  </outline>
</glyph>
<glyph name="f" format="1">
  <advance width="595"/>
  <unicode hex="0066"/>
  <outline>
    <contour>
      <point x="490" y="222" type="line"/>
      <point x="528" y="227"/>
      <point x="550" y="265"/>
      <point x="550" y="301" type="curve" smooth="yes"/>
      <point x="550" y="324"/>
      <point x="542" y="346"/>
      <point x="524" y="358" type="curve"/>
      <point x="355" y="357"/>
      <point x="357" y="320"/>
      <point x="184" y="296" type="curve"/>
      <point x="171" y="344"/>
      <point x="163" y="377"/>
      <point x="163" y="400" type="curve" smooth="yes"/>
      <point x="163" y="444"/>
      <point x="193" y="460"/>
      <point x="276" y="482" type="curve" smooth="yes"/>
      <point x="335" y="498"/>
      <point x="430" y="513"/>
      <point x="490" y="523" type="curve" smooth="yes"/>
      <point x="533" y="530"/>
      <point x="565" y="544"/>
      <point x="565" y="592" type="curve" smooth="yes"/>
      <point x="565" y="638"/>
      <point x="528" y="660"/>
      <point x="493" y="660" type="curve" smooth="yes"/>
      <point x="487" y="660"/>
      <point x="482" y="660"/>
      <point x="477" y="658" type="curve"/>
      <point x="392" y="647"/>
      <point x="310" y="625"/>
      <point x="228" y="608" type="curve" smooth="yes"/>
      <point x="198" y="601"/>
      <point x="170" y="587"/>
      <point x="140" y="587" type="curve" smooth="yes"/>
      <point x="48" y="586"/>
      <point x="25" y="579"/>
      <point x="25" y="513" type="curve" smooth="yes"/>
      <point x="25" y="335"/>
      <point x="54" y="154"/>
      <point x="69" y="-23" type="curve" smooth="yes"/>
      <point x="73" y="-74"/>
      <point x="114" y="-116"/>
      <point x="154" y="-116" type="curve" smooth="yes"/>
      <point x="183" y="-116"/>
      <point x="210" y="-62"/>
      <point x="210" y="-34" type="curve" smooth="yes"/>
      <point x="210" y="-14"/>
      <point x="202" y="8"/>
      <point x="199" y="29" type="curve" smooth="yes"/>
      <point x="192" y="69"/>
      <point x="191" y="110"/>
      <point x="187" y="154" type="curve"/>
      <point x="471" y="219"/>
      <point x="450" y="209"/>
      <point x="487" y="219" type="curve"/>
    </contour>
  </outline>
</glyph>
<glyph name="g" format="1">
  <advance width="738"/>
  <unicode hex="0067"/>
  <outline>
    <contour>
      <point x="176" y="349" type="line"/>
      <point x="178" y="358"/>
      <point x="178" y="375"/>
      <point x="178" y="378" type="curve" smooth="yes"/>
      <point x="182" y="434"/>
      <point x="185" y="459"/>
      <point x="233" y="474" type="curve" smooth="yes"/>
      <point x="264" y="484"/>
      <point x="278" y="499"/>
      <point x="278" y="524" type="curve" smooth="yes"/>
      <point x="278" y="572"/>
      <point x="231" y="618"/>
      <point x="185" y="618" type="curve" smooth="yes"/>
      <point x="78" y="618"/>
      <point x="26" y="394"/>
      <point x="26" y="278" type="curve" smooth="yes"/>
      <point x="26" y="133"/>
      <point x="89" y="-34"/>
      <point x="273" y="-34" type="curve" smooth="yes"/>
      <point x="366" y="-34"/>
      <point x="496" y="41"/>
      <point x="496" y="111" type="curve" smooth="yes"/>
      <point x="496" y="165"/>
      <point x="466" y="173"/>
      <point x="435" y="173" type="curve" smooth="yes"/>
      <point x="373" y="173"/>
      <point x="335" y="102"/>
      <point x="270" y="102" type="curve" smooth="yes"/>
      <point x="231" y="102"/>
      <point x="204" y="130"/>
      <point x="182" y="193" type="curve"/>
      <point x="279" y="256"/>
      <point x="371" y="295"/>
      <point x="502" y="295" type="curve"/>
      <point x="513" y="242"/>
      <point x="524" y="192"/>
      <point x="536" y="143" type="curve" smooth="yes"/>
      <point x="540" y="127" type="line" smooth="yes"/>
      <point x="559" y="52"/>
      <point x="560" y="-80"/>
      <point x="638" y="-80" type="curve" smooth="yes"/>
      <point x="686" y="-80"/>
      <point x="707" y="-44"/>
      <point x="707" y="-15" type="curve" smooth="yes"/>
      <point x="707" y="-5"/>
      <point x="706" y="3"/>
      <point x="703" y="13" type="curve"/>
      <point x="650" y="261"/>
      <point x="638" y="434"/>
      <point x="477" y="434" type="curve" smooth="yes"/>
      <point x="401" y="434"/>
      <point x="295" y="392"/>
      <point x="176" y="349" type="curve"/>
    </contour>
  </outline>
</glyph>
<glyph name="h" format="1">
  <advance width="786"/>
  <unicode hex="0068"/>
  <outline>
    <contour>
      <point x="590" y="216" type="line"/>
      <point x="598" y="168"/>
      <point x="603" y="127"/>
      <point x="610" y="86" type="curve" smooth="yes"/>
      <point x="612" y="75" type="line" smooth="yes"/>
      <point x="622" y="14"/>
      <point x="633" y="-60"/>
      <point x="695" y="-60" type="curve" smooth="yes"/>
      <point x="717" y="-60"/>
      <point x="758" y="-12"/>
      <point x="758" y="14" type="curve" smooth="yes"/>
      <point x="758" y="85"/>
      <point x="730" y="160"/>
      <point x="730" y="232" type="curve" smooth="yes"/>
      <point x="730" y="264"/>
      <point x="735" y="293"/>
      <point x="754" y="324" type="curve" smooth="yes"/>
      <point x="755" y="327"/>
      <point x="757" y="333"/>
      <point x="757" y="335" type="curve" smooth="yes"/>
      <point x="757" y="341"/>
      <point x="754" y="350"/>
      <point x="750" y="355" type="curve"/>
      <point x="695" y="408"/>
      <point x="686" y="475"/>
      <point x="678" y="542" type="curve" smooth="yes"/>
      <point x="678" y="546"/>
      <point x="677" y="549"/>
      <point x="677" y="553" type="curve" smooth="yes"/>
      <point x="675" y="581"/>
      <point x="630" y="608"/>
      <point x="609" y="608" type="curve" smooth="yes"/>
      <point x="568" y="608"/>
      <point x="556" y="570"/>
      <point x="556" y="530" type="curve" smooth="yes"/>
      <point x="556" y="505"/>
      <point x="560" y="483"/>
      <point x="560" y="460" type="curve" smooth="yes"/>
      <point x="560" y="350" type="line"/>
      <point x="178" y="256" type="line"/>
      <point x="170" y="377"/>
      <point x="178" y="533"/>
      <point x="108" y="533" type="curve" smooth="yes"/>
      <point x="71" y="533"/>
      <point x="23" y="480"/>
      <point x="23" y="440" type="curve" smooth="yes"/>
      <point x="23" y="429"/>
      <point x="25" y="417"/>
      <point x="26" y="405" type="curve"/>
      <point x="45" y="285"/>
      <point x="65" y="165"/>
      <point x="86" y="43" type="curve"/>
      <point x="99" y="-12"/>
      <point x="125" y="-76"/>
      <point x="174" y="-76" type="curve" smooth="yes"/>
      <point x="222" y="-76"/>
      <point x="238" y="-42"/>
      <point x="238" y="-11" type="curve" smooth="yes"/>
      <point x="238" y="31"/>
      <point x="222" y="80"/>
      <point x="210" y="133" type="curve"/>
    </contour>
  </outline>
</glyph>
<glyph name="i" format="1">
  <advance width="366"/>
  <unicode hex="0069"/>
  <outline>
    <contour>
      <point x="154" y="167" type="line"/>
      <point x="154" y="60"/>
      <point x="182" y="-190"/>
      <point x="273" y="-190" type="curve" smooth="yes"/>
      <point x="323" y="-190"/>
      <point x="337" y="-149"/>
      <point x="337" y="-127" type="curve" smooth="yes"/>
      <point x="337" y="-104"/>
      <point x="330" y="-80"/>
      <point x="324" y="-56" type="curve"/>
      <point x="316" y="46"/>
      <point x="307" y="148"/>
      <point x="298" y="250" type="curve"/>
      <point x="298" y="287"/>
      <point x="295" y="353"/>
      <point x="247" y="353" type="curve" smooth="yes"/>
      <point x="213" y="353"/>
      <point x="191" y="318"/>
      <point x="167" y="292" type="curve" smooth="yes"/>
      <point x="154" y="279"/>
      <point x="154" y="197"/>
      <point x="154" y="167" type="curve" smooth="yes"/>
    </contour>
    <contour>
      <point x="110" y="588" type="line"/>
      <point x="131" y="585"/>
      <point x="150" y="582"/>
      <point x="165" y="582" type="curve" smooth="yes"/>
      <point x="211" y="582"/>
      <point x="228" y="598"/>
      <point x="228" y="635" type="curve" smooth="yes"/>
      <point x="228" y="684"/>
      <point x="173" y="732"/>
      <point x="113" y="732" type="curve" smooth="yes"/>
      <point x="63" y="732"/>
      <point x="28" y="700"/>
      <point x="28" y="650" type="curve" smooth="yes"/>
      <point x="28" y="598"/>
      <point x="60" y="588"/>
      <point x="104" y="588" type="curve" smooth="yes"/>
    </contour>
  </outline>
</glyph>
<glyph name="j" format="1">
  <advance width="354"/>
  <unicode hex="006A"/>
  <outline>
    <contour>
      <point x="187" y="90" type="line"/>
      <point x="155" y="106"/>
      <point x="133" y="126"/>
      <point x="110" y="126" type="curve" smooth="yes"/>
      <point x="63" y="126"/>
      <point x="29" y="94"/>
      <point x="29" y="40" type="curve" smooth="yes"/>
      <point x="29" y="-48"/>
      <point x="83" y="-124"/>
      <point x="151" y="-124" type="curve" smooth="yes"/>
      <point x="233" y="-124"/>
      <point x="329" y="-5"/>
      <point x="329" y="108" type="curve" smooth="yes"/>
      <point x="329" y="117"/>
      <point x="327" y="128"/>
      <point x="325" y="136" type="curve"/>
      <point x="307" y="292"/>
      <point x="276" y="445"/>
      <point x="250" y="598" type="curve"/>
      <point x="245" y="642"/>
      <point x="204" y="670"/>
      <point x="165" y="670" type="curve" smooth="yes"/>
      <point x="142" y="670"/>
      <point x="119" y="640"/>
      <point x="119" y="608" type="curve" smooth="yes"/>
      <point x="119" y="585"/>
      <point x="127" y="562"/>
      <point x="132" y="539" type="curve" smooth="yes"/>
      <point x="160" y="411"/>
      <point x="188" y="283"/>
      <point x="188" y="147" type="curve" smooth="yes"/>
      <point x="188" y="128"/>
      <point x="188" y="108"/>
      <point x="187" y="90" type="curve"/>
    </contour>
  </outline>
</glyph>
<glyph name="k" format="1">
  <advance width="783"/>
  <unicode hex="006B"/>
  <outline>
    <contour>
      <point x="723" y="156" type="line"/>
      <point x="710" y="171"/>
      <point x="681" y="173"/>
      <point x="658" y="178" type="curve" smooth="yes"/>
      <point x="524" y="208"/>
      <point x="386" y="225"/>
      <point x="259" y="280" type="curve"/>
      <point x="318" y="363"/>
      <point x="386" y="402"/>
      <point x="463" y="430" type="curve" smooth="yes"/>
      <point x="497" y="443"/>
      <point x="530" y="460"/>
      <point x="530" y="493" type="curve" smooth="yes"/>
      <point x="530" y="540"/>
      <point x="493" y="560"/>
      <point x="467" y="560" type="curve" smooth="yes"/>
      <point x="382" y="560"/>
      <point x="247" y="462"/>
      <point x="176" y="415" type="curve"/>
      <point x="150" y="499"/>
      <point x="148" y="556"/>
      <point x="70" y="556" type="curve"/>
      <point x="46" y="553"/>
      <point x="25" y="510"/>
      <point x="25" y="493" type="curve" smooth="yes"/>
      <point x="25" y="457"/>
      <point x="45" y="239"/>
      <point x="61" y="75" type="curve"/>
      <point x="75" y="17"/>
      <point x="91" y="-16"/>
      <point x="126" y="-16" type="curve" smooth="yes"/>
      <point x="165" y="-16"/>
      <point x="215" y="23"/>
      <point x="215" y="61" type="curve" smooth="yes"/>
      <point x="215" y="85"/>
      <point x="207" y="110"/>
      <point x="207" y="136" type="curve"/>
      <point x="618" y="46" type="line" smooth="yes"/>
      <point x="637" y="42"/>
      <point x="658" y="37"/>
      <point x="678" y="37" type="curve" smooth="yes"/>
      <point x="710" y="37"/>
      <point x="751" y="62"/>
      <point x="751" y="89" type="curve" smooth="yes"/>
      <point x="751" y="111"/>
      <point x="735" y="140"/>
      <point x="718" y="159" type="curve"/>
    </contour>
  </outline>
</glyph>
<glyph name="l" format="1">
  <advance width="678"/>
  <unicode hex="006C"/>
  <outline>
    <contour>
      <point x="320" y="-59" type="line"/>
      <point x="401" y="-34"/>
      <point x="503" y="6"/>
      <point x="608" y="45" type="curve" smooth="yes"/>
      <point x="632" y="54"/>
      <point x="652" y="78"/>
      <point x="652" y="105" type="curve" smooth="yes"/>
      <point x="652" y="150"/>
      <point x="616" y="170"/>
      <point x="588" y="170" type="curve" smooth="yes"/>
      <point x="550" y="170"/>
      <point x="503" y="146"/>
      <point x="463" y="131" type="curve" smooth="yes"/>
      <point x="409" y="111"/>
      <point x="335" y="78"/>
      <point x="288" y="78" type="curve" smooth="yes"/>
      <point x="210" y="78"/>
      <point x="197" y="197"/>
      <point x="187" y="288" type="curve" smooth="yes"/>
      <point x="184" y="312" type="line" smooth="yes"/>
      <point x="171" y="411"/>
      <point x="175" y="601"/>
      <point x="90" y="601" type="curve" smooth="yes"/>
      <point x="40" y="601"/>
      <point x="25" y="570"/>
      <point x="25" y="539" type="curve" smooth="yes"/>
      <point x="25" y="528"/>
      <point x="26" y="519"/>
      <point x="28" y="508" type="curve"/>
      <point x="45" y="363"/>
      <point x="43" y="216"/>
      <point x="89" y="80" type="curve" smooth="yes"/>
      <point x="121" y="-16"/>
      <point x="191" y="-59"/>
      <point x="320" y="-59" type="curve"/>
    </contour>
  </outline>
</glyph>
<glyph name="m" format="1">
  <advance width="1151"/>
  <unicode hex="006D"/>
  <outline>
    <contour>
      <point x="867" y="480" type="line"/>
      <point x="880" y="446"/>
      <point x="899" y="392"/>
      <point x="907" y="355" type="curve" smooth="yes"/>
      <point x="925" y="273"/>
      <point x="927" y="29"/>
      <point x="1034" y="29" type="curve" smooth="yes"/>
      <point x="1075" y="29"/>
      <point x="1119" y="66"/>
      <point x="1119" y="105" type="curve" smooth="yes"/>
      <point x="1119" y="118"/>
      <point x="1114" y="131"/>
      <point x="1104" y="145" type="curve"/>
      <point x="1055" y="198"/>
      <point x="1062" y="265"/>
      <point x="1049" y="327" type="curve" smooth="yes"/>
      <point x="1025" y="442"/>
      <point x="1022" y="622"/>
      <point x="845" y="622" type="curve" smooth="yes"/>
      <point x="707" y="622"/>
      <point x="628" y="470"/>
      <point x="564" y="373" type="curve"/>
      <point x="502" y="463"/>
      <point x="455" y="565"/>
      <point x="374" y="565" type="curve" smooth="yes"/>
      <point x="309" y="565"/>
      <point x="258" y="490"/>
      <point x="210" y="412" type="curve"/>
      <point x="178" y="507"/>
      <point x="165" y="613"/>
      <point x="91" y="613" type="curve" smooth="yes"/>
      <point x="48" y="613"/>
      <point x="23" y="582"/>
      <point x="23" y="525" type="curve" smooth="yes"/>
      <point x="23" y="463"/>
      <point x="68" y="386"/>
      <point x="82" y="317" type="curve" smooth="yes"/>
      <point x="102" y="215"/>
      <point x="117" y="111"/>
      <point x="133" y="9" type="curve" smooth="yes"/>
      <point x="140" y="-34"/>
      <point x="147" y="-81"/>
      <point x="205" y="-81" type="curve" smooth="yes"/>
      <point x="301" y="-81"/>
      <point x="287" y="85"/>
      <point x="309" y="183" type="curve" smooth="yes"/>
      <point x="324" y="250"/>
      <point x="325" y="324"/>
      <point x="386" y="406" type="curve"/>
      <point x="460" y="162" type="line" smooth="yes"/>
      <point x="481" y="93"/>
      <point x="491" y="-3"/>
      <point x="564" y="-3" type="curve" smooth="yes"/>
      <point x="590" y="-3"/>
      <point x="616" y="13"/>
      <point x="632" y="45" type="curve" smooth="yes"/>
      <point x="645" y="71"/>
      <point x="642" y="106"/>
      <point x="650" y="134" type="curve" smooth="yes"/>
      <point x="673" y="213"/>
      <point x="695" y="296"/>
      <point x="729" y="373" type="curve" smooth="yes"/>
      <point x="749" y="420"/>
      <point x="782" y="466"/>
      <point x="867" y="480" type="curve"/>
    </contour>
  </outline>
</glyph>
<glyph name="n" format="1">
  <advance width="789"/>
  <unicode hex="006E"/>
  <outline>
    <contour>
      <point x="218" y="264" type="line"/>
      <point x="324" y="134"/>
      <point x="465" y="-85"/>
      <point x="592" y="-85" type="curve" smooth="yes"/>
      <point x="749" y="-85"/>
      <point x="760" y="199"/>
      <point x="760" y="442" type="curve" smooth="yes"/>
      <point x="760" y="576" type="line" smooth="yes"/>
      <point x="760" y="609"/>
      <point x="727" y="665"/>
      <point x="694" y="665" type="curve" smooth="yes"/>
      <point x="631" y="665"/>
      <point x="625" y="573"/>
      <point x="623" y="538" type="curve" smooth="yes"/>
      <point x="615" y="365"/>
      <point x="618" y="245"/>
      <point x="587" y="45" type="curve"/>
      <point x="423" y="212"/>
      <point x="318" y="352"/>
      <point x="187" y="516" type="curve" smooth="yes"/>
      <point x="167" y="540"/>
      <point x="122" y="556"/>
      <point x="86" y="556" type="curve" smooth="yes"/>
      <point x="40" y="556"/>
      <point x="23" y="523"/>
      <point x="23" y="502" type="curve" smooth="yes"/>
      <point x="23" y="463"/>
      <point x="55" y="397"/>
      <point x="55" y="333" type="curve" smooth="yes"/>
      <point x="55" y="300" type="line" smooth="yes"/>
      <point x="55" y="245"/>
      <point x="54" y="190"/>
      <point x="54" y="134" type="curve" smooth="yes"/>
      <point x="54" y="55"/>
      <point x="61" y="-127"/>
      <point x="155" y="-127" type="curve" smooth="yes"/>
      <point x="203" y="-127"/>
      <point x="235" y="-88"/>
      <point x="235" y="-56" type="curve" smooth="yes"/>
      <point x="235" y="-42"/>
      <point x="231" y="-27"/>
      <point x="222" y="-12" type="curve"/>
      <point x="196" y="25"/>
      <point x="188" y="63"/>
      <point x="188" y="103" type="curve" smooth="yes"/>
      <point x="188" y="153"/>
      <point x="203" y="204"/>
      <point x="212" y="258" type="curve"/>
    </contour>
  </outline>
</glyph>
<glyph name="o" format="1">
  <advance width="585"/>
  <unicode hex="006F"/>
  <outline>
    <contour>
      <point x="25" y="255" type="line"/>
      <point x="29" y="150"/>
      <point x="23" y="103"/>
      <point x="48" y="66" type="curve"/>
      <point x="82" y="-28"/>
      <point x="153" y="-81"/>
      <point x="238" y="-81" type="curve" smooth="yes"/>
      <point x="272" y="-81"/>
      <point x="307" y="-72"/>
      <point x="344" y="-54" type="curve" smooth="yes"/>
      <point x="487" y="17"/>
      <point x="556" y="146"/>
      <point x="556" y="278" type="curve" smooth="yes"/>
      <point x="556" y="434"/>
      <point x="439" y="629"/>
      <point x="278" y="629" type="curve" smooth="yes"/>
      <point x="126" y="629"/>
      <point x="49" y="496"/>
      <point x="25" y="255" type="curve"/>
    </contour>
    <contour>
      <point x="247" y="491" type="line"/>
      <point x="340" y="451"/>
      <point x="412" y="412"/>
      <point x="412" y="285" type="curve" smooth="yes"/>
      <point x="412" y="188"/>
      <point x="341" y="58"/>
      <point x="236" y="58" type="curve" smooth="yes"/>
      <point x="191" y="58"/>
      <point x="150" y="122"/>
      <point x="150" y="222" type="curve" smooth="yes"/>
      <point x="150" y="313"/>
      <point x="184" y="417"/>
      <point x="241" y="488" type="curve"/>
    </contour>
  </outline>
</glyph>
<glyph name="p" format="1">
  <advance width="542"/>
  <unicode hex="0070"/>
  <outline>
    <contour>
      <point x="288" y="42" type="line"/>
      <point x="432" y="136"/>
      <point x="511" y="230"/>
      <point x="511" y="375" type="curve" smooth="yes"/>
      <point x="511" y="537"/>
      <point x="401" y="649"/>
      <point x="275" y="649" type="curve" smooth="yes"/>
      <point x="156" y="649"/>
      <point x="48" y="562"/>
      <point x="25" y="457" type="curve"/>
      <point x="25" y="450" type="line" smooth="yes"/>
      <point x="25" y="385"/>
      <point x="142" y="21"/>
      <point x="153" y="-65" type="curve" smooth="yes"/>
      <point x="155" y="-82"/>
      <point x="199" y="-105"/>
      <point x="225" y="-105" type="curve" smooth="yes"/>
      <point x="241" y="-105"/>
      <point x="269" y="-77"/>
      <point x="278" y="-56" type="curve"/>
      <point x="288" y="-28"/>
      <point x="283" y="4"/>
      <point x="288" y="42" type="curve"/>
    </contour>
    <contour>
      <point x="250" y="193" type="line"/>
      <point x="203" y="483" type="line"/>
      <point x="239" y="495"/>
      <point x="267" y="500"/>
      <point x="288" y="500" type="curve" smooth="yes"/>
      <point x="341" y="500"/>
      <point x="375" y="439"/>
      <point x="375" y="377" type="curve" smooth="yes"/>
      <point x="375" y="310"/>
      <point x="333" y="245"/>
      <point x="250" y="193" type="curve"/>
    </contour>
  </outline>
</glyph>
<glyph name="q" format="1">
  <advance width="769"/>
  <unicode hex="0071"/>
  <outline>
    <contour>
      <point x="650" y="23" type="line"/>
      <point x="707" y="126"/>
      <point x="738" y="195"/>
      <point x="738" y="293" type="curve" smooth="yes"/>
      <point x="738" y="397"/>
      <point x="698" y="499"/>
      <point x="618" y="582" type="curve" smooth="yes"/>
      <point x="562" y="640"/>
      <point x="502" y="700"/>
      <point x="425" y="700" type="curve" smooth="yes"/>
      <point x="394" y="700"/>
      <point x="358" y="690"/>
      <point x="320" y="665" type="curve"/>
      <point x="317" y="662"/>
      <point x="313" y="662"/>
      <point x="308" y="662" type="curve" smooth="yes"/>
      <point x="303" y="662"/>
      <point x="299" y="662"/>
      <point x="297" y="661" type="curve"/>
      <point x="212" y="649"/>
      <point x="156" y="601"/>
      <point x="117" y="532" type="curve" smooth="yes"/>
      <point x="68" y="445"/>
      <point x="25" y="297"/>
      <point x="25" y="196" type="curve" smooth="yes"/>
      <point x="25" y="-20"/>
      <point x="130" y="-161"/>
      <point x="312" y="-161" type="curve" smooth="yes"/>
      <point x="392" y="-161"/>
      <point x="460" y="-122"/>
      <point x="533" y="-87" type="curve"/>
      <point x="572" y="-107"/>
      <point x="616" y="-142"/>
      <point x="655" y="-142" type="curve" smooth="yes"/>
      <point x="681" y="-142"/>
      <point x="726" y="-121"/>
      <point x="726" y="-93" type="curve" smooth="yes"/>
      <point x="726" y="-45"/>
      <point x="703" y="-25"/>
      <point x="647" y="20" type="curve"/>
    </contour>
    <contour>
      <point x="288" y="527" type="line"/>
      <point x="335" y="487"/>
      <point x="361" y="467"/>
      <point x="382" y="467" type="curve" smooth="yes"/>
      <point x="403" y="467"/>
      <point x="420" y="484"/>
      <point x="454" y="518" type="curve" smooth="yes"/>
      <point x="463" y="527" type="line"/>
      <point x="551" y="460"/>
      <point x="596" y="383"/>
      <point x="596" y="301" type="curve" smooth="yes"/>
      <point x="596" y="255"/>
      <point x="582" y="205"/>
      <point x="551" y="154" type="curve"/>
      <point x="505" y="212"/>
      <point x="458" y="297"/>
      <point x="406" y="297" type="curve" smooth="yes"/>
      <point x="369" y="297"/>
      <point x="346" y="261"/>
      <point x="346" y="241" type="curve" smooth="yes"/>
      <point x="346" y="195"/>
      <point x="415" y="113"/>
      <point x="457" y="49" type="curve"/>
      <point x="415" y="1"/>
      <point x="370" y="-27"/>
      <point x="318" y="-27" type="curve" smooth="yes"/>
      <point x="193" y="-27"/>
      <point x="163" y="77"/>
      <point x="163" y="168" type="curve" smooth="yes"/>
      <point x="163" y="298"/>
      <point x="184" y="423"/>
      <point x="285" y="524" type="curve" smooth="yes"/>
    </contour>
  </outline>
</glyph>
<glyph name="r" format="1">
  <advance width="842"/>
  <unicode hex="0072"/>
  <outline>
    <contour>
      <point x="463" y="151" type="line"/>
      <point x="580" y="253"/>
      <point x="636" y="301"/>
      <point x="680" y="401" type="curve" smooth="yes"/>
      <point x="690" y="425"/>
      <point x="694" y="448"/>
      <point x="694" y="470" type="curve" smooth="yes"/>
      <point x="694" y="550"/>
      <point x="633" y="608"/>
      <point x="543" y="608" type="curve" smooth="yes"/>
      <point x="398" y="608"/>
      <point x="308" y="509"/>
      <point x="212" y="403" type="curve" smooth="yes"/>
      <point x="193" y="382" type="line"/>
      <point x="167" y="458"/>
      <point x="151" y="553"/>
      <point x="91" y="553" type="curve" smooth="yes"/>
      <point x="58" y="553"/>
      <point x="28" y="511"/>
      <point x="28" y="475" type="curve"/>
      <point x="43" y="318"/>
      <point x="66" y="163"/>
      <point x="86" y="6" type="curve" smooth="yes"/>
      <point x="90" y="-27"/>
      <point x="120" y="-72"/>
      <point x="154" y="-72" type="curve" smooth="yes"/>
      <point x="210" y="-72"/>
      <point x="225" y="-10"/>
      <point x="235" y="35" type="curve" smooth="yes"/>
      <point x="238" y="48" type="line"/>
      <point x="253" y="45" type="line" smooth="yes"/>
      <point x="393" y="18"/>
      <point x="505" y="-3"/>
      <point x="660" y="-3" type="curve" smooth="yes"/>
      <point x="700" y="-3"/>
      <point x="738" y="-11"/>
      <point x="778" y="-11" type="curve"/>
      <point x="802" y="3"/>
      <point x="814" y="25"/>
      <point x="814" y="48" type="curve" smooth="yes"/>
      <point x="814" y="77"/>
      <point x="797" y="106"/>
      <point x="765" y="123" type="curve"/>
    </contour>
    <contour>
      <point x="268" y="222" type="line"/>
      <point x="335" y="345"/>
      <point x="405" y="435"/>
      <point x="533" y="467" type="curve"/>
      <point x="533" y="370"/>
      <point x="434" y="275"/>
      <point x="268" y="222" type="curve"/>
    </contour>
  </outline>
</glyph>
<glyph name="s" format="1">
  <advance width="470"/>
  <unicode hex="0073"/>
  <outline>
    <contour>
      <point x="155" y="448" type="line"/>
      <point x="155" y="491"/>
      <point x="236" y="516"/>
      <point x="260" y="516" type="curve" smooth="yes"/>
      <point x="285" y="516"/>
      <point x="330" y="466"/>
      <point x="381" y="466" type="curve" smooth="yes"/>
      <point x="408" y="466"/>
      <point x="430" y="523"/>
      <point x="430" y="550" type="curve" smooth="yes"/>
      <point x="430" y="621"/>
      <point x="340" y="652"/>
      <point x="275" y="652" type="curve" smooth="yes"/>
      <point x="153" y="652"/>
      <point x="23" y="564"/>
      <point x="23" y="454" type="curve" smooth="yes"/>
      <point x="23" y="374"/>
      <point x="75" y="330"/>
      <point x="171" y="247" type="curve" smooth="yes"/>
      <point x="203" y="219" type="line"/>
      <point x="244" y="187"/>
      <point x="300" y="127"/>
      <point x="300" y="86" type="curve" smooth="yes"/>
      <point x="300" y="61"/>
      <point x="270" y="35"/>
      <point x="250" y="35" type="curve" smooth="yes"/>
      <point x="212" y="35"/>
      <point x="180" y="98"/>
      <point x="162" y="98" type="curve"/>
      <point x="145" y="99"/>
      <point x="126" y="102"/>
      <point x="108" y="102" type="curve" smooth="yes"/>
      <point x="75" y="102"/>
      <point x="65" y="82"/>
      <point x="65" y="48" type="curve" smooth="yes"/>
      <point x="65" y="-32"/>
      <point x="173" y="-104"/>
      <point x="252" y="-104" type="curve" smooth="yes"/>
      <point x="366" y="-104"/>
      <point x="437" y="-19"/>
      <point x="437" y="73" type="curve" smooth="yes"/>
      <point x="437" y="188"/>
      <point x="360" y="270"/>
      <point x="281" y="336" type="curve" smooth="yes"/>
      <point x="238" y="372"/>
      <point x="155" y="420"/>
      <point x="155" y="448" type="curve" smooth="yes"/>
    </contour>
  </outline>
</glyph>
<glyph name="t" format="1">
  <advance width="763"/>
  <unicode hex="0074"/>
  <outline>
    <contour>
      <point x="307" y="392" type="line"/>
      <point x="318" y="248"/>
      <point x="330" y="103"/>
      <point x="345" y="-42" type="curve" smooth="yes"/>
      <point x="352" y="-107"/>
      <point x="386" y="-144"/>
      <point x="448" y="-144" type="curve"/>
      <point x="468" y="-139"/>
      <point x="485" y="-90"/>
      <point x="485" y="-70" type="curve" smooth="yes"/>
      <point x="485" y="-44"/>
      <point x="477" y="-17"/>
      <point x="474" y="8" type="curve" smooth="yes"/>
      <point x="459" y="145"/>
      <point x="437" y="283"/>
      <point x="437" y="420" type="curve" smooth="yes"/>
      <point x="437" y="524"/>
      <point x="483" y="513"/>
      <point x="657" y="553" type="curve" smooth="yes"/>
      <point x="697" y="562"/>
      <point x="734" y="576"/>
      <point x="734" y="618" type="curve" smooth="yes"/>
      <point x="734" y="675"/>
      <point x="694" y="687"/>
      <point x="656" y="687" type="curve" smooth="yes"/>
      <point x="642" y="687"/>
      <point x="625" y="687"/>
      <point x="610" y="684" type="curve"/>
      <point x="437" y="636"/>
      <point x="261" y="590"/>
      <point x="88" y="542" type="curve" smooth="yes"/>
      <point x="55" y="533"/>
      <point x="26" y="513"/>
      <point x="26" y="480" type="curve" smooth="yes"/>
      <point x="26" y="430"/>
      <point x="61" y="412"/>
      <point x="90" y="412" type="curve" smooth="yes"/>
      <point x="145" y="412"/>
      <point x="225" y="442"/>
      <point x="304" y="462" type="curve"/>
    </contour>
  </outline>
</glyph>
<glyph name="u" format="1">
  <advance width="545"/>
  <unicode hex="0075"/>
  <outline>
    <contour>
      <point x="304" y="23" type="line"/>
      <point x="259" y="23"/>
      <point x="222" y="93"/>
      <point x="210" y="140" type="curve" smooth="yes"/>
      <point x="187" y="232"/>
      <point x="171" y="327"/>
      <point x="154" y="420" type="curve" smooth="yes"/>
      <point x="147" y="459"/>
      <point x="160" y="550"/>
      <point x="93" y="550" type="curve" smooth="yes"/>
      <point x="25" y="550"/>
      <point x="25" y="459"/>
      <point x="25" y="390" type="curve" smooth="yes"/>
      <point x="25" y="233"/>
      <point x="55" y="57"/>
      <point x="175" y="-63" type="curve" smooth="yes"/>
      <point x="212" y="-100"/>
      <point x="256" y="-116"/>
      <point x="296" y="-116" type="curve" smooth="yes"/>
      <point x="462" y="-116"/>
      <point x="514" y="127"/>
      <point x="514" y="332" type="curve" smooth="yes"/>
      <point x="514" y="432"/>
      <point x="508" y="551"/>
      <point x="438" y="630" type="curve" smooth="yes"/>
      <point x="423" y="647"/>
      <point x="405" y="660"/>
      <point x="385" y="660" type="curve" smooth="yes"/>
      <point x="353" y="660"/>
      <point x="330" y="624"/>
      <point x="330" y="588" type="curve" smooth="yes"/>
      <point x="330" y="581"/>
      <point x="332" y="570"/>
      <point x="333" y="562" type="curve"/>
      <point x="363" y="491"/>
      <point x="374" y="420"/>
      <point x="374" y="349" type="curve" smooth="yes"/>
      <point x="374" y="272"/>
      <point x="363" y="196"/>
      <point x="350" y="120" type="curve" smooth="yes"/>
      <point x="344" y="86"/>
      <point x="339" y="23"/>
      <point x="304" y="23" type="curve" smooth="yes"/>
    </contour>
  </outline>
</glyph>
<glyph name="v" format="1">
  <advance width="579"/>
  <unicode hex="0076"/>
  <outline>
    <contour>
      <point x="311" y="60" type="line"/>
      <point x="295" y="88" type="line"/>
      <point x="245" y="208"/>
      <point x="211" y="324"/>
      <point x="172" y="443" type="curve" smooth="yes"/>
      <point x="154" y="497"/>
      <point x="136" y="537"/>
      <point x="68" y="537" type="curve"/>
      <point x="40" y="531"/>
      <point x="26" y="482"/>
      <point x="26" y="458" type="curve" smooth="yes"/>
      <point x="26" y="446"/>
      <point x="29" y="429"/>
      <point x="33" y="420" type="curve"/>
      <point x="41" y="394" type="line" smooth="yes"/>
      <point x="75" y="281"/>
      <point x="109" y="168"/>
      <point x="153" y="61" type="curve" smooth="yes"/>
      <point x="184" y="-17"/>
      <point x="258" y="-101"/>
      <point x="318" y="-101" type="curve" smooth="yes"/>
      <point x="378" y="-101"/>
      <point x="430" y="-45"/>
      <point x="446" y="37" type="curve" smooth="yes"/>
      <point x="479" y="210"/>
      <point x="510" y="382"/>
      <point x="542" y="555" type="curve"/>
      <point x="543" y="565"/>
      <point x="544" y="575"/>
      <point x="544" y="585" type="curve" smooth="yes"/>
      <point x="544" y="616"/>
      <point x="530" y="649"/>
      <point x="477" y="649" type="curve" smooth="yes"/>
      <point x="400" y="649"/>
      <point x="388" y="496"/>
      <point x="372" y="406" type="curve" smooth="yes"/>
    </contour>
  </outline>
</glyph>
<glyph name="w" format="1">
  <advance width="981"/>
  <unicode hex="0077"/>
  <outline>
    <contour>
      <point x="324" y="198" type="line"/>
      <point x="313" y="220" type="line" smooth="yes"/>
      <point x="252" y="341"/>
      <point x="218" y="408"/>
      <point x="158" y="505" type="curve" smooth="yes"/>
      <point x="142" y="531"/>
      <point x="119" y="552"/>
      <point x="90" y="552" type="curve" smooth="yes"/>
      <point x="58" y="552"/>
      <point x="26" y="522"/>
      <point x="26" y="495" type="curve" smooth="yes"/>
      <point x="26" y="477"/>
      <point x="37" y="455"/>
      <point x="49" y="437" type="curve" smooth="yes"/>
      <point x="139" y="303"/>
      <point x="185" y="153"/>
      <point x="228" y="1" type="curve"/>
      <point x="245" y="-76"/>
      <point x="278" y="-119"/>
      <point x="320" y="-119" type="curve" smooth="yes"/>
      <point x="385" y="-119"/>
      <point x="413" y="-22"/>
      <point x="435" y="55" type="curve" smooth="yes"/>
      <point x="437" y="60"/>
      <point x="439" y="66"/>
      <point x="440" y="71" type="curve" smooth="yes"/>
      <point x="460" y="139"/>
      <point x="477" y="207"/>
      <point x="493" y="273" type="curve"/>
      <point x="528" y="233"/>
      <point x="542" y="193"/>
      <point x="560" y="156" type="curve" smooth="yes"/>
      <point x="613" y="49"/>
      <point x="673" y="-101"/>
      <point x="769" y="-101" type="curve" smooth="yes"/>
      <point x="924" y="-101"/>
      <point x="953" y="373"/>
      <point x="953" y="587" type="curve" smooth="yes"/>
      <point x="953" y="625"/>
      <point x="939" y="660"/>
      <point x="888" y="660" type="curve" smooth="yes"/>
      <point x="805" y="660"/>
      <point x="819" y="523"/>
      <point x="810" y="440" type="curve" smooth="yes"/>
      <point x="797" y="327"/>
      <point x="780" y="215"/>
      <point x="766" y="102" type="curve" smooth="yes"/>
      <point x="761" y="64" type="line"/>
      <point x="738" y="114"/>
      <point x="695" y="199"/>
      <point x="672" y="250" type="curve" smooth="yes"/>
      <point x="630" y="343"/>
      <point x="592" y="474"/>
      <point x="502" y="474" type="curve" smooth="yes"/>
      <point x="407" y="474"/>
      <point x="369" y="344"/>
      <point x="330" y="210" type="curve" smooth="yes"/>
      <point x="325" y="193" type="line"/>
    </contour>
  </outline>
</glyph>
<glyph name="x" format="1">
  <advance width="653"/>
  <unicode hex="0078"/>
  <outline>
    <contour>
      <point x="278" y="252" type="line"/>
      <point x="224" y="153"/>
      <point x="159" y="73"/>
      <point x="91" y="-17" type="curve"/>
      <point x="80" y="-34"/>
      <point x="71" y="-51"/>
      <point x="71" y="-67" type="curve" smooth="yes"/>
      <point x="71" y="-90"/>
      <point x="90" y="-113"/>
      <point x="131" y="-113" type="curve" smooth="yes"/>
      <point x="203" y="-113"/>
      <point x="230" y="-62"/>
      <point x="266" y="-16" type="curve" smooth="yes"/>
      <point x="303" y="31"/>
      <point x="338" y="80"/>
      <point x="377" y="128" type="curve"/>
      <point x="442" y="54"/>
      <point x="505" y="-39"/>
      <point x="562" y="-39" type="curve" smooth="yes"/>
      <point x="592" y="-39"/>
      <point x="627" y="-5"/>
      <point x="627" y="23" type="curve" smooth="yes"/>
      <point x="627" y="71"/>
      <point x="516" y="184"/>
      <point x="451" y="261" type="curve"/>
      <point x="497" y="349"/>
      <point x="535" y="432"/>
      <point x="583" y="508" type="curve" smooth="yes"/>
      <point x="605" y="543"/>
      <point x="618" y="570"/>
      <point x="618" y="592" type="curve" smooth="yes"/>
      <point x="618" y="622"/>
      <point x="587" y="657"/>
      <point x="548" y="657" type="curve" smooth="yes"/>
      <point x="485" y="657"/>
      <point x="451" y="560"/>
      <point x="409" y="480" type="curve" smooth="yes"/>
      <point x="394" y="451"/>
      <point x="375" y="423"/>
      <point x="353" y="385" type="curve"/>
      <point x="275" y="465"/>
      <point x="222" y="527"/>
      <point x="131" y="579" type="curve" smooth="yes"/>
      <point x="119" y="585"/>
      <point x="108" y="588"/>
      <point x="97" y="588" type="curve" smooth="yes"/>
      <point x="65" y="588"/>
      <point x="25" y="553"/>
      <point x="25" y="508" type="curve" smooth="yes"/>
      <point x="25" y="483"/>
      <point x="41" y="462"/>
      <point x="70" y="452" type="curve" smooth="yes"/>
      <point x="170" y="418"/>
      <point x="211" y="329"/>
      <point x="278" y="252" type="curve"/>
    </contour>
  </outline>
</glyph>
<glyph name="y" format="1">
  <advance width="588"/>
  <unicode hex="0079"/>
  <outline>
    <contour>
      <point x="390" y="155" type="line"/>
      <point x="383" y="105"/>
      <point x="370" y="29"/>
      <point x="370" y="-42" type="curve" smooth="yes"/>
      <point x="370" y="-80"/>
      <point x="385" y="-117"/>
      <point x="437" y="-117" type="curve" smooth="yes"/>
      <point x="514" y="-117"/>
      <point x="513" y="23"/>
      <point x="525" y="111" type="curve"/>
      <point x="539" y="284"/>
      <point x="556" y="439"/>
      <point x="559" y="593" type="curve" smooth="yes"/>
      <point x="559" y="621"/>
      <point x="528" y="657"/>
      <point x="510" y="657" type="curve" smooth="yes"/>
      <point x="374" y="657"/>
      <point x="458" y="428"/>
      <point x="392" y="324" type="curve"/>
      <point x="325" y="382"/>
      <point x="267" y="434"/>
      <point x="211" y="489" type="curve" smooth="yes"/>
      <point x="171" y="527"/>
      <point x="140" y="608"/>
      <point x="90" y="608" type="curve" smooth="yes"/>
      <point x="52" y="608"/>
      <point x="28" y="573"/>
      <point x="28" y="550" type="curve" smooth="yes"/>
      <point x="28" y="448"/>
      <point x="248" y="283"/>
      <point x="390" y="155" type="curve"/>
    </contour>
  </outline>
</glyph>
<glyph name="z" format="1">
  <advance width="819"/>
  <unicode hex="007A"/>
  <outline>
    <contour>
      <point x="434" y="443" type="line"/>
      <point x="434" y="395"/>
      <point x="408" y="355"/>
      <point x="389" y="316" type="curve" smooth="yes"/>
      <point x="344" y="225"/>
      <point x="256" y="103"/>
      <point x="256" y="18" type="curve" smooth="yes"/>
      <point x="256" y="-67"/>
      <point x="324" y="-92"/>
      <point x="434" y="-92" type="curve" smooth="yes"/>
      <point x="575" y="-92"/>
      <point x="792" y="-30"/>
      <point x="792" y="58" type="curve" smooth="yes"/>
      <point x="792" y="94"/>
      <point x="770" y="114"/>
      <point x="741" y="114" type="curve" smooth="yes"/>
      <point x="687" y="114"/>
      <point x="572" y="51"/>
      <point x="468" y="51" type="curve" smooth="yes"/>
      <point x="448" y="51"/>
      <point x="429" y="51"/>
      <point x="408" y="57" type="curve"/>
      <point x="474" y="182"/>
      <point x="533" y="278"/>
      <point x="567" y="398" type="curve"/>
      <point x="572" y="420"/>
      <point x="573" y="440"/>
      <point x="573" y="460" type="curve" smooth="yes"/>
      <point x="573" y="568"/>
      <point x="496" y="630"/>
      <point x="363" y="630" type="curve" smooth="yes"/>
      <point x="225" y="630"/>
      <point x="28" y="550"/>
      <point x="28" y="474" type="curve" smooth="yes"/>
      <point x="28" y="439"/>
      <point x="51" y="417"/>
      <point x="78" y="417" type="curve" smooth="yes"/>
      <point x="123" y="417"/>
      <point x="239" y="491"/>
      <point x="335" y="491" type="curve" smooth="yes"/>
      <point x="386" y="491"/>
      <point x="434" y="490"/>
      <point x="434" y="443" type="curve" smooth="yes"/>
    </contour>
  </outline>
</glyph>
<glyph name="endash" format="1">
  <advance width="731"/>
  <unicode hex="2013"/>
  <outline>
    <contour>
      <point x="238" y="176" type="line"/>
      <point x="309" y="184"/>
      <point x="544" y="195"/>
      <point x="630" y="210" type="curve"/>
      <point x="668" y="214"/>
      <point x="700" y="235"/>
      <point x="700" y="275" type="curve" smooth="yes"/>
      <point x="700" y="327"/>
      <point x="663" y="338"/>
      <point x="630" y="338" type="curve" smooth="yes"/>
      <point x="624" y="338"/>
      <point x="617" y="337"/>
      <point x="611" y="337" type="curve" smooth="yes"/>
      <point x="483" y="327"/>
      <point x="208" y="313"/>
      <point x="79" y="306" type="curve" smooth="yes"/>
      <point x="42" y="304"/>
      <point x="8" y="292"/>
      <point x="8" y="259" type="curve" smooth="yes"/>
      <point x="8" y="234"/>
      <point x="40" y="197"/>
      <point x="66" y="190" type="curve" smooth="yes"/>
      <point x="115" y="177"/>
      <point x="168" y="181"/>
      <point x="238" y="176" type="curve"/>
    </contour>
  </outline>
</glyph>
<glyph name="emdash" format="1">
  <advance width="936"/>
  <unicode hex="2014"/>
  <outline>
    <contour>
      <point x="87" y="198" type="line"/>
      <point x="221" y="184"/>
      <point x="269" y="178"/>
      <point x="669" y="178" type="curve" smooth="yes"/>
      <point x="730" y="178"/>
      <point x="779" y="179"/>
      <point x="796" y="180" type="curve" smooth="yes"/>
      <point x="842" y="182"/>
      <point x="911" y="208"/>
      <point x="911" y="253" type="curve" smooth="yes"/>
      <point x="911" y="261"/>
      <point x="908" y="270"/>
      <point x="903" y="279" type="curve" smooth="yes"/>
      <point x="884" y="311"/>
      <point x="856" y="315"/>
      <point x="800" y="315" type="curve" smooth="yes"/>
      <point x="736" y="315" type="line" smooth="yes"/>
      <point x="588" y="315"/>
      <point x="333" y="311"/>
      <point x="276" y="311" type="curve" smooth="yes"/>
      <point x="206" y="311"/>
      <point x="138" y="319"/>
      <point x="67" y="319" type="curve" smooth="yes"/>
      <point x="35" y="319"/>
      <point x="3" y="301"/>
      <point x="3" y="261" type="curve" smooth="yes"/>
      <point x="3" y="223"/>
      <point x="36" y="207"/>
      <point x="87" y="198" type="curve"/>
    </contour>
  </outline>
</glyph>
<glyph name="quoteleft" format="1">
  <advance width="316"/>
  <unicode hex="2018"/>
  <outline>
    <contour>
      <point x="23" y="633" type="line"/>
      <point x="40" y="527"/>
      <point x="43" y="414"/>
      <point x="112" y="319" type="curve" smooth="yes"/>
      <point x="130" y="293"/>
      <point x="150" y="266"/>
      <point x="180" y="266" type="curve" smooth="yes"/>
      <point x="221" y="266"/>
      <point x="245" y="302"/>
      <point x="245" y="325" type="curve" smooth="yes"/>
      <point x="245" y="343"/>
      <point x="238" y="360"/>
      <point x="227" y="378" type="curve" smooth="yes"/>
      <point x="175" y="461"/>
      <point x="155" y="551"/>
      <point x="150" y="646" type="curve" smooth="yes"/>
      <point x="148" y="686"/>
      <point x="131" y="722"/>
      <point x="83" y="722" type="curve" smooth="yes"/>
      <point x="46" y="722"/>
      <point x="24" y="689"/>
      <point x="23" y="633" type="curve"/>
    </contour>
  </outline>
</glyph>
<glyph name="quoteright" format="1">
  <advance width="277"/>
  <unicode hex="2019"/>
  <outline>
    <contour>
      <point x="209" y="349" type="line"/>
      <point x="234" y="416"/>
      <point x="236" y="494"/>
      <point x="236" y="567" type="curve" smooth="yes"/>
      <point x="236" y="623" type="line" smooth="yes"/>
      <point x="236" y="660"/>
      <point x="220" y="698"/>
      <point x="171" y="698" type="curve" smooth="yes"/>
      <point x="107" y="698"/>
      <point x="106" y="638"/>
      <point x="106" y="590" type="curve" smooth="yes"/>
      <point x="106" y="573"/>
      <point x="107" y="557"/>
      <point x="107" y="540" type="curve" smooth="yes"/>
      <point x="107" y="486"/>
      <point x="105" y="434"/>
      <point x="63" y="390" type="curve" smooth="yes"/>
      <point x="49" y="375"/>
      <point x="39" y="357"/>
      <point x="39" y="340" type="curve" smooth="yes"/>
      <point x="39" y="306"/>
      <point x="79" y="280"/>
      <point x="109" y="280" type="curve" smooth="yes"/>
      <point x="143" y="280"/>
      <point x="192" y="310"/>
      <point x="209" y="349" type="curve"/>
    </contour>
  </outline>
</glyph>
<glyph name="quotedblleft" format="1">
  <advance width="562"/>
  <unicode hex="201C"/>
  <outline>
    <contour>
      <point x="33" y="595" type="line"/>
      <point x="33" y="459"/>
      <point x="62" y="370"/>
      <point x="123" y="308" type="curve" smooth="yes"/>
      <point x="155" y="275"/>
      <point x="191" y="251"/>
      <point x="232" y="251" type="curve" smooth="yes"/>
      <point x="241" y="251"/>
      <point x="250" y="252"/>
      <point x="259" y="254" type="curve" smooth="yes"/>
      <point x="282" y="260"/>
      <point x="321" y="296"/>
      <point x="321" y="320" type="curve" smooth="yes"/>
      <point x="321" y="337"/>
      <point x="295" y="374"/>
      <point x="278" y="377" type="curve" smooth="yes"/>
      <point x="188" y="394"/>
      <point x="173" y="459"/>
      <point x="163" y="529" type="curve"/>
      <point x="155" y="569"/>
      <point x="162" y="611"/>
      <point x="150" y="648" type="curve" smooth="yes"/>
      <point x="143" y="669"/>
      <point x="111" y="697"/>
      <point x="91" y="697" type="curve" smooth="yes"/>
      <point x="62" y="697"/>
      <point x="31" y="639"/>
      <point x="31" y="619" type="curve" smooth="yes"/>
      <point x="31" y="608"/>
      <point x="33" y="598"/>
      <point x="33" y="595" type="curve" smooth="yes"/>
    </contour>
    <contour>
      <point x="301" y="611" type="line"/>
      <point x="317" y="504"/>
      <point x="322" y="393"/>
      <point x="392" y="297" type="curve" smooth="yes"/>
      <point x="410" y="271"/>
      <point x="429" y="244"/>
      <point x="459" y="244" type="curve" smooth="yes"/>
      <point x="499" y="244"/>
      <point x="524" y="280"/>
      <point x="524" y="303" type="curve" smooth="yes"/>
      <point x="524" y="320"/>
      <point x="516" y="338"/>
      <point x="505" y="356" type="curve" smooth="yes"/>
      <point x="454" y="439"/>
      <point x="434" y="529"/>
      <point x="429" y="624" type="curve" smooth="yes"/>
      <point x="427" y="664"/>
      <point x="410" y="700"/>
      <point x="361" y="700" type="curve" smooth="yes"/>
      <point x="325" y="700"/>
      <point x="303" y="667"/>
      <point x="301" y="611" type="curve"/>
    </contour>
  </outline>
</glyph>
<glyph name="quotedblright" format="1">
  <advance width="516"/>
  <unicode hex="201D"/>
  <outline>
    <contour>
      <point x="187" y="353" type="line"/>
      <point x="215" y="294"/>
      <point x="251" y="263"/>
      <point x="292" y="263" type="curve" smooth="yes"/>
      <point x="316" y="263"/>
      <point x="345" y="274"/>
      <point x="374" y="298" type="curve" smooth="yes"/>
      <point x="454" y="364"/>
      <point x="475" y="438"/>
      <point x="475" y="539" type="curve" smooth="yes"/>
      <point x="475" y="554"/>
      <point x="476" y="571"/>
      <point x="476" y="589" type="curve" smooth="yes"/>
      <point x="476" y="647"/>
      <point x="469" y="710"/>
      <point x="408" y="710" type="curve" smooth="yes"/>
      <point x="364" y="710"/>
      <point x="347" y="681"/>
      <point x="347" y="647" type="curve" smooth="yes"/>
      <point x="347" y="623"/>
      <point x="354" y="598"/>
      <point x="354" y="571" type="curve" smooth="yes"/>
      <point x="354" y="487"/>
      <point x="348" y="401"/>
      <point x="236" y="385" type="curve" smooth="yes"/>
      <point x="218" y="382"/>
      <point x="202" y="361"/>
      <point x="184" y="349" type="curve"/>
    </contour>
    <contour>
      <point x="184" y="349" type="line"/>
      <point x="193" y="438"/>
      <point x="205" y="527"/>
      <point x="211" y="616" type="curve" smooth="yes"/>
      <point x="211" y="623" type="line" smooth="yes"/>
      <point x="211" y="660"/>
      <point x="195" y="698"/>
      <point x="146" y="698" type="curve" smooth="yes"/>
      <point x="82" y="698"/>
      <point x="81" y="638"/>
      <point x="81" y="590" type="curve" smooth="yes"/>
      <point x="81" y="573"/>
      <point x="82" y="557"/>
      <point x="82" y="540" type="curve" smooth="yes"/>
      <point x="82" y="486"/>
      <point x="80" y="434"/>
      <point x="38" y="390" type="curve" smooth="yes"/>
      <point x="24" y="375"/>
      <point x="14" y="357"/>
      <point x="14" y="340" type="curve" smooth="yes"/>
      <point x="14" y="308"/>
      <point x="51" y="281"/>
      <point x="77" y="281" type="curve" smooth="yes"/>
      <point x="111" y="281"/>
      <point x="152" y="320"/>
      <point x="187" y="353" type="curve"/>
      <point x="187" y="353"/>
      <point x="184" y="349"/>
      <point x="184" y="349" type="curve"/>
    </contour>
  </outline>
</glyph>
<glyph name="bullet" format="1">
  <advance width="382"/>
  <unicode hex="2022"/>
  <outline>
    <contour>
      <point x="139" y="422" type="line"/>
      <point x="86" y="421"/>
      <point x="26" y="381"/>
      <point x="26" y="318" type="curve" smooth="yes"/>
      <point x="26" y="231"/>
      <point x="89" y="170"/>
      <point x="160" y="170" type="curve" smooth="yes"/>
      <point x="240" y="170"/>
      <point x="282" y="228"/>
      <point x="290" y="296" type="curve"/>
      <point x="290" y="365"/>
      <point x="227" y="422"/>
      <point x="139" y="422" type="curve"/>
    </contour>
  </outline>
</glyph>
<glyph name=".notdef" format="1">
  <advance width="709"/>
  <outline>
    <contour>
      <point x="70" y="0" type="line"/>
      <point x="637" y="0" type="line"/>
      <point x="637" y="755" type="line"/>
      <point x="70" y="755" type="line"/>
    </contour>
    <contour>
      <point x="142" y="70" type="line"/>
      <point x="142" y="685" type="line"/>
      <point x="567" y="685" type="line"/>
      <point x="567" y="70" type="line"/>
    </contour>
  </outline>
</glyph>
